<?xml version="1.0" encoding="UTF-8"?>
<svg version="1.1" xmlns="http://www.w3.org/2000/svg" width="1080" height="1350">
<path d="M0 0 C356.4 0 712.8 0 1080 0 C1080 445.5 1080 891 1080 1350 C723.6 1350 367.2 1350 0 1350 C0 904.5 0 459 0 0 Z " fill="#85976D" transform="translate(0,0)"/>
<path d="M0 0 C0.92876953 -0.020625 1.85753906 -0.04125 2.81445312 -0.0625 C9.09249386 -0.09824685 13.59402155 0.5783694 18.4375 4.9375 C20.16402751 8.48647321 20.30995253 11.45524098 19.5625 15.25 C15.16089215 27.17334278 4.78639962 36.91145107 -4.81640625 44.8828125 C-6.46268717 46.27124219 -8.00557034 47.63962318 -9.4375 49.25 C-9.4375 49.91 -9.4375 50.57 -9.4375 51.25 C-7.79328869 52.51660762 -6.0947705 53.71305546 -4.375 54.875 C2.84860189 60.01343846 8.00693714 64.6173331 10.5625 73.25 C11.6246875 72.8890625 12.686875 72.528125 13.78125 72.15625 C15.20813005 71.68688156 16.63522511 71.21816641 18.0625 70.75 C18.75859375 70.51152344 19.4546875 70.27304687 20.171875 70.02734375 C25.15355646 68.41290994 29.32780467 68.01420291 34.5625 68.25 C35.2225 69.57 35.8825 70.89 36.5625 72.25 C30.32707599 79.06999501 23.41068197 82.73072597 14.5625 85.25 C14.57410156 85.96285156 14.58570313 86.67570313 14.59765625 87.41015625 C14.60667969 88.36792969 14.61570312 89.32570313 14.625 90.3125 C14.63660156 91.25222656 14.64820313 92.19195313 14.66015625 93.16015625 C14.55202781 96.58134024 14.09814779 99.87162296 13.5625 103.25 C14.06700684 102.91154053 14.57151367 102.57308105 15.09130859 102.22436523 C17.36792828 100.70373432 19.65250966 99.19552015 21.9375 97.6875 C22.7315625 97.15447266 23.525625 96.62144531 24.34375 96.07226562 C25.10429687 95.57275391 25.86484375 95.07324219 26.6484375 94.55859375 C27.3501709 94.09251709 28.0519043 93.62644043 28.77490234 93.14624023 C29.65976318 92.70260132 29.65976318 92.70260132 30.5625 92.25 C31.2225 92.58 31.8825 92.91 32.5625 93.25 C27.29123565 97.19843755 22.12669384 101.01217007 16.3125 104.125 C11.54784666 106.88744514 9.14284396 110.23315067 6.1796875 114.80078125 C-1.77707059 126.85123371 -16.49540601 133.43770406 -30.08203125 136.9296875 C-49.11310081 140.81575205 -66.44619035 138.43656651 -83.4375 129.25 C-84.76816139 128.578016 -86.10040391 127.90908746 -87.4375 127.25 C-88.61892578 128.19359375 -88.61892578 128.19359375 -89.82421875 129.15625 C-112.18347503 146.81468514 -141.41686083 163.28180511 -170.6875 163.4375 C-171.90953125 163.45167969 -173.1315625 163.46585938 -174.390625 163.48046875 C-177.4375 163.25 -177.4375 163.25 -179.4375 161.25 C-178.69843775 152.30734679 -170.00156723 145.45659973 -163.68359375 139.91015625 C-148.74755391 127.47196827 -120.57892257 105.25 -100.4375 105.25 C-100.7675 104.26 -101.0975 103.27 -101.4375 102.25 C-103.36078555 79.63973853 -96.153119 61.86136993 -82.4375 44.25 C-81.7775 43.26 -81.1175 42.27 -80.4375 41.25 C-114.24345865 39.98491215 -150.10290185 52.58846912 -175.625 74.625 C-184.6928777 83.04722185 -190.31698938 92.1448926 -195.4375 103.25 C-196.7575 102.92 -198.0775 102.59 -199.4375 102.25 C-197.35005444 88.16602998 -182.26292907 74.82798973 -171.52734375 66.43359375 C-148.7660639 50.34818864 -118.67207672 38.13770956 -90.4453125 38.203125 C-81.51244575 38.4696337 -81.51244575 38.4696337 -73.44140625 35.28515625 C-70.9622976 32.77580729 -70.9622976 32.77580729 -68.73828125 30.0078125 C-53.25819477 11.45273431 -23.46415163 0.12972579 0 0 Z " fill="#E4DAC4" transform="translate(465.4375,666.75)"/>
<path d="M0 0 C0.73856942 2.67848278 1.18539951 4.42568771 0.3203125 7.10546875 C-3.35548248 13.50807897 -7.89775489 18.68949999 -13 24 C-14.18529297 25.29744141 -14.18529297 25.29744141 -15.39453125 26.62109375 C-26.44430159 38.31585837 -39.769075 47.25255117 -53.98657227 54.66625977 C-60.08950617 57.87179158 -64.98758825 61.52622827 -69.4375 66.875 C-74.03314561 72.24666472 -78.88797267 77.09150514 -84.3125 81.625 C-87.26639275 84.15609185 -89.05528135 86.10303555 -90 90 C-82.51422681 88.93287914 -76.49672087 86.85742802 -70 83 C-69.42507813 82.65888184 -68.85015625 82.31776367 -68.2578125 81.96630859 C-57.73499129 75.5833006 -49.53062884 67.85903549 -41.328125 58.72265625 C-40.74063477 58.07022949 -40.15314453 57.41780273 -39.54785156 56.74560547 C-38.31731904 55.3578598 -37.12112099 53.93968574 -35.9375 52.51171875 C-33.18289751 50.36246237 -31.18792683 50.60052492 -27.75 50.75 C-26.67234375 50.78609375 -25.5946875 50.8221875 -24.484375 50.859375 C-23.66453125 50.90578125 -22.8446875 50.9521875 -22 51 C-25.19498857 55.09357911 -28.56099096 58.45304632 -32.49609375 61.828125 C-46.03129826 73.25258963 -46.03129826 73.25258963 -57 87 C-57 87.99 -57 88.98 -57 90 C-45.39278385 89.73619963 -34.14619261 80.2211008 -26.31640625 72.27734375 C-22.55881212 68.27658419 -18.92263389 64.31001153 -15.7578125 59.81640625 C-10.48510831 52.39019833 -10.48510831 52.39019833 -5.55078125 51.09375 C-2.3163226 50.84198673 0.76534336 50.78502282 4 51 C3.30003906 51.68964844 2.60007812 52.37929688 1.87890625 53.08984375 C-0.61731782 55.58606782 -3.01521841 58.16070239 -5.40380859 60.75952148 C-14.95949256 71.14644025 -24.97258579 81.07119122 -35 91 C-31.34079644 89.86082014 -28.09215196 88.65442169 -24.828125 86.64453125 C-24.08546387 86.18989502 -23.34280273 85.73525879 -22.57763672 85.2668457 C-21.8095166 84.78691162 -21.04139648 84.30697754 -20.25 83.8125 C-19.4573877 83.32289795 -18.66477539 82.8332959 -17.84814453 82.32885742 C-12.08844768 78.74568745 -6.46432521 75.02273188 -1 71 C-0.34 71.33 0.32 71.66 1 72 C-5.51599936 77.0089951 -12.2513204 81.51351619 -19.25 85.8125 C-20.00587402 86.28018799 -20.76174805 86.74787598 -21.54052734 87.22973633 C-26.80887615 90.43155595 -31.94146371 93.19682999 -37.9453125 94.7734375 C-42.34470895 96.53994707 -45.39168209 99.46571166 -48.875 102.625 C-49.56335938 103.23601562 -50.25171875 103.84703125 -50.9609375 104.4765625 C-52.64814746 105.97630469 -54.32733066 107.48408367 -56 109 C-55.29875 109.18175781 -54.5975 109.36351562 -53.875 109.55078125 C-48.10321471 111.07999067 -42.55100893 112.80054363 -37 115 C-37.99 116.98 -37.99 116.98 -39 119 C-40.27156277 118.58556473 -41.5421859 118.16824702 -42.8125 117.75 C-43.62847656 117.48316406 -44.44445312 117.21632813 -45.28515625 116.94140625 C-47.16475366 116.28963218 -49.02659353 115.58517241 -50.87109375 114.83984375 C-51.82113281 114.45957031 -52.77117187 114.07929687 -53.75 113.6875 C-54.63171875 113.32011719 -55.5134375 112.95273437 -56.421875 112.57421875 C-60.71715614 111.6175425 -63.19627805 113.51909347 -66.83984375 115.69921875 C-67.86207031 116.35535156 -68.88429688 117.01148438 -69.9375 117.6875 C-89.93203174 130.17123605 -111.60339331 137.93692636 -135.4453125 134.50390625 C-140.80670481 133.21103644 -144.79582762 131.75101423 -148 127 C-148.625 124.0625 -148.625 124.0625 -148 121 C-141.15987516 111.46909075 -129.23351857 107.19602619 -118 105 C-111.11972316 103.88149006 -104.35197693 103.8139056 -97.40429688 103.81469727 C-95.26932559 103.81251971 -93.13487962 103.79434654 -91 103.77539062 C-83.94295097 103.74736365 -77.26096753 104.1187957 -70.32250977 105.54663086 C-65.76655401 106.43598331 -62.4104476 106.8177705 -58.33203125 104.453125 C-57.08486328 103.36257813 -57.08486328 103.36257813 -55.8125 102.25 C-54.884375 101.44175781 -53.95625 100.63351562 -53 99.80078125 C-47.83036571 95.03954807 -42.89108346 90.04473006 -38 85 C-39.62808594 85.86625 -39.62808594 85.86625 -41.2890625 86.75 C-42.73404309 87.50063927 -44.17937431 88.25060385 -45.625 89 C-46.33785156 89.3815625 -47.05070313 89.763125 -47.78515625 90.15625 C-52.01176782 92.32772016 -55.12657375 93.60093376 -60 93 C-61.9375 91.875 -61.9375 91.875 -63 90 C-62.7949253 85.38581933 -61.08956843 82.04924476 -59 78 C-59.97839844 78.67546875 -60.95679688 79.3509375 -61.96484375 80.046875 C-81.24354287 93.225904 -81.24354287 93.225904 -90 92 C-91.9375 90.875 -91.9375 90.875 -93 89 C-93.65258388 84.1056209 -92.25319655 81.27392044 -90 77 C-90.49290527 77.33733154 -90.98581055 77.67466309 -91.49365234 78.0222168 C-114.10449838 93.44349977 -114.10449838 93.44349977 -121.5 94.5 C-122.325 94.335 -123.15 94.17 -124 94 C-126.41694329 90.37458506 -126.63483571 89.28514107 -126 85 C-120.19974936 73.66783772 -109.68890483 65.85435912 -99.7734375 58.3046875 C-96.54447617 55.76669732 -95.19445139 54.700025 -94.0625 50.625 C-94.041875 49.75875 -94.02125 48.8925 -94 48 C-96.07705789 47.77547533 -96.07705789 47.77547533 -97.43432617 49.30712891 C-97.98580322 49.89929199 -98.53728027 50.49145508 -99.10546875 51.1015625 C-102.88647846 54.98286683 -106.93599285 58.19333078 -111.3125 61.375 C-112.11647217 61.96224854 -112.92044434 62.54949707 -113.7487793 63.15454102 C-159.17981464 95.94233593 -159.17981464 95.94233593 -175 94 C-178.0625 92.5 -178.0625 92.5 -180 90 C-180.55394973 85.0144524 -180.27180221 81.54360441 -178 77 C-179.010625 77.61875 -180.02125 78.2375 -181.0625 78.875 C-185.11206837 80.94986719 -188.67434897 81.36689608 -193.1875 81.75 C-200.67791768 82.55815695 -205.14694389 84.93885175 -211.1953125 89.125 C-215.76226122 92.17811335 -219.4671997 93.60139134 -225 93 C-226.875 91.875 -226.875 91.875 -228 90 C-228.04510131 88.0005086 -228.04876598 85.99940538 -228 84 C-228.90621094 84.56589844 -229.81242188 85.13179687 -230.74609375 85.71484375 C-243.33726974 93.37685559 -243.33726974 93.37685559 -251 93 C-252.7421875 91.6640625 -252.7421875 91.6640625 -254 90 C-253.88787975 84.95458871 -251.81766703 82.05039636 -249 78 C-248.79890625 77.01773438 -248.79890625 77.01773438 -248.59375 76.015625 C-247.81676144 73.37795329 -246.64402516 72.56809923 -244.5 70.875 C-241.16907301 68.09922751 -238.25323984 65.18161778 -235.375 61.9375 C-234.61574219 61.09316406 -233.85648438 60.24882813 -233.07421875 59.37890625 C-231.8433278 57.96720646 -230.64378336 56.52535777 -229.51953125 55.02734375 C-227.25925428 52.22353977 -225.53402693 51.06323099 -221.96484375 50.640625 C-218.9505184 50.62652289 -216.00191959 50.73769635 -213 51 C-216.19498857 55.09357911 -219.56099096 58.45304632 -223.49609375 61.828125 C-237.03129826 73.25258963 -237.03129826 73.25258963 -248 87 C-248 87.99 -248 88.98 -248 90 C-239.90683387 89.81606441 -233.03067023 85.1091732 -226.76171875 80.2734375 C-225 79 -225 79 -223 79 C-222.78601563 78.47921875 -222.57203125 77.9584375 -222.3515625 77.421875 C-220.4402074 73.99690344 -217.94201388 71.20200673 -215.375 68.25 C-214.84028076 67.62963867 -214.30556152 67.00927734 -213.75463867 66.37011719 C-210.14524767 62.21815217 -206.41167631 58.24921553 -202.42578125 54.453125 C-200.89073009 53.03746298 -200.89073009 53.03746298 -200 51 C-195.71 51 -191.42 51 -187 51 C-191.46808511 56.58510638 -191.46808511 56.58510638 -194.5 59.125 C-211.72707533 72.84140791 -211.72707533 72.84140791 -223 91 C-215.70030476 89.14862802 -209.67415253 85.99154771 -204 81 C-202.95191959 79.02477154 -201.9479589 77.02518491 -201 75 C-197.83756735 72.06845292 -194.57144426 69.56964854 -190.5 68.09375 C-184.16456262 65.32199615 -179.56708821 58.25727752 -177 52 C-172.71 52 -168.42 52 -164 52 C-166.19523525 54.19523525 -168.02297495 55.80444197 -170.5 57.5625 C-175.01034865 60.89156686 -179.05250444 64.65423487 -183.16796875 68.453125 C-187.29338228 72.16315206 -191.61933306 75.59809378 -196 79 C-187.98360805 79.91095363 -180.56096156 76.78728502 -174.28515625 71.875 C-171.81616052 69.62284981 -169.40957857 67.31532635 -167 65 C-156.99590335 56.50415457 -146.23371785 51.52736722 -133 52 C-132.01 53.98 -132.01 53.98 -131 56 C-137.86087288 63.50407972 -146.58420703 68.03699598 -156.390625 70.6328125 C-164.09760251 72.70373503 -167.41265026 77.41109552 -171.9375 83.6875 C-173.1427692 86.31073298 -173.24471161 88.14503123 -173 91 C-158.26472386 92.11209631 -146.6910456 82.79243978 -135 75 C-134.26458984 74.50983398 -133.52917969 74.01966797 -132.77148438 73.51464844 C-110.11388649 60.43185173 -110.11388649 60.43185173 -94.47265625 42.16015625 C-94.33730469 41.46792969 -94.20195313 40.77570312 -94.0625 40.0625 C-93.49166297 37.64302921 -93.06158018 36.09383647 -91.6875 34 C-89.39169004 32.63952002 -87.61714385 32.78779915 -85 33 C-84.625 35.1875 -84.625 35.1875 -85 38 C-85.99515625 38.71929688 -86.9903125 39.43859375 -88.015625 40.1796875 C-90.92511145 42.48621834 -90.97301353 42.77108847 -91.4453125 46.77734375 C-91.36882091 48.16606184 -91.26122873 49.55336466 -91.125 50.9375 C-90.60383482 56.87545642 -91.12661782 60.24166231 -95 65 C-99.74907089 70.59751279 -105.42459254 75.04047253 -111.34350586 79.32324219 C-115.24157757 82.19893688 -118.12153742 85.14424864 -121 89 C-121 89.66 -121 90.32 -121 91 C-114.36750774 90.11949598 -109.62498082 87.46491527 -104 84 C-103.31180176 83.57702637 -102.62360352 83.15405273 -101.91455078 82.71826172 C-90.56167136 75.61933105 -81.04363854 67.65151047 -71.83203125 57.9453125 C-69.44449492 55.43537697 -67.0170251 53.09861616 -64.375 50.859375 C-60.55581964 47.58526077 -57.01719187 44.08007795 -53.48046875 40.5078125 C-52.89171463 39.91352448 -52.30296051 39.31923645 -51.69636536 38.7069397 C-49.24460699 36.22771313 -46.79642646 33.74503027 -44.35327148 31.25732422 C-36.90085877 23.67822747 -29.43991219 16.49101301 -21 10 C-20.39969971 9.53625977 -19.79939941 9.07251953 -19.1809082 8.59472656 C-17.8225933 7.56459659 -16.44379648 6.56160317 -15.0625 5.5625 C-13.74958984 4.60537109 -13.74958984 4.60537109 -12.41015625 3.62890625 C-7.99831049 0.64715636 -5.39108417 -0.24504928 0 0 Z " fill="#E1D9C2" transform="translate(747,683)"/>
<path d="M0 0 C2.375 1.0625 2.375 1.0625 4 3 C5.47160012 9.28774596 2.35563628 13.45991771 -0.8828125 18.7421875 C-2.02381076 20.49789331 -3.18057463 22.24567955 -4.4206543 23.93286133 C-8.91192108 30.19265808 -11.23659142 36.63170759 -13.5625 43.9375 C-20.63190363 65.82862288 -20.63190363 65.82862288 -27.625 71.5 C-28.38039063 72.1290625 -29.13578125 72.758125 -29.9140625 73.40625 C-34.61764706 77 -34.61764706 77 -38 77 C-38.04125 78.093125 -38.0825 79.18625 -38.125 80.3125 C-39.48655754 90.74497469 -46.84938529 98.82538994 -54 106 C-54.66515625 106.68835938 -55.3303125 107.37671875 -56.015625 108.0859375 C-69.89641293 121.48990447 -88.738179 128.24497568 -107.66967773 129.61376953 C-123.0286899 130.74202834 -136.28944054 135.08192212 -149 144 C-149.33 144.66 -149.66 145.32 -150 146 C-149.13375 146.185625 -149.13375 146.185625 -148.25 146.375 C-145.97664233 147.00648824 -144.0746471 147.88858191 -142 149 C-142.33 149.66 -142.66 150.32 -143 151 C-144.98 150.67 -146.96 150.34 -149 150 C-149.33 149.01 -149.66 148.02 -150 147 C-153.72223767 149.03266544 -156.3045856 151.16200231 -159.0625 154.375 C-159.74441406 155.16519531 -160.42632813 155.95539063 -161.12890625 156.76953125 C-163.12565151 159.149785 -165.09793648 161.54316796 -167 164 C-167.99 163.67 -168.98 163.34 -170 163 C-169.40716913 159.39428893 -167.97258223 157.45570562 -165.5625 154.75 C-164.94503906 154.04359375 -164.32757812 153.3371875 -163.69140625 152.609375 C-162 151 -162 151 -160 151 C-160 150.34 -160 149.68 -160 149 C-157.27464416 145.97182684 -154.19658064 143.51159907 -151 141 C-150.113125 140.195625 -149.22625 139.39125 -148.3125 138.5625 C-135.99954674 128.42059643 -119.66655557 125.9323071 -104.375 124.0625 C-91.29152306 122.43786856 -80.14442185 120.21326682 -69.84375 111.39453125 C-68 110 -68 110 -65.1953125 108.7109375 C-61.25116487 106.59903449 -58.49755425 103.97518053 -55.375 100.8125 C-54.53582031 100.00329102 -54.53582031 100.00329102 -53.6796875 99.17773438 C-42.39703294 87.8817748 -40.39078478 71.1235249 -38 56 C-40.97 56.495 -40.97 56.495 -44 57 C-44 57.99 -44 58.98 -44 60 C-45.65385233 61.34919532 -47.321702 62.68133728 -49 64 C-51.24509588 67.4896599 -51.67941984 71.20745175 -52.375 75.25 C-54.4818464 86.29703044 -57.89476494 92.19289136 -67 99 C-75.80833772 104.68461412 -82.40634705 105.21073075 -92.84448242 105.24023438 C-94.92732499 105.24995253 -97.00918501 105.28100865 -99.09179688 105.3125 C-101.07083008 105.32023438 -101.07083008 105.32023438 -103.08984375 105.328125 C-104.29503662 105.3374707 -105.50022949 105.34681641 -106.74194336 105.35644531 C-110.26074672 104.9714732 -112.1479692 104.04029119 -115 102 C-114.505 100.515 -114.505 100.515 -114 99 C-112.54146606 99.04713135 -112.54146606 99.04713135 -111.0534668 99.09521484 C-107.39528436 99.2050177 -103.73724258 99.27312402 -100.07788086 99.32958984 C-98.50373731 99.35949391 -96.92975644 99.40023431 -95.35620117 99.45263672 C-85.06044866 99.78655302 -77.64233359 99.30003666 -69 93 C-67.81603638 92.15103149 -67.81603638 92.15103149 -66.6081543 91.28491211 C-61.14282705 87.18412295 -58.96875619 82.43731463 -57 76 C-57.46148438 76.34933594 -57.92296875 76.69867187 -58.3984375 77.05859375 C-63.86068531 80.86921327 -68.38742532 81.85094606 -75 82 C-74.86328125 80.16015625 -74.86328125 80.16015625 -74 78 C-71.41796875 76.62109375 -71.41796875 76.62109375 -68.1875 75.4375 C-63.76791524 73.81235347 -63.76791524 73.81235347 -59.80078125 71.34765625 C-58 70 -58 70 -55 70 C-54.86722656 69.31292969 -54.73445312 68.62585938 -54.59765625 67.91796875 C-54.33275391 66.56638672 -54.33275391 66.56638672 -54.0625 65.1875 C-53.88847656 64.29417969 -53.71445312 63.40085937 -53.53515625 62.48046875 C-53 60 -53 60 -52 57 C-53.7015625 57.92232422 -53.7015625 57.92232422 -55.4375 58.86328125 C-56.95819265 59.67994952 -58.47903396 60.49634102 -60 61.3125 C-60.74378906 61.71662109 -61.48757813 62.12074219 -62.25390625 62.53710938 C-74.33898628 69 -74.33898628 69 -81 69 C-80.91015625 67.203125 -80.91015625 67.203125 -80 65 C-77.79991244 63.7183956 -75.7695138 62.72499915 -73.4375 61.75 C-72.06700345 61.13960103 -70.69723527 60.52756457 -69.328125 59.9140625 C-68.25981445 59.44274902 -68.25981445 59.44274902 -67.16992188 58.96191406 C-52.54095588 52.47697639 -39.24621698 45.4580227 -32.125 30.25 C-29.84751612 25.5508877 -27.29984769 21.32678224 -24.32421875 17.046875 C-22.45486273 14.15736894 -21.22873964 11.20837573 -20 8 C-28.28633353 9.7756429 -31.50460104 16.18282659 -35.875 22.875 C-42.88485133 33.46238374 -49.87667084 39.83212828 -61 46 C-62.01755371 46.58128662 -62.01755371 46.58128662 -63.05566406 47.17431641 C-71.88618866 52.21025455 -79.94748383 56.01849441 -90 58 C-91.051875 58.37125 -92.10375 58.7425 -93.1875 59.125 C-99.44085684 61.07048879 -109.95797 63.021015 -116 60 C-116.10957031 60.87140625 -116.21914063 61.7428125 -116.33203125 62.640625 C-117.39299148 70.61076524 -118.9341872 78.23786182 -121 86 C-121.75530599 89.16705035 -122.50888746 92.33441954 -123.25390625 95.50390625 C-124 98 -124 98 -126 101 C-127.32 101 -128.64 101 -130 101 C-129.587247 97.18203473 -128.6195332 93.96423274 -127.1875 90.4375 C-125.09861895 84.92496554 -124.03311615 79.40503181 -123 73.625 C-121.05595538 62.83816658 -119.07408922 52.32806559 -113 43 C-116.03883493 41.67814273 -118.66853905 40.90438405 -122 41 C-125.50488425 43.19750679 -128.13907169 46.04060762 -131 49 C-134.62251656 52 -134.62251656 52 -137 52 C-137.37898437 52.85658203 -137.37898437 52.85658203 -137.765625 53.73046875 C-139.1559257 56.28668617 -140.78491928 58.16842937 -142.75 60.3125 C-145.36111092 63.17997454 -147.90673981 66.07140637 -150.375 69.0625 C-151.674375 70.5165625 -151.674375 70.5165625 -153 72 C-153.66 72 -154.32 72 -155 72 C-155.28665527 72.5779834 -155.57331055 73.1559668 -155.86865234 73.75146484 C-161.3106099 84.56726741 -167.00296526 94.85648772 -175 104 C-175.99946718 105.23425507 -176.99527849 106.47147563 -177.98828125 107.7109375 C-179.05392621 109.01624688 -180.12033127 110.3209361 -181.1875 111.625 C-181.68685059 112.25438477 -182.18620117 112.88376953 -182.70068359 113.53222656 C-186.35742675 117.91058326 -186.35742675 117.91058326 -189.86328125 118.3984375 C-190.56839844 118.26695312 -191.27351562 118.13546875 -192 118 C-191.44204986 114.21270207 -189.87689514 112.58053171 -187.125 110 C-184.99160468 107.98468929 -183.09294872 106.12808244 -181.3671875 103.75 C-180.91601562 103.1725 -180.46484375 102.595 -180 102 C-179.34 102 -178.68 102 -178 102 C-177.89042969 101.40574219 -177.78085937 100.81148437 -177.66796875 100.19921875 C-176.92448877 97.75138699 -176.0518838 96.66145128 -174.3125 94.8125 C-169.35533896 89.24013043 -165.58036485 83.18933521 -162.1875 76.5625 C-158.94622325 70.51659518 -154.70834534 65.93747989 -150 61 C-149.09369431 59.98790891 -148.19148058 58.97214162 -147.29296875 57.953125 C-142.58518374 52.6386837 -137.85147234 47.79615634 -132.11328125 43.56640625 C-123.92301157 37.49561486 -115.86729731 30.1831442 -109.9375 21.875 C-105.29862065 15.44702117 -98.41424653 9.05466957 -91 6 C-87.25470503 6.12279656 -84.53019776 6.82326741 -81 8 C-80.22998243 14.9301581 -82.9101944 19.89763393 -86 26 C-85.01 26 -84.02 26 -83 26 C-83 26.66 -83 27.32 -83 28 C-83.825 27.835 -84.65 27.67 -85.5 27.5 C-90.22358597 28.174798 -91.64993262 30.36127699 -94.7890625 33.7890625 C-97.08150559 36.08150559 -99.39896558 37.69382032 -102.125 39.4375 C-108.4827275 43.70206799 -111.6609852 49.27715732 -115 56 C-90.78448072 52.93420789 -60.54075957 48.63239074 -44.37060547 27.91210938 C-41.14860039 23.43113741 -38.21740335 18.78995433 -35.3125 14.10009766 C-29.80215163 5.28313027 -29.80215163 5.28313027 -27.07226562 4.31958008 C-22.85771862 3.66962225 -19.04847561 3.65050813 -15 5 C-12.86758075 4.01282936 -12.86758075 4.01282936 -10.6875 2.5625 C-6.9313092 0.37342127 -4.43388135 -0.82490816 0 0 Z " fill="#E3DAC3" transform="translate(779,527)"/>
<path d="M0 0 C9.56897382 3.40532876 17.38351545 11.01161286 22 20 C22 21.32 22 22.64 22 24 C20.49609375 25.45703125 20.49609375 25.45703125 18.4375 26.8125 C10.90213876 32.13784364 3.43373102 38.76846198 1.5546875 48.24609375 C1.38435805 51.34041206 1.61199687 53.46016956 3.4375 56 C8.69156646 58.0503674 14.6134865 57.390068 20 56 C17.12151474 64.77625126 8.69766023 71.31885975 0.83203125 75.69140625 C-4.94065655 78.35878613 -10.90360636 80.24014781 -17 82 C-17.85335937 82.24878906 -18.70671875 82.49757813 -19.5859375 82.75390625 C-37.49151952 87.12335715 -54.51507884 83.25040299 -70 74 C-70 71 -70 71 -68.53125 69.203125 C-67.52578125 68.23632812 -67.52578125 68.23632812 -66.5 67.25 C-65.76265625 66.5384375 -65.0253125 65.826875 -64.265625 65.09375 C-61.65802381 62.68396683 -58.98034388 60.37187696 -56.27734375 58.0703125 C-54.44390699 56.40355181 -52.722058 54.71095503 -51.00390625 52.9296875 C-50.47700195 52.38602539 -49.95009766 51.84236328 -49.40722656 51.28222656 C-48.36239072 50.19644185 -47.32618703 49.1022685 -46.29980469 47.99902344 C-41.8228269 43.35523876 -38.76669145 43.02996213 -32.62890625 42.83203125 C-30.94015541 42.81735226 -29.25131415 42.81122878 -27.5625 42.8125 C-26.24137207 42.8115332 -26.24137207 42.8115332 -24.89355469 42.81054688 C-17.45247658 42.87005386 -10.3247071 43.64177617 -3 45 C-2.67 43.35 -2.34 41.7 -2 40 C-14.21 40.33 -26.42 40.66 -39 41 C-32.2553495 33.13124108 -32.2553495 33.13124108 -29.5546875 30.2734375 C-28.95841553 29.64026611 -28.36214355 29.00709473 -27.74780273 28.35473633 C-27.12977783 27.70142334 -26.51175293 27.04811035 -25.875 26.375 C-22.0816427 22.35344965 -18.28942471 18.33302446 -14.56640625 14.24609375 C-14.03611816 13.6648877 -13.50583008 13.08368164 -12.95947266 12.48486328 C-11.98066461 11.40933631 -11.00482402 10.33109722 -10.03271484 9.24951172 C-6.90617247 5.81970718 -3.60825133 2.89825767 0 0 Z " fill="#85976D" transform="translate(452,719)"/>
<path d="M0 0 C2.50673159 0.27822266 5.0072037 0.61649288 7.5 1 C8.95868741 1.10977579 10.41847851 1.20557307 11.87890625 1.2890625 C25.98526788 2.21638795 40.99787252 5.16767911 53.5 12 C50.84254236 15.51884046 48.14926771 18.27738085 44.6875 21 C40.00541975 24.74941988 35.45282794 28.61414455 30.9375 32.5625 C26.05911702 36.8137319 21.17142403 41.02335156 16.0390625 44.96875 C13.37757397 47.04524884 13.37757397 47.04524884 10.5859375 49.71875 C0.5583194 58.80244806 -10.43687353 61.39594239 -23.5 64 C-24.42868896 64.1861084 -25.35737793 64.3722168 -26.31420898 64.56396484 C-27.03552002 64.70785645 -27.75683105 64.85174805 -28.5 65 C-32.10647217 57.78705566 -29.95410024 44.2564996 -28 36.75 C-25.40823897 28.98374743 -21.79192449 21.94485589 -17.5 15 C-17.09894043 14.33242676 -16.69788086 13.66485352 -16.28466797 12.97705078 C-8.35960746 0.14614698 -8.35960746 0.14614698 0 0 Z " fill="#85976D" transform="translate(396.5,705)"/>
<path d="M0 0 C0.75837158 -0.01401855 1.51674316 -0.02803711 2.2980957 -0.04248047 C8.08464137 0.00810236 11.3284538 1.3284538 15.375 5.375 C16.52346244 11.81173136 15.04264721 17.09043305 11.375 22.375 C8.53679606 25.87166726 5.50281809 29.13672927 2.375 32.375 C1.60285156 33.17550781 0.83070313 33.97601562 0.03515625 34.80078125 C-1.46112441 36.32263936 -2.97501051 37.82743233 -4.5078125 39.3125 C-5.85604676 40.62590902 -7.1687355 41.97758134 -8.4296875 43.375 C-10.10705406 45.10647516 -11.44474281 46.34476858 -13.625 47.375 C-16.89355157 47.14981795 -19.65046825 45.67582799 -22.625 44.375 C-39.2027947 38.42738573 -56.07935409 36.14594505 -73.625 35.375 C-59.21012078 17.06420748 -34.72380577 3.66775733 -11.68603516 0.5859375 C-7.79373577 0.1875785 -3.91087659 0.04993114 0 0 Z " fill="#85976D" transform="translate(466.625,668.625)"/>
<path d="M0 0 C0.99 0.495 0.99 0.495 2 1 C2 1.66 2 2.32 2 3 C-2.35294118 7 -2.35294118 7 -6 7 C-6.10699219 7.55816406 -6.21398437 8.11632812 -6.32421875 8.69140625 C-7.91710204 14.1329902 -11.53508158 19.2839527 -15.1875 23.5625 C-16.98358332 25.9779224 -17.43538041 27.34725891 -18.1875 30.1875 C-20.10418736 36.44798427 -24.43774274 40.48306318 -29 45 C-29.57234375 45.60585938 -30.1446875 46.21171875 -30.734375 46.8359375 C-39.70064289 55.59655705 -58.24539684 67 -71 67 C-70.91015625 65.203125 -70.91015625 65.203125 -70 63 C-67.79991244 61.7183956 -65.7695138 60.72499915 -63.4375 59.75 C-62.06700345 59.13960103 -60.69723527 58.52756457 -59.328125 57.9140625 C-58.25981445 57.44274902 -58.25981445 57.44274902 -57.16992188 56.96191406 C-42.54095588 50.47697639 -29.24621698 43.4580227 -22.125 28.25 C-19.84751612 23.5508877 -17.29984769 19.32678224 -14.32421875 15.046875 C-12.45486273 12.15736894 -11.22873964 9.20837573 -10 6 C-18.28633353 7.7756429 -21.50460104 14.18282659 -25.875 20.875 C-32.88485133 31.46238374 -39.87667084 37.83212828 -51 44 C-52.01755371 44.58128662 -52.01755371 44.58128662 -53.05566406 45.17431641 C-61.88618866 50.21025455 -69.94748383 54.01849441 -80 56 C-81.051875 56.37125 -82.10375 56.7425 -83.1875 57.125 C-89.44085684 59.07048879 -99.95797 61.021015 -106 58 C-106.10957031 58.87140625 -106.21914063 59.7428125 -106.33203125 60.640625 C-107.39299148 68.61076524 -108.9341872 76.23786182 -111 84 C-111.75530599 87.16705035 -112.50888746 90.33441954 -113.25390625 93.50390625 C-114 96 -114 96 -116 99 C-117.32 99 -118.64 99 -120 99 C-119.587247 95.18203473 -118.6195332 91.96423274 -117.1875 88.4375 C-115.09861895 82.92496554 -114.03311615 77.40503181 -113 71.625 C-111.05595538 60.83816658 -109.07408922 50.32806559 -103 41 C-106.03883493 39.67814273 -108.66853905 38.90438405 -112 39 C-115.50488425 41.19750679 -118.13907169 44.04060762 -121 47 C-124.62251656 50 -124.62251656 50 -127 50 C-127.37898437 50.85658203 -127.37898437 50.85658203 -127.765625 51.73046875 C-129.1559257 54.28668617 -130.78491928 56.16842937 -132.75 58.3125 C-135.36111092 61.17997454 -137.90673981 64.07140637 -140.375 67.0625 C-141.674375 68.5165625 -141.674375 68.5165625 -143 70 C-143.66 70 -144.32 70 -145 70 C-145.28665527 70.5779834 -145.57331055 71.1559668 -145.86865234 71.75146484 C-151.3106099 82.56726741 -157.00296526 92.85648772 -165 102 C-165.99946718 103.23425507 -166.99527849 104.47147563 -167.98828125 105.7109375 C-169.05392621 107.01624688 -170.12033127 108.3209361 -171.1875 109.625 C-171.68685059 110.25438477 -172.18620117 110.88376953 -172.70068359 111.53222656 C-176.35742675 115.91058326 -176.35742675 115.91058326 -179.86328125 116.3984375 C-180.56839844 116.26695312 -181.27351562 116.13546875 -182 116 C-181.44204986 112.21270207 -179.87689514 110.58053171 -177.125 108 C-174.99160468 105.98468929 -173.09294872 104.12808244 -171.3671875 101.75 C-170.91601562 101.1725 -170.46484375 100.595 -170 100 C-169.34 100 -168.68 100 -168 100 C-167.89042969 99.40574219 -167.78085937 98.81148437 -167.66796875 98.19921875 C-166.92448877 95.75138699 -166.0518838 94.66145128 -164.3125 92.8125 C-159.35533896 87.24013043 -155.58036485 81.18933521 -152.1875 74.5625 C-148.94622325 68.51659518 -144.70834534 63.93747989 -140 59 C-139.09369431 57.98790891 -138.19148058 56.97214162 -137.29296875 55.953125 C-132.58518374 50.6386837 -127.85147234 45.79615634 -122.11328125 41.56640625 C-113.92301157 35.49561486 -105.86729731 28.1831442 -99.9375 19.875 C-95.29862065 13.44702117 -88.41424653 7.05466957 -81 4 C-77.25470503 4.12279656 -74.53019776 4.82326741 -71 6 C-70.22998243 12.9301581 -72.9101944 17.89763393 -76 24 C-75.01 24 -74.02 24 -73 24 C-73 24.66 -73 25.32 -73 26 C-73.825 25.835 -74.65 25.67 -75.5 25.5 C-80.22358597 26.174798 -81.64993262 28.36127699 -84.7890625 31.7890625 C-87.08150559 34.08150559 -89.39896558 35.69382032 -92.125 37.4375 C-98.4827275 41.70206799 -101.6609852 47.27715732 -105 54 C-80.78448072 50.93420789 -50.54075957 46.63239074 -34.37060547 25.91210938 C-31.14860039 21.43113741 -28.21740335 16.78995433 -25.3125 12.10009766 C-19.80215163 3.28313027 -19.80215163 3.28313027 -17.07226562 2.31958008 C-12.85771862 1.66962225 -9.04847561 1.65050813 -5 3 C-3.32260138 2.01810813 -1.65532623 1.01866229 0 0 Z " fill="#E3DAC4" transform="translate(769,529)"/>
<path d="M0 0 C0.3125 2.25 0.3125 2.25 0 5 C-4.10810811 9 -4.10810811 9 -7 9 C-6.88140625 10.22976563 -6.7628125 11.45953125 -6.640625 12.7265625 C-6.50925676 14.35928209 -6.37911298 15.99210052 -6.25 17.625 C-6.16878906 18.43324219 -6.08757812 19.24148438 -6.00390625 20.07421875 C-5.59350122 25.68308747 -6.23437831 28.54797026 -10 33 C-15.96278498 39.80833644 -22.76880814 45.33267835 -30.01953125 50.67578125 C-35.62226783 54.8645456 -35.62226783 54.8645456 -38.8125 60.8125 C-38.874375 61.534375 -38.93625 62.25625 -39 63 C-32.49353807 61.12914151 -27.02348245 58.54929344 -21.3125 54.9375 C-20.15391479 54.21602783 -20.15391479 54.21602783 -18.97192383 53.47998047 C-13.95468699 50.32256806 -9.02718826 47.04822609 -4.1875 43.625 C-3.63167236 43.23304443 -3.07584473 42.84108887 -2.50317383 42.43725586 C0.99850464 39.90092538 3.98516383 37.08933789 7 34 C16.14923023 25.85200629 25.9280846 20.82340819 38.25 20.9375 C40.14492188 20.95103516 40.14492188 20.95103516 42.078125 20.96484375 C43.04234375 20.97644531 44.0065625 20.98804688 45 21 C44.43530338 26.48671446 44.43530338 26.48671446 42.5390625 28.72265625 C35.12101689 33.91528817 27.64561525 37.54027935 18.75 39.375 C12.71413051 40.77869058 9.69967683 43.11717779 6 48 C5.40960938 48.7528125 4.81921875 49.505625 4.2109375 50.28125 C0.79687167 54.56857873 0.79687167 54.56857873 0.34375 59.7734375 C0.5603125 60.50820313 0.776875 61.24296875 1 62 C13.27197196 62.80471947 23.6945998 57.92682239 33 50 C34.39197451 47.95646296 35.31643801 46.04854121 36.2421875 43.765625 C37.5725942 40.66591456 39.01664643 39.52341459 42 38 C44.76642284 37.93566459 47.49774214 38.06798104 50.26171875 38.19140625 C54.6625011 37.88379094 56.76444984 35.87604458 60 33 C60.66 33.33 61.32 33.66 62 34 C61.37351562 34.44730469 60.74703125 34.89460937 60.1015625 35.35546875 C59.28429687 35.96003906 58.46703125 36.56460938 57.625 37.1875 C56.81289063 37.77917969 56.00078125 38.37085938 55.1640625 38.98046875 C52.77148662 41.21325166 52.02273528 42.93179417 51 46 C48.61688131 49.21721023 45.81945108 50.04513723 42 51 C39.66787973 51.07522969 37.3314689 51.09325876 35 51 C36.09786425 56.40787385 36.09786425 56.40787385 40 60 C46.02258756 60.91467306 51.66051814 59.8776997 57 57 C59.10629876 55.43078408 61.02621241 53.73881288 63 52 C63.66 52 64.32 52 65 52 C65.26554687 51.42507813 65.53109375 50.85015625 65.8046875 50.2578125 C67.04983872 47.9058602 68.50156384 45.98169158 70.125 43.875 C73.57198044 39.03471378 76.03626271 33.97147821 78.4375 28.5625 C78.79150879 27.7689209 79.14551758 26.9753418 79.51025391 26.15771484 C81.46572966 21.74757698 81.46572966 21.74757698 82 17 C79.69 19.31 77.38 21.62 75 24 C74.34 23.67 73.68 23.34 73 23 C73.74765625 22.27554688 74.4953125 21.55109375 75.265625 20.8046875 C76.2606869 19.82840035 77.25546337 18.85182223 78.25 17.875 C78.98669922 17.1634375 78.98669922 17.1634375 79.73828125 16.4375 C83.02000071 13.1995368 85.56079592 9.91434179 88 6 C89.65 6.33 91.3 6.66 93 7 C92.37867188 7.57621094 91.75734375 8.15242187 91.1171875 8.74609375 C87.98685098 13.5571091 87.81002781 18.44141147 87.125 24.0625 C85.13729222 38.04344458 81.99755755 47.50972191 71 57 C81.50158855 51.9946974 91.35604663 46.50966852 101 40 C101.33 40.66 101.66 41.32 102 42 C69.3403396 64.34263496 69.3403396 64.34263496 49.9375 64.375 C49.16083984 64.39949219 48.38417969 64.42398438 47.58398438 64.44921875 C42.24680879 64.47633395 39.23499723 63.52807343 35 60 C33.21770324 57.32655486 33 56.26229641 33 53 C32.17757812 53.53109375 31.35515625 54.0621875 30.5078125 54.609375 C20.02821016 61.28753749 10.93082774 66.63057359 -2 65 C-5.73248408 63.53503185 -5.73248408 63.53503185 -7 61 C-7.203125 59.046875 -7.203125 59.046875 -7.25 56.75 C-7.27578125 56.00234375 -7.3015625 55.2546875 -7.328125 54.484375 C-6.90030759 51.24518607 -5.56169461 48.84392808 -4 46 C-4.47719482 46.32685791 -4.95438965 46.65371582 -5.44604492 46.99047852 C-33.03104115 65.81633637 -33.03104115 65.81633637 -42 65 C-44 63 -44 63 -44.5 59.4375 C-44.15685026 50.73397489 -37.28715336 45.06460448 -31.3125 39.5 C-26.09995261 34.73987544 -20.73389941 30.19635185 -15.20703125 25.8046875 C-12.42872934 23.57568091 -12.42872934 23.57568091 -10 21 C-9.7496423 17.37464024 -9.7496423 17.37464024 -10 14 C-11.98 15.98 -13.96 17.96 -16 20 C-16.66 19.67 -17.32 19.34 -18 19 C-17.43410156 18.5153125 -16.86820312 18.030625 -16.28515625 17.53125 C-10.96161402 12.6661499 -9.3631784 10.14250859 -9 3 C-6.77735755 -0.7433978 -4.07580347 -0.27172023 0 0 Z " fill="#E6DCC6" transform="translate(440,588)"/>
<path d="M0 0 C0 0.66 0 1.32 0 2 C-20.36892497 17.95121053 -43.07994634 26.33601702 -69 23.3125 C-74.40576402 22.36748257 -77.60269534 21.39651191 -81 17 C-81.3125 14.0625 -81.3125 14.0625 -80 11 C-62.54732167 -9.09551248 -23.05982258 -5.75638959 0 0 Z " fill="#85976D" transform="translate(682,792)"/>
<path d="M0 0 C1.32 2.97 2.64 5.94 4 9 C-57.34860218 56.60467253 -57.34860218 56.60467253 -75 55 C-75.66 54.34 -76.32 53.68 -77 53 C-76.59775267 45.29242204 -68.76790806 39.5002664 -63.4375 34.5625 C-48.89852348 22.32672768 -19.59948719 0 0 0 Z " fill="#85976D" transform="translate(366,774)"/>
<path d="M0 0 C1.31097656 0.01353516 1.31097656 0.01353516 2.6484375 0.02734375 C3.30070313 0.03894531 3.95296875 0.05054688 4.625 0.0625 C4.625 1.0525 4.625 2.0425 4.625 3.0625 C3.51125 3.13726563 2.3975 3.21203125 1.25 3.2890625 C-20.7432568 5.06318198 -37.68296675 13.64820185 -53.375 29.0625 C-54.06335938 29.73539063 -54.75171875 30.40828125 -55.4609375 31.1015625 C-56.77963723 32.40788007 -58.08057796 33.7321218 -59.375 35.0625 C-55.95843976 35.22927282 -55.95843976 35.22927282 -52.375 35.0625 C-51.385 34.0725 -51.385 34.0725 -50.375 33.0625 C-47.25 32.9375 -47.25 32.9375 -44.375 33.0625 C-44.375 37.0625 -44.375 37.0625 -45.66015625 38.4765625 C-49.8321528 41.31902169 -53.44134711 42.95494527 -58.375 44.0625 C-56.5 40.1875 -56.5 40.1875 -55.375 39.0625 C-58.59926785 38.43338533 -58.59926785 38.43338533 -62.375 39.0625 C-65.00569673 41.20490036 -66.88282889 43.83333378 -68.875 46.5625 C-70.01489591 48.0422286 -71.15551272 49.52140216 -72.296875 51 C-72.83248047 51.70898438 -73.36808594 52.41796875 -73.91992188 53.1484375 C-85.9394432 68.95935146 -100.67972907 79.23145231 -120.39331055 82.66552734 C-125.28922897 83.31735436 -130.13099312 83.31467682 -135.0625 83.25 C-136.10180664 83.24282959 -137.14111328 83.23565918 -138.21191406 83.22827148 C-160.82316011 82.99237363 -160.82316011 82.99237363 -167.375 81.0625 C-167.375 80.4025 -167.375 79.7425 -167.375 79.0625 C-166.78710693 79.07821045 -166.19921387 79.0939209 -165.59350586 79.11010742 C-125.50729042 80.03652703 -101.26530926 64.32641751 -72.375 38.0625 C-89.865 38.0625 -107.355 38.0625 -125.375 38.0625 C-123.375 36.0625 -123.375 36.0625 -121.11376953 35.84458923 C-119.7000708 35.86532249 -119.7000708 35.86532249 -118.2578125 35.88647461 C-117.18909912 35.89565414 -116.12038574 35.90483368 -115.01928711 35.91429138 C-113.85792236 35.93097366 -112.69655762 35.94765594 -111.5 35.96484375 C-109.04557551 35.96891086 -106.59114661 35.97079314 -104.13671875 35.97070312 C-100.26301561 35.97878456 -96.39134867 35.9997506 -92.51806641 36.05883789 C-88.78179147 36.11029844 -85.04902722 36.10451196 -81.3125 36.08984375 C-80.1673291 36.12069565 -79.0221582 36.15154755 -77.84228516 36.18333435 C-71.27786789 36.106011 -67.76905523 35.15249075 -62.8269043 30.69970703 C-61.33696287 29.15972825 -59.8525422 27.61437924 -58.375 26.0625 C-55.72708106 23.9185287 -52.98355416 21.94565224 -50.1875 20 C-49.46191895 19.4939624 -48.73633789 18.9879248 -47.98876953 18.46655273 C-33.94043881 8.83948525 -17.50010778 -0.23648794 0 0 Z " fill="#E5DBC5" transform="translate(442.375,569.9375)"/>
<path d="M0 0 C0.99 0.0309375 0.99 0.0309375 2 0.0625 C1.30003906 0.75214844 0.60007812 1.44179688 -0.12109375 2.15234375 C-2.61731782 4.64856782 -5.01521841 7.22320239 -7.40380859 9.82202148 C-16.95949256 20.20894025 -26.97258579 30.13369122 -37 40.0625 C-33.34079644 38.92332014 -30.09215196 37.71692169 -26.828125 35.70703125 C-26.08546387 35.25239502 -25.34280273 34.79775879 -24.57763672 34.3293457 C-23.8095166 33.84941162 -23.04139648 33.36947754 -22.25 32.875 C-21.4573877 32.38539795 -20.66477539 31.8957959 -19.84814453 31.39135742 C-14.08844768 27.80818745 -8.46432521 24.08523188 -3 20.0625 C-2.34 20.3925 -1.68 20.7225 -1 21.0625 C-7.51599936 26.0714951 -14.2513204 30.57601619 -21.25 34.875 C-22.38381104 35.57653198 -22.38381104 35.57653198 -23.54052734 36.29223633 C-28.80887615 39.49405595 -33.94146371 42.25932999 -39.9453125 43.8359375 C-44.34470895 45.60244707 -47.39168209 48.52821166 -50.875 51.6875 C-51.56335938 52.29851563 -52.25171875 52.90953125 -52.9609375 53.5390625 C-54.64814746 55.03880469 -56.32733066 56.54658367 -58 58.0625 C-57.29875 58.24425781 -56.5975 58.42601562 -55.875 58.61328125 C-50.10321471 60.14249067 -44.55100893 61.86304363 -39 64.0625 C-39.99 66.0425 -39.99 66.0425 -41 68.0625 C-42.27156277 67.64806473 -43.5421859 67.23074702 -44.8125 66.8125 C-45.62847656 66.54566406 -46.44445312 66.27882813 -47.28515625 66.00390625 C-49.16475366 65.35213218 -51.02659353 64.64767241 -52.87109375 63.90234375 C-54.29615234 63.33193359 -54.29615234 63.33193359 -55.75 62.75 C-56.63171875 62.38261719 -57.5134375 62.01523437 -58.421875 61.63671875 C-62.71715614 60.6800425 -65.19627805 62.58159347 -68.83984375 64.76171875 C-69.86207031 65.41785156 -70.88429688 66.07398438 -71.9375 66.75 C-91.93203174 79.23373605 -113.60339331 86.99942636 -137.4453125 83.56640625 C-142.80670481 82.27353644 -146.79582762 80.81351423 -150 76.0625 C-150.625 73.125 -150.625 73.125 -150 70.0625 C-143.15987516 60.53159075 -131.23351857 56.25852619 -120 54.0625 C-113.11972316 52.94399006 -106.35197693 52.8764056 -99.40429688 52.87719727 C-97.26932559 52.87501971 -95.13487962 52.85684654 -93 52.83789062 C-85.94295097 52.80986365 -79.26096753 53.1812957 -72.32250977 54.60913086 C-67.76655401 55.49848331 -64.4104476 55.8802705 -60.33203125 53.515625 C-59.50058594 52.78859375 -58.66914062 52.0615625 -57.8125 51.3125 C-56.884375 50.50425781 -55.95625 49.69601562 -55 48.86328125 C-49.83036571 44.10204807 -44.89108346 39.10723006 -40 34.0625 C-41.13179687 34.64 -42.26359375 35.2175 -43.4296875 35.8125 C-44.91135207 36.56270991 -46.39312873 37.31269847 -47.875 38.0625 C-48.62136719 38.4440625 -49.36773438 38.825625 -50.13671875 39.21875 C-50.85214844 39.5796875 -51.56757812 39.940625 -52.3046875 40.3125 C-52.96452637 40.64765625 -53.62436523 40.9828125 -54.30419922 41.328125 C-56 42.0625 -56 42.0625 -58 42.0625 C-58 41.4025 -58 40.7425 -58 40.0625 C-57.45214844 39.88976562 -56.90429688 39.71703125 -56.33984375 39.5390625 C-40.05148874 33.76530414 -27.73024417 22.36088918 -17.47265625 8.7578125 C-11.18873582 0.48666937 -11.18873582 0.48666937 -6.75 -0.125 C-4.50242195 -0.0126211 -2.24989756 0.04687287 0 0 Z M-145.6875 67.5625 C-147.47711479 69.90628528 -147.97808314 70.74835836 -148.1875 73.75 C-146.62026713 76.8019798 -144.81695965 78.11502091 -142 80.0625 C-121.73232969 85.97274224 -101.47464411 80.67292809 -83.53515625 70.87548828 C-74.85689166 66.05868064 -74.85689166 66.05868064 -67 60.0625 C-67 59.4025 -67 58.7425 -67 58.0625 C-89.41531882 52.46699694 -128.03183102 49.0641741 -145.6875 67.5625 Z " fill="#E3DAC3" transform="translate(749,733.9375)"/>
<path d="M0 0 C-3.19498857 4.09357911 -6.56099096 7.45304632 -10.49609375 10.828125 C-24.03129826 22.25258963 -24.03129826 22.25258963 -35 36 C-35 36.99 -35 37.98 -35 39 C-26.90683387 38.81606441 -20.03067023 34.1091732 -13.76171875 29.2734375 C-12 28 -12 28 -10 28 C-9.78601563 27.47921875 -9.57203125 26.9584375 -9.3515625 26.421875 C-7.4402074 22.99690344 -4.94201388 20.20200673 -2.375 17.25 C-1.84028076 16.62963867 -1.30556152 16.00927734 -0.75463867 15.37011719 C2.85475233 11.21815217 6.58832369 7.24921553 10.57421875 3.453125 C12.10926991 2.03746298 12.10926991 2.03746298 13 0 C17.29 0 21.58 0 26 0 C21.53191489 5.58510638 21.53191489 5.58510638 18.5 8.125 C1.27292467 21.84140791 1.27292467 21.84140791 -10 40 C-2.70030476 38.14862802 3.32584747 34.99154771 9 30 C10.04808041 28.02477154 11.0520411 26.02518491 12 24 C15.16243265 21.06845292 18.42855574 18.56964854 22.5 17.09375 C28.83543738 14.32199615 33.43291179 7.25727752 36 1 C40.29 1 44.58 1 49 1 C46.80476475 3.19523525 44.97702505 4.80444197 42.5 6.5625 C37.98965135 9.89156686 33.94749556 13.65423487 29.83203125 17.453125 C25.70661772 21.16315206 21.38066694 24.59809378 17 28 C24.73024475 28.8784369 31.20717962 25.39641019 38 22 C37.875 23.875 37.875 23.875 37 26 C34.4375 27.0625 34.4375 27.0625 31 28 C29.7688456 28.51611713 28.53978288 29.03724313 27.3125 29.5625 C24.03210107 30.84235261 21.32198669 31.11608603 17.8125 31.1875 C11.43096267 31.57911456 7.08512076 34.61068607 1.9453125 38.08984375 C-2.70853963 41.1080582 -6.40355751 42.60830897 -12 42 C-13.875 40.875 -13.875 40.875 -15 39 C-15.04510131 37.0005086 -15.04876598 34.99940538 -15 33 C-15.90621094 33.56589844 -16.81242188 34.13179687 -17.74609375 34.71484375 C-30.33726974 42.37685559 -30.33726974 42.37685559 -38 42 C-39.7421875 40.6640625 -39.7421875 40.6640625 -41 39 C-40.88787975 33.95458871 -38.81766703 31.05039636 -36 27 C-35.8659375 26.34515625 -35.731875 25.6903125 -35.59375 25.015625 C-34.81676144 22.37795329 -33.64402516 21.56809923 -31.5 19.875 C-28.16907301 17.09922751 -25.25323984 14.18161778 -22.375 10.9375 C-21.61574219 10.09316406 -20.85648438 9.24882813 -20.07421875 8.37890625 C-18.8433278 6.96720646 -17.64378336 5.52535777 -16.51953125 4.02734375 C-12.04825859 -1.5191323 -6.48496204 -0.56664717 0 0 Z " fill="#E4DAC4" transform="translate(534,734)"/>
<path d="M0 0 C6.7571984 0.24046969 11.60801721 0.52859964 17 5 C17.78375 5.515625 18.5675 6.03125 19.375 6.5625 C19.91125 7.036875 20.4475 7.51125 21 8 C21 8.99 21 9.98 21 11 C21.99 11.33 22.98 11.66 24 12 C24 12.99 24 13.98 24 15 C24.8971875 15.1546875 24.8971875 15.1546875 25.8125 15.3125 C28.28243264 16.08876455 29.32251235 17.07088921 31 19 C29.4934613 23.43638193 27.06803023 26.95305841 24.3125 30.6875 C23.41221641 31.92408329 22.51248044 33.16106545 21.61328125 34.3984375 C21.17064941 35.00526367 20.72801758 35.61208984 20.27197266 36.23730469 C17.90706588 39.51458433 15.64427044 42.86313033 13.375 46.20703125 C12 48 12 48 10 49 C10 48.34 10 47.68 10 47 C9.34 46.67 8.68 46.34 8 46 C7.375 43.4375 7.375 43.4375 7 41 C6.34 41 5.68 41 5 41 C4.67 39.68 4.34 38.36 4 37 C4.66 37 5.32 37 6 37 C5.05238445 34.88608838 4.28679094 33.2618526 2.5625 31.6875 C-2.32347062 26.41065173 -2.50628804 19.87089203 -2.6875 13.0625 C-2.72166016 12.18787109 -2.75582031 11.31324219 -2.79101562 10.41210938 C-2.87275657 8.27516746 -2.9380713 6.13760782 -3 4 C-2.34 4 -1.68 4 -1 4 C-0.67 2.68 -0.34 1.36 0 0 Z " fill="#899970" transform="translate(720,511)"/>
<path d="M0 0 C8.10544974 1.4637381 13.91817362 8.6711383 18.6875 14.88671875 C19.97676502 16.96258891 20.56850257 18.61058296 21 21 C22.0621875 20.6390625 23.124375 20.278125 24.21875 19.90625 C25.64563005 19.43688156 27.07272511 18.96816641 28.5 18.5 C29.19609375 18.26152344 29.8921875 18.02304687 30.609375 17.77734375 C35.59105646 16.16290994 39.76530467 15.76420291 45 16 C45.66 17.32 46.32 18.64 47 20 C40.76457599 26.81999501 33.84818197 30.48072597 25 33 C25.01160156 33.75925781 25.02320313 34.51851562 25.03515625 35.30078125 C25.04417969 36.29464844 25.05320312 37.28851562 25.0625 38.3125 C25.07410156 39.29863281 25.08570313 40.28476562 25.09765625 41.30078125 C25 44 25 44 24 47 C23.34 47 22.68 47 22 47 C21.7525 48.093125 21.505 49.18625 21.25 50.3125 C20.03639679 53.20873183 19.27909581 53.88114863 16.33984375 55.1328125 C3.59771763 58.3854494 3.59771763 58.3854494 -0.875 56 C-2.75485679 52.65803237 -2.73735127 49.64957898 -2 46 C1.44452786 37.71962518 8.55009275 28.48618856 16.80859375 24.71875 C17.53175781 24.4815625 18.25492187 24.244375 19 24 C15.60461229 14.61275162 9.76201248 8.11049982 1.72265625 2.3125 C1.15417969 1.879375 0.58570313 1.44625 0 1 C0 0.67 0 0.34 0 0 Z " fill="#E2D9C3" transform="translate(455,719)"/>
<path d="M0 0 C1.65 0.33 3.3 0.66 5 1 C4.37867188 1.57621094 3.75734375 2.15242187 3.1171875 2.74609375 C-0.01314902 7.5571091 -0.18997219 12.44141147 -0.875 18.0625 C-2.86270778 32.04344458 -6.00244245 41.50972191 -17 51 C-6.49841145 45.9946974 3.35604663 40.50966852 13 34 C13.33 34.66 13.66 35.32 14 36 C-18.6596604 58.34263496 -18.6596604 58.34263496 -38.0625 58.375 C-38.83916016 58.39949219 -39.61582031 58.42398438 -40.41601562 58.44921875 C-45.75319121 58.47633395 -48.76500277 57.52807343 -53 54 C-54.78229676 51.32655486 -55 50.26229641 -55 47 C-55.82242187 47.53109375 -56.64484375 48.0621875 -57.4921875 48.609375 C-74.84423188 59.6629798 -74.84423188 59.6629798 -82.625 58.75 C-83.73875 58.5025 -84.8525 58.255 -86 58 C-86 57.67 -86 57.34 -86 57 C-85.27296875 56.92523437 -84.5459375 56.85046875 -83.796875 56.7734375 C-75.56666801 55.69717966 -69.15622422 53.15288844 -62 49 C-61.28457031 48.59652344 -60.56914062 48.19304688 -59.83203125 47.77734375 C-55.56255379 45.09185153 -53.94250757 42.28070126 -51.93359375 37.87109375 C-50.40570258 34.80891857 -49.05688051 33.56096026 -46 32 C-43.23357716 31.93566459 -40.50225786 32.06798104 -37.73828125 32.19140625 C-33.3374989 31.88379094 -31.23555016 29.87604458 -28 27 C-27.34 27.33 -26.68 27.66 -26 28 C-26.62648438 28.44730469 -27.25296875 28.89460937 -27.8984375 29.35546875 C-28.71570313 29.96003906 -29.53296875 30.56460938 -30.375 31.1875 C-31.18710937 31.77917969 -31.99921875 32.37085938 -32.8359375 32.98046875 C-35.22851338 35.21325166 -35.97726472 36.93179417 -37 40 C-39.38311869 43.21721023 -42.18054892 44.04513723 -46 45 C-48.33212027 45.07522969 -50.6685311 45.09325876 -53 45 C-51.90213575 50.40787385 -51.90213575 50.40787385 -48 54 C-41.97741244 54.91467306 -36.33948186 53.8776997 -31 51 C-28.89370124 49.43078408 -26.97378759 47.73881288 -25 46 C-24.34 46 -23.68 46 -23 46 C-22.73445313 45.42507813 -22.46890625 44.85015625 -22.1953125 44.2578125 C-20.95016128 41.9058602 -19.49843616 39.98169158 -17.875 37.875 C-14.42801956 33.03471378 -11.96373729 27.97147821 -9.5625 22.5625 C-9.20849121 21.7689209 -8.85448242 20.9753418 -8.48974609 20.15771484 C-6.53427034 15.74757698 -6.53427034 15.74757698 -6 11 C-9.465 14.465 -9.465 14.465 -13 18 C-13.66 17.67 -14.32 17.34 -15 17 C-14.25234375 16.27554688 -13.5046875 15.55109375 -12.734375 14.8046875 C-11.7393131 13.82840035 -10.74453663 12.85182223 -9.75 11.875 C-9.25886719 11.400625 -8.76773438 10.92625 -8.26171875 10.4375 C-4.97999929 7.1995368 -2.43920408 3.91434179 0 0 Z " fill="#E3DAC4" transform="translate(528,594)"/>
<path d="M0 0 C0 9.78120217 -7.7706771 16.92019577 -14.1875 23.5625 C-24.47483447 33.51115679 -36.120477 41.31886958 -48.2109375 48.87841797 C-49.77721385 49.86033303 -51.32754291 50.86759258 -52.875 51.87890625 C-53.57625 52.24886719 -54.2775 52.61882813 -55 53 C-55.66 52.67 -56.32 52.34 -57 52 C-56.56171875 51.5359375 -56.1234375 51.071875 -55.671875 50.59375 C-51.7543359 46.32586188 -48.16310758 41.93107453 -44.75537109 37.25268555 C-35.72414967 24.86295119 -16.87349062 0 0 0 Z " fill="#86986E" transform="translate(745,685)"/>
<path d="M0 0 C0.3125 2.25 0.3125 2.25 0 5 C-4.10810811 9 -4.10810811 9 -7 9 C-6.88140625 10.22976563 -6.7628125 11.45953125 -6.640625 12.7265625 C-6.50925676 14.35928209 -6.37911298 15.99210052 -6.25 17.625 C-6.16878906 18.43324219 -6.08757812 19.24148438 -6.00390625 20.07421875 C-5.59350122 25.68308747 -6.23437831 28.54797026 -10 33 C-15.96278498 39.80833644 -22.76880814 45.33267835 -30.01953125 50.67578125 C-35.62226783 54.8645456 -35.62226783 54.8645456 -38.8125 60.8125 C-38.874375 61.534375 -38.93625 62.25625 -39 63 C-32.29986995 61.1001409 -26.74016967 58.34732037 -20.875 54.625 C-20.11574219 54.15578125 -19.35648437 53.6865625 -18.57421875 53.203125 C-14.99102266 50.97056564 -11.51885483 48.67063911 -8.1328125 46.1484375 C-5 44 -5 44 -2 44 C-5.10563526 50.21127051 -15.84945462 54.14748076 -21.8125 57.75 C-22.74473389 58.31473022 -22.74473389 58.31473022 -23.69580078 58.89086914 C-35.00607701 65.6724926 -35.00607701 65.6724926 -42 65 C-44 63 -44 63 -44.5 59.4375 C-44.15685026 50.73397489 -37.28715336 45.06460448 -31.3125 39.5 C-26.09995261 34.73987544 -20.73389941 30.19635185 -15.20703125 25.8046875 C-12.42872934 23.57568091 -12.42872934 23.57568091 -10 21 C-9.7496423 17.37464024 -9.7496423 17.37464024 -10 14 C-11.98 15.98 -13.96 17.96 -16 20 C-16.66 19.67 -17.32 19.34 -18 19 C-17.43410156 18.5153125 -16.86820312 18.030625 -16.28515625 17.53125 C-10.96161402 12.6661499 -9.3631784 10.14250859 -9 3 C-6.77735755 -0.7433978 -4.07580347 -0.27172023 0 0 Z " fill="#E4DAC4" transform="translate(440,588)"/>
<path d="M0 0 C6.20142718 2.80442923 12.32168132 5.13775681 18.90600586 6.87133789 C19.58429443 7.05680176 20.26258301 7.24226562 20.96142578 7.43334961 C29.90510586 9.44778301 39.12770459 8.59932494 46.90600586 3.87133789 C47.89600586 4.20133789 48.88600586 4.53133789 49.90600586 4.87133789 C50.59350586 6.93383789 50.59350586 6.93383789 50.90600586 8.87133789 C44.92095794 12.07264259 40.16446147 13.02833162 33.40600586 13.12133789 C32.30256836 13.14711914 31.19913086 13.17290039 30.06225586 13.19946289 C19.34050126 12.71060817 9.79762617 8.82711836 0.28100586 4.18383789 C-1.99272535 3.10748643 -4.26747394 2.0332816 -6.54321289 0.96118164 C-7.65100098 0.43637207 -8.75878906 -0.0884375 -9.90014648 -0.62915039 C-25.87335517 -8.45333487 -25.87335517 -8.45333487 -43.09399414 -12.12866211 C-44.16520508 -12.20858398 -45.23641602 -12.28850586 -46.34008789 -12.37084961 C-63.81599098 -13.03325842 -79.48729255 -6.68813713 -92.66821289 4.54711914 C-95.94788997 7.68948285 -98.63346641 11.0611536 -101.09399414 14.87133789 C-102.74399414 14.54133789 -104.39399414 14.21133789 -106.09399414 13.87133789 C-101.07636033 2.27445975 -83.98318166 -6.41678136 -72.78930664 -11.13256836 C-46.74120745 -20.7590398 -23.76385563 -10.84987546 0 0 Z " fill="#DCD5BD" transform="translate(465.093994140625,563.128662109375)"/>
<path d="M0 0 C-0.38091797 0.98226562 -0.38091797 0.98226562 -0.76953125 1.984375 C-2.61928239 6.88933307 -4.22476217 11.6949748 -5.375 16.8125 C-7.04975475 23.93254674 -9.96762422 30.36606463 -13 37 C-13.99 37 -14.98 37 -16 37 C-16.04125 37.7425 -16.0825 38.485 -16.125 39.25 C-17.35892278 43.12804301 -19.52088315 44.08293561 -23 46 C-23.66 46 -24.32 46 -25 46 C-24.3542726 35.33436466 -21.1566647 27.1014417 -16.55493164 17.53540039 C-14.86511537 13.99087486 -13.42584648 10.51446434 -12.3125 6.75 C-11 3 -11 3 -9.25 0.9375 C-6.11048276 -0.37063218 -3.35929725 -0.19380561 0 0 Z " fill="#8A9970" transform="translate(768,552)"/>
<path d="M0 0 C-0.48604453 9.72089062 -9.26983465 16.82239338 -16 23 C-23.81481481 29.60493827 -23.81481481 29.60493827 -28 31 C-28.66 30.67 -29.32 30.34 -30 30 C-30 29.34 -30 28.68 -30 28 C-31.32 28 -32.64 28 -34 28 C-31.85888692 23.27863778 -28.52795997 19.98414225 -25 16.25 C-24.32880127 15.53642334 -23.65760254 14.82284668 -22.96606445 14.08764648 C-7.76932835 -1.84010408 -7.76932835 -1.84010408 0 0 Z " fill="#889A70" transform="translate(694,538)"/>
<path d="M0 0 C0.66 0.33 1.32 0.66 2 1 C-3.75538143 14.51808935 -9.60789875 27.05808341 -24 33 C-32.47408255 36.14161109 -41.9216365 38.49072235 -51 38 C-50.67 37.01 -50.34 36.02 -50 35 C-47.60415732 34.00549926 -45.27354589 33.17099586 -42.8125 32.375 C-25.41636065 26.28644871 -11.05775661 14.60715996 0 0 Z " fill="#E3DAC4" transform="translate(369,548)"/>
<path d="M0 0 C2.13497128 -0.00217755 4.26941726 -0.02035072 6.40429688 -0.03930664 C14.25291395 -0.07045195 21.72729628 0.38249459 29.40429688 2.18530273 C29.07429687 3.17530273 28.74429688 4.16530273 28.40429688 5.18530273 C27.6427832 5.04527832 26.88126953 4.90525391 26.09667969 4.76098633 C17.41047166 3.28011487 8.95841743 2.79886386 0.15429688 2.81030273 C-0.52313568 2.81051422 -1.20056824 2.81072571 -1.89852905 2.8109436 C-16.3805222 2.85597242 -32.72227985 3.83596493 -44.34179688 13.66186523 C-46.56503456 16.01162864 -47.58237539 17.61220993 -47.65820312 20.87280273 C-46.35827364 23.70206102 -45.23157353 24.54739345 -42.59570312 26.18530273 C-23.65655436 31.23034664 -3.67500429 27.92989971 13.15429688 18.22436523 C15.40429688 17.18530273 15.40429688 17.18530273 18.40429688 18.18530273 C11.50704827 26.5463559 -6.19897442 29.7449155 -16.59570312 31.18530273 C-27.453783 32.17115901 -39.62935978 32.51382634 -48.78320312 25.87280273 C-50.59570312 23.18530273 -50.59570312 23.18530273 -51.22070312 20.24780273 C-50.41315976 16.29084024 -48.42686487 13.93687544 -45.59570312 11.18530273 C-31.40238672 2.16115712 -16.51431211 -0.00188176 0 0 Z " fill="#D4CFB6" transform="translate(649.595703125,786.814697265625)"/>
<path d="M0 0 C0.99 0.495 0.99 0.495 2 1 C-3.27126435 4.94843755 -8.43580616 8.76217007 -14.25 11.875 C-19.01465334 14.63744514 -21.41965604 17.98315067 -24.3828125 22.55078125 C-32.33957059 34.60123371 -47.05790601 41.18770406 -60.64453125 44.6796875 C-74.07062059 47.42123861 -88.97393574 47.44792438 -102 43 C-101.67 42.34 -101.34 41.68 -101 41 C-94.42342342 41.92072072 -94.42342342 41.92072072 -91.24609375 42.515625 C-73.22480397 45.20472239 -52.11544043 41.69682943 -37.25 30.75 C-32.69065943 26.96583068 -28.66459724 22.65313982 -25 18 C-25 17.67 -25 17.34 -25 17 C-25.56203125 17.16371094 -26.1240625 17.32742188 -26.703125 17.49609375 C-29.13059056 18.02864997 -31.26889681 18.09898681 -33.75 18.0625 C-34.54921875 18.05347656 -35.3484375 18.04445313 -36.171875 18.03515625 C-36.77515625 18.02355469 -37.3784375 18.01195312 -38 18 C-34.65479742 16.06757715 -31.55232518 15.4536147 -27.75 14.875 C-26.67234375 14.70742188 -25.5946875 14.53984375 -24.484375 14.3671875 C-23.25460937 14.18542969 -23.25460937 14.18542969 -22 14 C-21.34 11.03 -20.68 8.06 -20 5 C-19.505 5.99 -19.505 5.99 -19 7 C-18.34 7 -17.68 7 -17 7 C-17 8.32 -17 9.64 -17 11 C-16.49549316 10.66154053 -15.99098633 10.32308105 -15.47119141 9.97436523 C-13.19457172 8.45373432 -10.90999034 6.94552015 -8.625 5.4375 C-7.8309375 4.90447266 -7.036875 4.37144531 -6.21875 3.82226562 C-5.07792969 3.07299805 -5.07792969 3.07299805 -3.9140625 2.30859375 C-3.2123291 1.84251709 -2.5105957 1.37644043 -1.78759766 0.89624023 C-0.90273682 0.45260132 -0.90273682 0.45260132 0 0 Z " fill="#DAD4BC" transform="translate(496,759)"/>
<path d="M0 0 C-2.75365758 2.75365758 -6.00442448 3.44431689 -9.625 4.625 C-35.12852316 13.31710018 -58.08932301 28.09704234 -70.5 52.6875 C-71.34369293 54.45342111 -72.18103589 56.22247562 -73 58 C-74.32 57.67 -75.64 57.34 -77 57 C-74.91255444 42.91602998 -59.82542907 29.57798973 -49.08984375 21.18359375 C-35.97824587 11.91762255 -16.5661221 -0.78886296 0 0 Z " fill="#DFD7BF" transform="translate(343,712)"/>
<path d="M0 0 C0.34800242 6.89560351 0.6278889 13.86681424 -3 20 C-7.4033565 22.56009099 -12.02971297 22.25272646 -17 22 C-18 21 -18 21 -18.0625 18.0625 C-17.06132509 11.43828791 -10.87674983 5.3171228 -6 1 C-3 0 -3 0 0 0 Z " fill="#83956B" transform="translate(477,753)"/>
<path d="M0 0 C1.8871875 0.061875 1.8871875 0.061875 3.8125 0.125 C4.51953125 1.765625 4.51953125 1.765625 4.8125 4.125 C3.44921875 6.921875 3.44921875 6.921875 1.5 9.875 C0.86449219 10.85984375 0.22898437 11.8446875 -0.42578125 12.859375 C-1.00714844 13.60703125 -1.58851563 14.3546875 -2.1875 15.125 C-2.8475 15.125 -3.5075 15.125 -4.1875 15.125 C-4.5175 16.115 -4.8475 17.105 -5.1875 18.125 C-5.77917969 18.02960937 -6.37085938 17.93421875 -6.98046875 17.8359375 C-7.77066406 17.72507812 -8.56085937 17.61421875 -9.375 17.5 C-10.15230469 17.38398437 -10.92960938 17.26796875 -11.73046875 17.1484375 C-14.63572404 17.12072441 -16.57389503 17.90872202 -19.1875 19.125 C-17.52083333 15.79166667 -15.85416667 12.45833333 -14.1875 9.125 C-13.85363281 8.39023437 -13.51976562 7.65546875 -13.17578125 6.8984375 C-11.74533102 4.33154262 -9.73722268 3.49314388 -7.1875 2.125 C-4.09861478 0.06574319 -3.47814073 -0.1140374 0 0 Z " fill="#858D66" transform="translate(775.1875,530.875)"/>
<path d="M0 0 C-3.83049413 8.41985974 -11.55555104 11.41509939 -19.59765625 14.80078125 C-22.76147756 15.91592837 -25.68103495 16.57060574 -29 17 C-24.83594456 11.39266539 -19.72144802 7.89839772 -14 4 C-13.33097656 3.53722656 -12.66195313 3.07445312 -11.97265625 2.59765625 C-7.90198421 0.00387203 -4.76863374 -0.38927622 0 0 Z " fill="#86976F" transform="translate(484,610)"/>
<path d="M0 0 C-1.70170161 5.46579158 -4.37446201 6.87343092 -9.1953125 9.5703125 C-20.81297715 15.49240896 -20.81297715 15.49240896 -26 14 C-23.7968437 12.22238485 -21.58789639 10.45291935 -19.375 8.6875 C-18.75753906 8.18798828 -18.14007812 7.68847656 -17.50390625 7.17382812 C-11.96188305 2.76937811 -7.36174493 -0.52583892 0 0 Z " fill="#86976E" transform="translate(614,737)"/>
<path d="M0 0 C2.5 -0.375 2.5 -0.375 5 0 C7.07324138 3.10986207 7.27392186 3.89108387 7.25 7.4375 C7.25515625 8.19933594 7.2603125 8.96117187 7.265625 9.74609375 C6.9747292 12.21443018 6.22975656 13.857686 5 16 C3.35 16 1.7 16 0 16 C-1.70754834 13.02534237 -2.27317355 10.86139168 -2.25 7.4375 C-2.25773438 6.29087891 -2.25773438 6.29087891 -2.265625 5.12109375 C-2 3 -2 3 0 0 Z " fill="#DBD4BC" transform="translate(552,833)"/>
<path d="M0 0 C4 0 4 0 5.5625 1.36328125 C11.65928219 9.63038536 14.6754924 17.69874097 14 28 C12.68 28 11.36 28 10 28 C9.87882813 27.38253906 9.75765625 26.76507812 9.6328125 26.12890625 C9.28143358 24.35309126 8.92427967 22.57841281 8.5625 20.8046875 C8.209172 19.04295481 7.87317747 17.27756453 7.5625 15.5078125 C6.65387891 10.68887564 5.58044592 7.58044592 2 4 C1.34 3.67 0.68 3.34 0 3 C0 2.01 0 1.02 0 0 Z " fill="#E4DAC4" transform="translate(687,590)"/>
<path d="M0 0 C-1.69852367 5.50620311 -4.47834108 6.91438422 -9.3125 9.640625 C-12.80845336 11.40892699 -16.28479916 12.76159972 -20 14 C-20.33 12.68 -20.66 11.36 -21 10 C-19.2527456 8.70462174 -17.50208483 7.41383727 -15.75 6.125 C-14.77546875 5.40570312 -13.8009375 4.68640625 -12.796875 3.9453125 C-8.20353433 0.75050293 -5.65293188 -0.25695145 0 0 Z " fill="#86976E" transform="translate(500,737)"/>
<path d="M0 0 C2.06419443 0.02383653 4.12710634 0.02049488 6.19140625 0.01391602 C13.91615685 0.03153193 21.26053941 0.60017709 28.80078125 2.33618164 C28.47078125 3.32618164 28.14078125 4.31618164 27.80078125 5.33618164 C27.04289307 5.19470703 26.28500488 5.05323242 25.50415039 4.9074707 C16.6963581 3.39258101 8.16339703 3.03370668 -0.76171875 3.08618164 C-2.08107422 3.07844727 -3.40042969 3.07071289 -4.75976562 3.06274414 C-12.77170228 3.07861722 -20.3490818 3.7199499 -28.19921875 5.33618164 C-28.52921875 4.67618164 -28.85921875 4.01618164 -29.19921875 3.33618164 C-19.33880956 0.98833826 -10.11967797 -0.12456105 0 0 Z " fill="#CDCAAF" transform="translate(650.19921875,786.663818359375)"/>
<path d="M0 0 C0.66 0.33 1.32 0.66 2 1 C1.67 1.66 1.34 2.32 1 3 C0.74047344 6.50360855 0.65707286 9.1641151 2 12.4375 C4.70411062 14.55008642 6.71161275 14.39940127 10.0625 14.3359375 C12.31939935 14.07913353 12.31939935 14.07913353 15 12 C16.2188121 8.44327821 16.2188121 8.44327821 17 5 C17.33 5 17.66 5 18 5 C18.59865471 10.98654709 18.59865471 10.98654709 16.95703125 13.765625 C15.16141815 15.93510476 13.53856072 17.73071964 11 19 C6.00308353 19.37712577 3.00932275 19.09290612 -1 16 C-3.67548031 11.98677954 -3.58740465 8.71626345 -3 4 C-1.5 1.4375 -1.5 1.4375 0 0 Z " fill="#492A11" transform="translate(672,600)"/>
<path d="M0 0 C0 4.22307853 -1.64241585 7.45101727 -3.25 11.3125 C-3.55035156 12.05951172 -3.85070312 12.80652344 -4.16015625 13.57617188 C-6.02746014 18.10140406 -8.25138095 21.92992948 -11 26 C-11.76939681 28.22602615 -11.76939681 28.22602615 -12 30 C-13.01320313 30.19916016 -13.01320313 30.19916016 -14.046875 30.40234375 C-15.38492188 30.66724609 -15.38492188 30.66724609 -16.75 30.9375 C-17.63171875 31.11152344 -18.5134375 31.28554688 -19.421875 31.46484375 C-21.63235053 31.92368488 -23.81512068 32.43336074 -26 33 C-23.51934513 30.41598451 -20.91533765 28.06468942 -18.1875 25.75 C-11.56247693 19.93922558 -6.77787556 14.75710308 -3.921875 6.296875 C-2.93499617 3.8380413 -1.66942136 2.04457222 0 0 Z " fill="#95A17A" transform="translate(755,550)"/>
<path d="M0 0 C1.9375 0.75 1.9375 0.75 3.9375 2.75 C3.875 5.625 3.875 5.625 2.9375 8.75 C0.375 11.125 0.375 11.125 -2.0625 12.75 C-0.0825 12.42 1.8975 12.09 3.9375 11.75 C3.9375 13.4 3.9375 15.05 3.9375 16.75 C0.6375 16.75 -2.6625 16.75 -6.0625 16.75 C-5.02782992 12.6113197 -3.49300464 10.19974852 -1.0625 6.75 C-2.3825 6.75 -3.7025 6.75 -5.0625 6.75 C-5.25 4.375 -5.25 4.375 -5.0625 1.75 C-2.0625 -0.25 -2.0625 -0.25 0 0 Z " fill="#CECBB1" transform="translate(569.0625,832.25)"/>
<path d="M0 0 C-2.42790583 2.0118845 -4.86880024 4.00734125 -7.3125 6 C-8.00279297 6.57234375 -8.69308594 7.1446875 -9.40429688 7.734375 C-10.40493164 8.54648437 -10.40493164 8.54648437 -11.42578125 9.375 C-12.03848877 9.87773438 -12.65119629 10.38046875 -13.2824707 10.8984375 C-15 12 -15 12 -18 12 C-19.76462683 8.91190305 -20 7.76687864 -20 4 C-17.23208055 3.13521219 -14.46134374 2.28288326 -11.6875 1.4375 C-10.90181641 1.19064453 -10.11613281 0.94378906 -9.30664062 0.68945312 C-8.54931641 0.46064453 -7.79199219 0.23183594 -7.01171875 -0.00390625 C-5.96697388 -0.32597046 -5.96697388 -0.32597046 -4.90112305 -0.65454102 C-3 -1 -3 -1 0 0 Z " fill="#85976E" transform="translate(389,768)"/>
<path d="M0 0 C1.31097656 0.01353516 1.31097656 0.01353516 2.6484375 0.02734375 C3.30070312 0.03894531 3.95296875 0.05054688 4.625 0.0625 C4.625 1.0525 4.625 2.0425 4.625 3.0625 C3.51125 3.13726563 2.3975 3.21203125 1.25 3.2890625 C-9.86434614 4.19105376 -19.15271039 6.68321877 -29.375 11.0625 C-31.0401413 11.73296749 -32.7061501 12.40131756 -34.375 13.0625 C-34.375 12.0725 -34.375 11.0825 -34.375 10.0625 C-23.46673448 4.82309688 -12.30597704 -0.16629699 0 0 Z " fill="#DBD4BC" transform="translate(442.375,569.9375)"/>
<path d="M0 0 C0.78375 0.05220703 1.5675 0.10441406 2.375 0.15820312 C4.2920912 0.28678851 6.20861503 0.42378617 8.125 0.5625 C7.795 1.2225 7.465 1.8825 7.125 2.5625 C6.43277344 2.53929687 5.74054688 2.51609375 5.02734375 2.4921875 C-6.94990067 2.27126336 -18.42293292 3.9378074 -29.97265625 7.07421875 C-33.21384043 7.61950546 -35.68388521 7.26900238 -38.875 6.5625 C-36.03771164 5.01543884 -33.48859122 4.14061185 -30.3203125 3.52734375 C-29.02673828 3.27307617 -29.02673828 3.27307617 -27.70703125 3.01367188 C-26.81371094 2.84416016 -25.92039062 2.67464844 -25 2.5 C-23.67162109 2.23993164 -23.67162109 2.23993164 -22.31640625 1.97460938 C-20.59420197 1.63966502 -18.87074324 1.31109578 -17.14599609 0.98950195 C-15.35859716 0.65342791 -13.57653466 0.28896542 -11.796875 -0.0859375 C-7.81404096 -0.5651555 -3.99095496 -0.29424837 0 0 Z " fill="#D9D3BA" transform="translate(378.875,705.4375)"/>
<path d="M0 0 C0 0.99 0 1.98 0 3 C-2.1953125 4.98046875 -2.1953125 4.98046875 -5.125 7.1875 C-9.97724302 11.00668483 -13.6571637 14.82354042 -17 20 C-18.65 19.67 -20.3 19.34 -22 19 C-18.1752687 10.06241546 -7.97821044 4.77201372 0 0 Z " fill="#E1D9C2" transform="translate(381,558)"/>
<path d="M0 0 C0.94875 0.04125 1.8975 0.0825 2.875 0.125 C2.875 4.125 2.875 4.125 1.58984375 5.5390625 C-2.5821528 8.38152169 -6.19134711 10.01744527 -11.125 11.125 C-9.25 7.25 -9.25 7.25 -8.125 6.125 C-10.435 5.795 -12.745 5.465 -15.125 5.125 C-12.47384159 2.47384159 -10.61110041 2.73427209 -7 2.46875 C-3.75168851 1.87322623 -3.68969685 0.14758787 0 0 Z " fill="#DDD6BE" transform="translate(395.125,602.875)"/>
<path d="M0 0 C2.64 0 5.28 0 8 0 C7.67 0.99 7.34 1.98 7 3 C4.03 2.505 4.03 2.505 1 2 C1 2.66 1 3.32 1 4 C1.78375 3.95875 2.5675 3.9175 3.375 3.875 C6 4 6 4 8 6 C8.31537716 10.33643601 8.44897847 12.32653229 6 16 C3.5 16.3125 3.5 16.3125 1 16 C0.34 15.34 -0.32 14.68 -1 14 C-0.625 11.375 -0.625 11.375 0 9 C0.99 9 1.98 9 3 9 C2.67 10.98 2.34 12.96 2 15 C2.66 14.67 3.32 14.34 4 14 C4 11.36 4 8.72 4 6 C2.68 6 1.36 6 0 6 C0 4.02 0 2.04 0 0 Z " fill="#E3DAC4" transform="translate(579,833)"/>
<path d="M0 0 C0.680625 1.7015625 0.680625 1.7015625 1.375 3.4375 C2.57095806 7.04721692 2.57095806 7.04721692 5 8 C4.67 8.99 4.34 9.98 4 11 C0.35531384 7.7291278 -1.29296777 5.83545033 -2 1 C-2.82242187 1.53109375 -3.64484375 2.0621875 -4.4921875 2.609375 C-21.84423188 13.6629798 -21.84423188 13.6629798 -29.625 12.75 C-30.73875 12.5025 -31.8525 12.255 -33 12 C-33 11.67 -33 11.34 -33 11 C-31.90945313 10.88785156 -31.90945313 10.88785156 -30.796875 10.7734375 C-21.92001077 9.61261679 -13.98040152 6.85174938 -6.828125 1.3203125 C-4.45708988 -0.39210175 -2.85660226 -0.23805019 0 0 Z " fill="#D5D0B7" transform="translate(475,640)"/>
<path d="M0 0 C2.31 0 4.62 0 7 0 C6.67 0.99 6.34 1.98 6 3 C6 2.34 6 1.68 6 1 C5.01 1 4.02 1 3 1 C3.33 2.32 3.66 3.64 4 5 C4.66 4.67 5.32 4.34 6 4 C6 5.98 6 7.96 6 10 C5.67 9.34 5.34 8.68 5 8 C4.34 8 3.68 8 3 8 C3 10.31 3 12.62 3 15 C4.32 14.34 5.64 13.68 7 13 C7 13.99 7 14.98 7 16 C4.69 16 2.38 16 0 16 C0 10.72 0 5.44 0 0 Z " fill="#DAD3BB" transform="translate(494,833)"/>
<path d="M0 0 C0.495 0.99 0.495 0.99 1 2 C-17.91154601 14.93748202 -17.91154601 14.93748202 -28.0625 19.4375 C-28.72185547 19.7372876 -29.38121094 20.0370752 -30.06054688 20.34594727 C-31.91015625 21.12109375 -31.91015625 21.12109375 -35 22 C-35.99 21.34 -36.98 20.68 -38 20 C-35.44110016 18.94633536 -32.91132761 17.97263823 -30.265625 17.15625 C-26.61825308 15.86483602 -23.27073744 14.20732486 -19.875 12.375 C-19.22845459 12.02888672 -18.58190918 11.68277344 -17.91577148 11.32617188 C-11.68044625 7.92967524 -5.81687252 4.07289398 0 0 Z " fill="#D4CFB6" transform="translate(541,628)"/>
<path d="M0 0 C-1.08667969 0.47179687 -1.08667969 0.47179687 -2.1953125 0.953125 C-12.58691696 5.09941033 -12.58691696 5.09941033 -20 13 C-19.71814575 15.88900605 -18.91884332 18.24347003 -18 21 C-19.9375 20.625 -19.9375 20.625 -22 20 C-23.45147903 17.09704195 -23.37239025 15.22738221 -23 12 C-19.5832806 7.147361 -16.25383296 4.5825433 -10.9375 2.0625 C-10.32583984 1.74732422 -9.71417969 1.43214844 -9.08398438 1.10742188 C-5.74508059 -0.52773857 -3.52529075 -1.55605103 0 0 Z " fill="#D4CFB5" transform="translate(622,792)"/>
<path d="M0 0 C0 0.99 0 1.98 0 3 C-1.134375 3.103125 -2.26875 3.20625 -3.4375 3.3125 C-7.50117312 3.80331665 -11.10023637 4.94235504 -14.921875 6.37890625 C-17 7 -17 7 -21 7 C-21.33 7.66 -21.66 8.32 -22 9 C-22.33 7.02 -22.66 5.04 -23 3 C-22.67 3.66 -22.34 4.32 -22 5 C-21.44014404 4.81300537 -20.88028809 4.62601074 -20.3034668 4.43334961 C-17.76777132 3.59214979 -15.22779494 2.76470074 -12.6875 1.9375 C-11.80642578 1.64294922 -10.92535156 1.34839844 -10.01757812 1.04492188 C-9.17001953 0.77099609 -8.32246094 0.49707031 -7.44921875 0.21484375 C-6.66893311 -0.04176025 -5.88864746 -0.29836426 -5.0847168 -0.56274414 C-3 -1 -3 -1 0 0 Z " fill="#DCD5BD" transform="translate(390,765)"/>
<path d="M0 0 C0.78375 0.04125 1.5675 0.0825 2.375 0.125 C2.375 2.105 2.375 4.085 2.375 6.125 C1.715 4.805 1.055 3.485 0.375 2.125 C-0.615 2.125 -1.605 2.125 -2.625 2.125 C-1.40672581 5.72176486 -1.40672581 5.72176486 1 8.5625 C2.375 10.125 2.375 10.125 2.625 13.25 C2.375 16.125 2.375 16.125 1.375 17.125 C-0.62458364 17.16580783 -2.62545254 17.16754356 -4.625 17.125 C-4.13 15.64 -4.13 15.64 -3.625 14.125 C-2.305 14.785 -0.985 15.445 0.375 16.125 C-0.84327419 12.52823514 -0.84327419 12.52823514 -3.25 9.6875 C-4.625 8.125 -4.625 8.125 -4.9375 5.0625 C-4.5330847 1.26099618 -3.89705386 0.18557399 0 0 Z " fill="#D7D1B8" transform="translate(510.625,831.875)"/>
<path d="M0 0 C0.99 0 1.98 0 3 0 C3.22577402 5.4185766 2.46670113 9.77487721 1 15 C-0.32 14.34 -1.64 13.68 -3 13 C-3.31563182 7.73946963 -2.66590937 4.55426184 0 0 Z " fill="#4F290C" transform="translate(738,583)"/>
<path d="M0 0 C0.99 0.33 1.98 0.66 3 1 C3.375 3.6875 3.375 3.6875 3 7 C1.176017 9.06398076 -0.72763839 10.39041053 -3 12 C-1.35 12.33 0.3 12.66 2 13 C2.33 12.34 2.66 11.68 3 11 C3 12.65 3 14.3 3 16 C0.03 16 -2.94 16 -6 16 C-5.62529239 12.72130844 -5.12561754 11.15309637 -3 8.5625 C-0.71847149 5.6392916 -0.33898902 3.64413194 0 0 Z " fill="#DBD4BC" transform="translate(542,833)"/>
<path d="M0 0 C0.66 0.66 1.32 1.32 2 2 C1.33742188 2.391875 0.67484375 2.78375 -0.0078125 3.1875 C-2.27172509 4.55885175 -4.51078043 5.95246397 -6.7421875 7.375 C-7.75345703 8.01695312 -7.75345703 8.01695312 -8.78515625 8.671875 C-10.17282498 9.55375793 -11.55826886 10.43915201 -12.94140625 11.328125 C-19.53598143 15.49840874 -24.93768273 18.49361126 -33 18 C-32.67 17.34 -32.34 16.68 -32 16 C-30.32419882 15.61211112 -28.63263614 15.29202884 -26.9375 15 C-16.88934612 12.68397894 -8.06752142 6.25644518 0 0 Z " fill="#D1CDB3" transform="translate(690,757)"/>
<path d="M0 0 C1.65 0 3.3 0 5 0 C5 3.10623847 4.71116266 5.24129972 2.5390625 7.55859375 C-5.3078281 13.72400779 -14.25040853 17.24187695 -24 19 C-23 17 -23 17 -20.15625 15.921875 C-18.9496875 15.53515625 -17.743125 15.1484375 -16.5 14.75 C-8.19866414 11.9427237 -1.03121071 8.43744192 4 1 C2.68 0.67 1.36 0.34 0 0 Z " fill="#D1CDB3" transform="translate(480,609)"/>
<path d="M0 0 C0.99 0.33 1.98 0.66 3 1 C2.86722656 1.53625 2.73445313 2.0725 2.59765625 2.625 C0.77830798 10.69918795 0.38849511 18.75981434 0 27 C-0.33 27 -0.66 27 -1 27 C-1.06058594 26.25234375 -1.12117188 25.5046875 -1.18359375 24.734375 C-1.26738281 23.74953125 -1.35117187 22.7646875 -1.4375 21.75 C-1.51871094 20.77546875 -1.59992188 19.8009375 -1.68359375 18.796875 C-1.89675337 16.10504839 -1.89675337 16.10504839 -2.625 14.03125 C-3.17915186 11.02959408 -2.35674445 8.67281959 -1.5625 5.75 C-1.27503906 4.67234375 -0.98757813 3.5946875 -0.69140625 2.484375 C-0.46324219 1.66453125 -0.23507812 0.8446875 0 0 Z " fill="#D6D1B8" transform="translate(367,738)"/>
<path d="M0 0 C0 0.33 0 0.66 0 1 C-0.93199219 1.04898438 -1.86398437 1.09796875 -2.82421875 1.1484375 C-10.50478421 1.598865 -17.91277217 2.3486835 -25.48828125 3.79296875 C-26.31714844 3.86128906 -27.14601563 3.92960938 -28 4 C-28.66 3.34 -29.32 2.68 -30 2 C-19.6074194 -1.19910742 -10.694511 -1.0630472 0 0 Z " fill="#CFCCB1" transform="translate(472,668)"/>
<path d="M0 0 C0.33 0 0.66 0 1 0 C0.71625163 6.50117588 -1.55040943 9.59798733 -5.875 14.3125 C-6.41769531 14.93189453 -6.96039063 15.55128906 -7.51953125 16.18945312 C-9.92687836 18.89992584 -11.95520104 20.97013402 -15 23 C-15 20 -15 20 -13.20703125 18.01953125 C-12.02173828 16.92705078 -12.02173828 16.92705078 -10.8125 15.8125 C-5.95220107 11.12058938 -2.15119415 6.45358244 0 0 Z " fill="#D9D3BB" transform="translate(481,683)"/>
<path d="M0 0 C0.33 0.99 0.66 1.98 1 3 C-0.74802146 3.81674796 -2.49850189 4.62823451 -4.25 5.4375 C-5.22453125 5.88996094 -6.1990625 6.34242188 -7.203125 6.80859375 C-11.41109692 8.60109575 -14.67810776 9.12265648 -19.25 9.0625 C-20.14203125 9.05347656 -21.0340625 9.04445313 -21.953125 9.03515625 C-22.62859375 9.02355469 -23.3040625 9.01195312 -24 9 C-23.34 8.67 -22.68 8.34 -22 8 C-21.67 7.34 -21.34 6.68 -21 6 C-19.9275 6.103125 -18.855 6.20625 -17.75 6.3125 C-11.67916272 6.35609668 -6.36264258 3.61696958 -1 1 C-0.67 0.67 -0.34 0.34 0 0 Z " fill="#CDCAAF" transform="translate(571,756)"/>
<path d="M0 0 C0.680625 0.70125 1.36125 1.4025 2.0625 2.125 C7.28187457 7.31496964 12.48270743 11.54184476 19 15 C18.01 15.495 18.01 15.495 17 16 C14.35546875 14.671875 14.35546875 14.671875 11.1875 12.75 C10.14980469 12.12609375 9.11210938 11.5021875 8.04296875 10.859375 C7.03878906 10.24578125 6.03460937 9.6321875 5 9 C3.58074219 8.24009766 3.58074219 8.24009766 2.1328125 7.46484375 C1.42898438 6.98144531 0.72515625 6.49804688 0 6 C-0.3125 2.8125 -0.3125 2.8125 0 0 Z " fill="#A7AB87" transform="translate(588,646)"/>
<path d="M0 0 C5.35313002 2.39967897 5.35313002 2.39967897 7 5 C6.94527524 7.76360047 6.49366609 10.26239716 6 13 C3.36 13.99 0.72 14.98 -2 16 C-1.67 15.01 -1.34 14.02 -1 13 C-0.34 12.690625 0.32 12.38125 1 12.0625 C3.09628611 11.17134018 3.09628611 11.17134018 4 9.3125 C4 5.55397341 1.99048396 3.13652018 0 0 Z " fill="#9BA27C" transform="translate(702,561)"/>
<path d="M0 0 C1 2 1 2 0.4375 4.25 C-0.11186286 7.70313795 0.84368512 9.73511093 2 13 C2.125 15.875 2.125 15.875 2 18 C2.99 18.33 3.98 18.66 5 19 C5 19.66 5 20.32 5 21 C2.00756451 19.96682227 1.13749956 19.27582495 -0.30078125 16.390625 C-0.80158203 14.83601562 -0.80158203 14.83601562 -1.3125 13.25 C-1.65925781 12.22390625 -2.00601563 11.1978125 -2.36328125 10.140625 C-3.05998054 6.70414506 -2.92156207 4.37084735 -2 1 C-1.34 0.67 -0.68 0.34 0 0 Z " fill="#CFCDB4" transform="translate(560,609)"/>
<path d="M0 0 C0.66 0 1.32 0 2 0 C2 4.62 2 9.24 2 14 C1.01 13.67 0.02 13.34 -1 13 C-1.02686553 11.02090602 -1.04633375 9.04171029 -1.0625 7.0625 C-1.07410156 5.96035156 -1.08570313 4.85820313 -1.09765625 3.72265625 C-1 1 -1 1 0 0 Z " fill="#87996F" transform="translate(554,834)"/>
<path d="M0 0 C4.34464536 0.60825035 8.67551867 1.26167392 13 2 C13 2.33 13 2.66 13 3 C15.97 3.495 15.97 3.495 19 4 C19 4.33 19 4.66 19 5 C11.91923749 5.40850553 5.80074041 3.90420731 -1 2 C-0.67 1.34 -0.34 0.68 0 0 Z " fill="#D2CEB4" transform="translate(395,800)"/>
<path d="M0 0 C0.78375 0.05220703 1.5675 0.10441406 2.375 0.15820312 C4.2920912 0.28678851 6.20861503 0.42378617 8.125 0.5625 C7.795 1.2225 7.465 1.8825 7.125 2.5625 C4.20808475 2.61651695 1.29217276 2.65618066 -1.625 2.6875 C-2.45 2.70425781 -3.275 2.72101562 -4.125 2.73828125 C-4.92421875 2.74472656 -5.7234375 2.75117187 -6.546875 2.7578125 C-7.2800293 2.76828613 -8.01318359 2.77875977 -8.76855469 2.78955078 C-11.17396076 2.53027544 -12.78751494 1.75475925 -14.875 0.5625 C-9.77201229 -0.53798457 -5.15418151 -0.38001169 0 0 Z " fill="#CAC8AD" transform="translate(378.875,705.4375)"/>
<path d="M0 0 C0.99 0.33 1.98 0.66 3 1 C2.67 3.31 2.34 5.62 2 8 C0.35 7.67 -1.3 7.34 -3 7 C-3.1875 4.625 -3.1875 4.625 -3 2 C-2.01 1.34 -1.02 0.68 0 0 Z " fill="#B4B898" transform="translate(567,832)"/>
<path d="M0 0 C0 0.66 0 1.32 0 2 C-2.4140625 3.69140625 -2.4140625 3.69140625 -5.625 5.5625 C-7.19121094 6.49255859 -7.19121094 6.49255859 -8.7890625 7.44140625 C-11.95226547 8.97682959 -14.52458295 9.61906089 -18 10 C-18 9.34 -18 8.68 -18 8 C-17.34773437 7.75765625 -16.69546875 7.5153125 -16.0234375 7.265625 C-11.54852823 5.5495831 -4.42938127 0 0 0 Z " fill="#D6D0B7" transform="translate(543,766)"/>
<path d="M0 0 C2.31 0.33 4.62 0.66 7 1 C7 1.33 7 1.66 7 2 C5.02 2.66 3.04 3.32 1 4 C0.34 7.3 -0.32 10.6 -1 14 C-2.9955516 10.00889681 -3.19546065 8.30013434 -3 4 C-2.34 4 -1.68 4 -1 4 C-0.67 2.68 -0.34 1.36 0 0 Z " fill="#DCD6BF" transform="translate(720,511)"/>
<path d="M0 0 C0.66 0 1.32 0 2 0 C2 4.62 2 9.24 2 14 C-1 11 -1 11 -1.328125 8.80859375 C-1.30234375 8.02613281 -1.2765625 7.24367188 -1.25 6.4375 C-1.23453125 5.65246094 -1.2190625 4.86742187 -1.203125 4.05859375 C-1 2 -1 2 0 0 Z " fill="#E1D9C2" transform="translate(551,834)"/>
<path d="M0 0 C1.32 0.66 2.64 1.32 4 2 C3.72510809 6.03174806 3.46508424 7.56894631 0.4375 10.375 C-0.366875 10.91125 -1.17125 11.4475 -2 12 C-2.66 11.67 -3.32 11.34 -4 11 C-3.01 9.6696875 -3.01 9.6696875 -2 8.3125 C-0.01139933 5.01888014 0.43735074 3.71748127 0 0 Z " fill="#DFD7C0" transform="translate(569,833)"/>
<path d="M0 0 C4.49797113 1.68673918 8.72886302 3.81673892 13 6 C13 6.66 13 7.32 13 8 C9.2397015 7.41892368 6.46964968 6.34800504 3.1875 4.4375 C2.39730469 3.98246094 1.60710937 3.52742187 0.79296875 3.05859375 C0.20128906 2.70925781 -0.39039063 2.35992188 -1 2 C-0.67 1.34 -0.34 0.68 0 0 Z " fill="#DCD5BD" transform="translate(382,793)"/>
<path d="M0 0 C2.44921875 1.11328125 2.44921875 1.11328125 5 3 C5.70703125 5.91796875 5.70703125 5.91796875 5.8125 9.1875 C5.86019531 10.27417969 5.90789063 11.36085938 5.95703125 12.48046875 C5.97121094 13.31191406 5.98539063 14.14335938 6 15 C5.34 15 4.68 15 4 15 C4 13.68 4 12.36 4 11 C3.34 11 2.68 11 2 11 C1.67 9.68 1.34 8.36 1 7 C1.66 7 2.32 7 3 7 C1.84826645 4.53199953 0.95216435 2.95216435 -1 1 C-0.67 0.67 -0.34 0.34 0 0 Z " fill="#C3C0A2" transform="translate(723,541)"/>
<path d="M0 0 C0.66 0.66 1.32 1.32 2 2 C-0.55781875 3.48780292 -3.12070266 4.96533338 -5.6875 6.4375 C-6.40873047 6.85837891 -7.12996094 7.27925781 -7.87304688 7.71289062 C-11.55781352 9.81606794 -14.70344855 11.53390468 -19 12 C-19 11.34 -19 10.68 -19 10 C-18.07380859 9.67128906 -18.07380859 9.67128906 -17.12890625 9.3359375 C-10.79608922 6.96474574 -5.46976792 3.96359994 0 0 Z " fill="#D2CEB4" transform="translate(710,764)"/>
<path d="M0 0 C1.65 0.33 3.3 0.66 5 1 C4.67 2.65 4.34 4.3 4 6 C2.35 5.67 0.7 5.34 -1 5 C-0.67 3.35 -0.34 1.7 0 0 Z " fill="#46230A" transform="translate(583,647)"/>
<path d="M0 0 C0.66 0 1.32 0 2 0 C1.75 2.375 1.75 2.375 1 5 C-2.10830913 7.41757377 -5.17917999 7.24918391 -9 7 C-9.66 6.67 -10.32 6.34 -11 6 C-11 5.34 -11 4.68 -11 4 C-8.98177083 4.03255208 -6.96354167 4.06510417 -4.9453125 4.09765625 C-2.91814596 4.12649242 -2.91814596 4.12649242 -1 3 C-0.67 2.01 -0.34 1.02 0 0 Z " fill="#D7CFB4" transform="translate(776,597)"/>
<path d="M0 0 C0.33 1.98 0.66 3.96 1 6 C-0.65 6 -2.3 6 -4 6 C-4.33 4.35 -4.66 2.7 -5 1 C-3 0 -3 0 0 0 Z " fill="#45250D" transform="translate(776,573)"/>
<path d="M0 0 C1.67542976 0.28604898 3.34385343 0.61781233 5 1 C4.67 2.65 4.34 4.3 4 6 C2.68 5.67 1.36 5.34 0 5 C-0.5625 3.0625 -0.5625 3.0625 -1 1 C-0.67 0.67 -0.34 0.34 0 0 Z " fill="#4A2A0E" transform="translate(699,663)"/>
<path d="M0 0 C-0.33 2.97 -0.66 5.94 -1 9 C-1.33 9 -1.66 9 -2 9 C-2.33 7.35 -2.66 5.7 -3 4 C-4.98 5.98 -6.96 7.96 -9 10 C-9.66 9.67 -10.32 9.34 -11 9 C-9.89902432 7.87187697 -8.79408444 6.74762189 -7.6875 5.625 C-7.07261719 4.99851562 -6.45773437 4.37203125 -5.82421875 3.7265625 C-1.88687783 0 -1.88687783 0 0 0 Z " fill="#D2CEB4" transform="translate(433,598)"/>
<path d="M0 0 C-3.86790352 2.57860235 -6.76613915 2.01114505 -11.1875 1.625 C-11.93708984 1.56828125 -12.68667969 1.5115625 -13.45898438 1.453125 C-15.30676559 1.31189331 -17.153512 1.15723833 -19 1 C-19 0.67 -19 0.34 -19 0 C-12.5510809 -1.31909709 -6.51244208 -0.69508823 0 0 Z " fill="#CECBB1" transform="translate(423,706)"/>
<path d="M0 0 C0 0.33 0 0.66 0 1 C-1.93455454 1.38991022 -3.87281828 1.76145349 -5.8125 2.125 C-6.89144531 2.33382812 -7.97039062 2.54265625 -9.08203125 2.7578125 C-12 3 -12 3 -15 1 C-9.42567486 -0.66251802 -5.6932495 -1.18609365 0 0 Z " fill="#D1CDB3" transform="translate(355,710)"/>
<path d="M0 0 C1.32 0.33 2.64 0.66 4 1 C3.34 1 2.68 1 2 1 C2 1.66 2 2.32 2 3 C2.99 2.67 3.98 2.34 5 2 C8.1875 3.4375 8.1875 3.4375 11 5 C10.01 5.495 10.01 5.495 9 6 C8.67 6.66 8.34 7.32 8 8 C7.13375 7.319375 7.13375 7.319375 6.25 6.625 C4.2199667 5.15886484 2.26460157 4.05142216 0 3 C0 2.01 0 1.02 0 0 Z " fill="#A3A584" transform="translate(756,595)"/>
<path d="M0 0 C0.66 0.33 1.32 0.66 2 1 C-0.475 6.94 -0.475 6.94 -3 13 C-3.33 13 -3.66 13 -4 13 C-4.45732667 7.28341664 -3.52273754 4.51350747 0 0 Z " fill="#4E2F17" transform="translate(766,552)"/>
<path d="M0 0 C0.33 0 0.66 0 1 0 C1 5.94 1 11.88 1 18 C0.67 18 0.34 18 0 18 C-0.06058594 17.25234375 -0.12117188 16.5046875 -0.18359375 15.734375 C-0.26738281 14.74953125 -0.35117187 13.7646875 -0.4375 12.75 C-0.51871094 11.77546875 -0.59992188 10.8009375 -0.68359375 9.796875 C-0.90609989 7.07290953 -0.90609989 7.07290953 -1.66015625 4.828125 C-2 3 -2 3 0 0 Z " fill="#CFCCB2" transform="translate(366,747)"/>
<path d="M0 0 C2.64 0.99 5.28 1.98 8 3 C8 3.99 8 4.98 8 6 C5.03 5.505 5.03 5.505 2 5 C1.67 4.01 1.34 3.02 1 2 C0.34 1.67 -0.32 1.34 -1 1 C-0.67 0.67 -0.34 0.34 0 0 Z " fill="#BBBB9F" transform="translate(628,672)"/>
<path d="M0 0 C4.99275057 1.27721526 7.57611908 3.17330957 11 7 C10.34 7.66 9.68 8.32 9 9 C8.67 7.68 8.34 6.36 8 5 C6.68 5 5.36 5 4 5 C4 4.34 4 3.68 4 3 C2.68 2.67 1.36 2.34 0 2 C0 1.34 0 0.68 0 0 Z " fill="#A9AC8A" transform="translate(613,665)"/>
<path d="M0 0 C4.39683488 1.19913678 7.09840934 2.4288115 10 6 C10 6.66 10 7.32 10 8 C9.01 7.67 8.02 7.34 7 7 C7 6.34 7 5.68 7 5 C4.03 4.01 1.06 3.02 -2 2 C-1.34 1.34 -0.68 0.68 0 0 Z " fill="#D0CAB3" transform="translate(729,512)"/>
<path d="M0 0 C5.445 1.485 5.445 1.485 11 3 C10.67 3.66 10.34 4.32 10 5 C7.4375 5.625 7.4375 5.625 5 6 C3.35 4.02 1.7 2.04 0 0 Z " fill="#C5C2A7" transform="translate(576,642)"/>
<path d="M0 0 C0.66 0 1.32 0 2 0 C2 0.66 2 1.32 2 2 C2.99 2.33 3.98 2.66 5 3 C4.67 3.99 4.34 4.98 4 6 C1.9375 6.6875 1.9375 6.6875 0 7 C0 4.69 0 2.38 0 0 Z " fill="#8B9C73" transform="translate(497,841)"/>
<path d="M0 0 C0.66 0 1.32 0 2 0 C3 3 4 6 5 9 C3.0625 8.625 3.0625 8.625 1 8 C-0.35439668 5.29120665 -0.06501451 2.99066732 0 0 Z " fill="#E3DAC4" transform="translate(599,804)"/>
<path d="M0 0 C0.99 0 1.98 0 3 0 C3 3.96 3 7.92 3 12 C2.67 12 2.34 12 2 12 C2 9.03 2 6.06 2 3 C0.35 3.33 -1.3 3.66 -3 4 C-1.6875 2 -1.6875 2 0 0 Z " fill="#B9BB9D" transform="translate(475,750)"/>
<path d="M0 0 C0.66 0.33 1.32 0.66 2 1 C-0.97 3.97 -3.94 6.94 -7 10 C-7.66 9.34 -8.32 8.68 -9 8 C-6.03 5.36 -3.06 2.72 0 0 Z " fill="#DFD7C0" transform="translate(464,705)"/>
<path d="M0 0 C0.66 0.33 1.32 0.66 2 1 C1.34 3.64 0.68 6.28 0 9 C-0.99 9 -1.98 9 -3 9 C-3.26218749 5.85375007 -3.24754367 4.38162983 -1.5 1.6875 C-1.005 1.130625 -0.51 0.57375 0 0 Z " fill="#4B3118" transform="translate(672,600)"/>
<path d="M0 0 C0.33 0 0.66 0 1 0 C1 1.65 1 3.3 1 5 C-1.64 4.67 -4.28 4.34 -7 4 C-5 2 -5 2 -2.375 1.875 C-1.59125 1.91625 -0.8075 1.9575 0 2 C0 1.34 0 0.68 0 0 Z " fill="#E2D9C3" transform="translate(544,844)"/>
<path d="M0 0 C0.33 0.66 0.66 1.32 1 2 C1.763125 1.79375 2.52625 1.5875 3.3125 1.375 C6 1 6 1 9 3 C7.865625 3.12375 6.73125 3.2475 5.5625 3.375 C3.7990625 3.684375 3.7990625 3.684375 2 4 C1.67 4.66 1.34 5.32 1 6 C0.67 4.02 0.34 2.04 0 0 Z " fill="#CCCAAF" transform="translate(367,768)"/>
<path d="M0 0 C1.32 0.33 2.64 0.66 4 1 C4 2.98 4 4.96 4 7 C2.68 6.34 1.36 5.68 0 5 C0 3.35 0 1.7 0 0 Z " fill="#462106" transform="translate(735,591)"/>
<path d="M0 0 C0.66 0.33 1.32 0.66 2 1 C0.02 3.31 -1.96 5.62 -4 8 C-4.66 7.67 -5.32 7.34 -6 7 C-4.60667426 3.63279613 -3.0210714 2.0140476 0 0 Z " fill="#DBD4BC" transform="translate(606,797)"/>
<path d="M0 0 C2.86207152 1.28299758 5.0245088 2.530636 7 5 C7 5.99 7 6.98 7 8 C2.60841671 6.5361389 2.12052567 4.02168662 0 0 Z " fill="#B6B592" transform="translate(702,561)"/>
<path d="M0 0 C1.98 0 3.96 0 6 0 C6 0.66 6 1.32 6 2 C6.99 2.33 7.98 2.66 9 3 C8.67 3.66 8.34 4.32 8 5 C5.36 3.68 2.72 2.36 0 1 C0 0.67 0 0.34 0 0 Z " fill="#BEBEA2" transform="translate(658,566)"/>
<path d="M0 0 C4.455 0.99 4.455 0.99 9 2 C9.33 3.32 9.66 4.64 10 6 C9.67 5.34 9.34 4.68 9 4 C8.236875 3.855625 7.47375 3.71125 6.6875 3.5625 C3.73890802 2.94535284 2.26703116 1.93117469 0 0 Z " fill="#B4B697" transform="translate(662,541)"/>
<path d="M0 0 C0.66 0.33 1.32 0.66 2 1 C-1.465 3.97 -1.465 3.97 -5 7 C-3.92643531 2.70574125 -3.4915227 2.25259529 0 0 Z M-7 7 C-6.01 7.495 -6.01 7.495 -5 8 C-5.99 8.495 -5.99 8.495 -7 9 C-7 8.34 -7 7.68 -7 7 Z " fill="#959C76" transform="translate(771,531)"/>
<path d="M0 0 C0 1.65 0 3.3 0 5 C-1.65 5.33 -3.3 5.66 -5 6 C-5 4.35 -5 2.7 -5 1 C-1.125 0 -1.125 0 0 0 Z " fill="#8E9D76" transform="translate(502,833)"/>
<path d="M0 0 C0.99 0.33 1.98 0.66 3 1 C0.36 2.98 -2.28 4.96 -5 7 C-5 6.01 -5 5.02 -5 4 C-2.6875 1.75 -2.6875 1.75 0 0 Z " fill="#D7D2B9" transform="translate(723,714)"/>
<path d="M0 0 C0.66 0 1.32 0 2 0 C2.3367697 4.93928888 2.16130459 5.78492722 -1 10 C-0.67 6.7 -0.34 3.4 0 0 Z " fill="#E3DAC3" transform="translate(483,676)"/>
<path d="M0 0 C0 0.99 0 1.98 0 3 C-1.98 3 -3.96 3 -6 3 C-6.33 2.01 -6.66 1.02 -7 0 C-3.98968256 -0.93423645 -3.13349732 -1.04449911 0 0 Z " fill="#D2CEB4" transform="translate(390,765)"/>
<path d="M0 0 C-1.39332574 3.36720387 -2.9789286 4.9859524 -6 7 C-6 4 -6 4 -4.125 1.8125 C-2 0 -2 0 0 0 Z " fill="#CFCCB1" transform="translate(472,699)"/>
<path d="M0 0 C0.99 0 1.98 0 3 0 C3 1.65 3 3.3 3 5 C3.99 5.33 4.98 5.66 6 6 C6 6.66 6 7.32 6 8 C4.125 7.375 4.125 7.375 2 6 C0.75 2.875 0.75 2.875 0 0 Z " fill="#BCBC9D" transform="translate(559,622)"/>
<path d="M0 0 C0.33 0 0.66 0 1 0 C1.49230769 6.4 1.49230769 6.4 -1 9.4375 C-1.99 10.2109375 -1.99 10.2109375 -3 11 C-2.11223998 7.30099992 -1.05418136 3.65449539 0 0 Z " fill="#4E3B24" transform="translate(689,605)"/>
<path d="M0 0 C0.99 0 1.98 0 3 0 C3 1.65 3 3.3 3 5 C1.68 4.67 0.36 4.34 -1 4 C-0.67 2.68 -0.34 1.36 0 0 Z " fill="#493119" transform="translate(583,604)"/>
<path d="M0 0 C1.98 0.495 1.98 0.495 4 1 C4 1.99 4 2.98 4 4 C2.35 4 0.7 4 -1 4 C-0.67 2.68 -0.34 1.36 0 0 Z " fill="#4B3117" transform="translate(722,544)"/>
<path d="M0 0 C0.12375 0.639375 0.2475 1.27875 0.375 1.9375 C0.684375 2.9584375 0.684375 2.9584375 1 4 C1.66 4.33 2.32 4.66 3 5 C2.01 6.485 2.01 6.485 1 8 C-1.625 8.1875 -1.625 8.1875 -4 8 C-3.01 7.34 -2.02 6.68 -1 6 C-0.26656572 2.93443402 -0.26656572 2.93443402 0 0 Z " fill="#D5CFB6" transform="translate(584,841)"/>
<path d="M0 0 C2 3 2 3 2 6 C0.68 5.67 -0.64 5.34 -2 5 C-1.125 1.125 -1.125 1.125 0 0 Z " fill="#DAD4BC" transform="translate(538,833)"/>
<path d="M0 0 C0 0.33 0 0.66 0 1 C-6.0546875 1.9765625 -6.0546875 1.9765625 -8 2 C-8.66 1.34 -9.32 0.68 -10 0 C-6.30581799 -1.231394 -3.7943739 -0.64432764 0 0 Z " fill="#CAC8AD" transform="translate(452,670)"/>
<path d="M0 0 C-0.33 1.32 -0.66 2.64 -1 4 C-2.65 4 -4.3 4 -6 4 C-6 3.34 -6 2.68 -6 2 C-2.25 0 -2.25 0 0 0 Z " fill="#42230B" transform="translate(686,614)"/>
<path d="M0 0 C0.33 0 0.66 0 1 0 C1 1.65 1 3.3 1 5 C-0.65 5 -2.3 5 -4 5 C-4 3.68 -4 2.36 -4 1 C-3.67 1.66 -3.34 2.32 -3 3 C-2.01 3 -1.02 3 0 3 C0 2.01 0 1.02 0 0 Z " fill="#D6CAAC" transform="translate(682,605)"/>
<path d="M0 0 C2.64 0.33 5.28 0.66 8 1 C6 3 6 3 2.375 3.125 C1.26125 3.08375 0.1475 3.0425 -1 3 C-0.67 2.01 -0.34 1.02 0 0 Z " fill="#B9BB9C" transform="translate(587,605)"/>
<path d="M0 0 C0.99 0.33 1.98 0.66 3 1 C2.67 2.32 2.34 3.64 2 5 C1.01 5 0.02 5 -1 5 C-0.67 3.35 -0.34 1.7 0 0 Z " fill="#4B2E16" transform="translate(648,538)"/>
</svg>
