<svg xmlns="http://www.w3.org/2000/svg" viewBox="0 0 480.78 126.84"><defs><style>.cls-1{fill:#cb9531;stroke:#6c4c35;stroke-width:2px;}.cls-1,.cls-2{stroke-miterlimit:10;}.cls-2{stroke:#000;stroke-width:0.91px;}</style></defs><g id="Layer_2" data-name="Layer 2"><g id="Layer_1-2" data-name="Layer 1"><path class="cls-1" d="M80,125.33A110.26,110.26,0,0,1,61.89,110.4a46.51,46.51,0,0,0,5.22-6.54c1.61-2.46,3-5.26,2.84-8.19-.2-3.85-4.24-7.2-8.06-7.21a9.49,9.49,0,0,0-7.56,5c-1.74,4.07,1.15,10.1,7.56,16.92-5.43,5.76-12.15,10.4-18.73,14.89-.94-2.36-8.9-23.54.64-42.34h0A38.14,38.14,0,0,1,47,77.77,42.88,42.88,0,0,1,61.84,65h0a4.13,4.13,0,0,0,.42-.22l.5.28A42,42,0,0,1,76.85,77.43a39.6,39.6,0,0,1,3,5C89.44,101.45,81,123,80,125.33Z"/><path class="cls-1" d="M79,32.45c-.43,8.07-8.91,15.12-16.94,15.16-5.86,0-13.61-5.2-15.89-10.54-3.66-8.59,2.38-21.28,15.9-35.61a99.21,99.21,0,0,1,11,13.75C76.46,20.37,79.37,26.26,79,32.45Z"/><path class="cls-1" d="M123,83.55c-2.41,1-24.16,9.14-43.16-1.08a38.42,38.42,0,0,1-4.38-2.71A42.78,42.78,0,0,1,62.76,65c-.09-.19-.19-.37-.28-.55A42.07,42.07,0,0,1,75.17,49.86c20-14.17,45.36-4.22,47.89-3.17a110.76,110.76,0,0,1-14.91,18.13,47.17,47.17,0,0,0-6.54-5.21c-2.47-1.62-5.26-3-8.2-2.85-3.84.22-7.19,4.25-7.2,8.06a9.53,9.53,0,0,0,5,7.56c4.08,1.74,10.12-1.15,16.94-7.56C113.91,70.26,118.53,77,123,83.55Z"/><path class="cls-1" d="M62.11,64.45c-.09.16-.17.32-.27.49A42.54,42.54,0,0,1,49.08,79.76,40.42,40.42,0,0,1,43.81,83c-18.78,9.48-39.9,1.54-42.27.6,4.51-6.6,9.13-13.29,14.9-18.73,6.81,6.43,12.85,9.3,16.93,7.56a9.51,9.51,0,0,0,5-7.56c0-3.81-3.36-7.84-7.2-8.06-2.94-.15-5.73,1.23-8.2,2.85a46.93,46.93,0,0,0-6.53,5.21A109.83,109.83,0,0,1,1.52,46.69c2.54-1,27.89-11,47.89,3.17A42.11,42.11,0,0,1,62.11,64.45Z"/><path class="cls-2" d="M224.43,37a7.09,7.09,0,0,0-2.84-3.71,7.37,7.37,0,0,0-4.25-1.81h-36.9a8.13,8.13,0,0,0-3.66,1.59c-1.66,1.07-2.49,2.16-2.49,3.29v27.8h26.49a5.36,5.36,0,0,0,2.25-.63,13.58,13.58,0,0,0,2.48-1.6,8.85,8.85,0,0,0,1.89-2,2.31,2.31,0,0,0,.47-1.91V70.73a2.32,2.32,0,0,0-.47-1.91,10.64,10.64,0,0,0-1.77-2,9.94,9.94,0,0,0-2.48-1.59,6.15,6.15,0,0,0-2.37-.63H174.29v34h-8.75V31.05h58.89Z"/><path class="cls-2" d="M303.66,98.53h-8.48L278.71,67.34H257.77V98.53H249V31.05h35.25a18.51,18.51,0,0,1,2.48.42c1.33.29,2.48.57,3.43.85q7.1,2.55,9.93,7.64A19.52,19.52,0,0,1,303,49.3a18.26,18.26,0,0,1-3.77,10.61q-3.75,5.31-12,7.21ZM302.47,49.3a15.32,15.32,0,0,0-.94-4.88,17.72,17.72,0,0,0-2.94-5.31,20.94,20.94,0,0,0-4.82-4.45,16.35,16.35,0,0,0-6.59-2.55,27.76,27.76,0,0,0-4.94-.53l-3.53-.11c-.31,0-1,0-2,.11s-1.92.1-2.7.1H269c-1.65,0-3.26.08-4.82.22q-2.11,0-4.24,2.33c-1.41,1.56-2.12,2.83-2.12,3.82V66.91H283a19.83,19.83,0,0,0,7.29-1.38,21.23,21.23,0,0,0,6.23-3.71,17.91,17.91,0,0,0,4.36-5.63A15.13,15.13,0,0,0,302.47,49.3Z"/><path class="cls-2" d="M394.71,37a7.09,7.09,0,0,0-2.84-3.71,7.37,7.37,0,0,0-4.26-1.81h-43V64.15h26.49a5.36,5.36,0,0,0,2.25-.63,13.58,13.58,0,0,0,2.48-1.6,8.85,8.85,0,0,0,1.89-2,2.31,2.31,0,0,0,.47-1.91v6.58H350.72A8.91,8.91,0,0,0,347.05,66c-1.65.92-2.48,1.94-2.48,3.07V98.1h43a5.85,5.85,0,0,0,2-.53,11.73,11.73,0,0,0,2.49-1.38,6.81,6.81,0,0,0,1.89-2,4.66,4.66,0,0,0,.71-2.44v6.79H335.82V31.05h58.89Z"/><path class="cls-2" d="M480.33,81.13q0,6.15-5.56,11a25.73,25.73,0,0,1-14.31,5.94,3,3,0,0,0-1.06.22,3.26,3.26,0,0,1-1.07.21H437.28a3.2,3.2,0,0,1-1.06-.21,3,3,0,0,0-1.07-.22,26.9,26.9,0,0,1-4.73-.95,26.46,26.46,0,0,1-5.2-2.12,27.06,27.06,0,0,1-4.85-3.29,16,16,0,0,1-3.66-4.46,7.63,7.63,0,0,1-.95-2.33,12,12,0,0,1-.47-2.12V80.92h.23l.24.21a21.42,21.42,0,0,0,1.65,5.94q1.43,3,5.68,5.84a25.49,25.49,0,0,0,7.57,3.71,26.36,26.36,0,0,0,3.08.85,15.68,15.68,0,0,0,2.36.42h19.63a1,1,0,0,0,.71-.21,1,1,0,0,1,.71-.21,7.93,7.93,0,0,0,3.66-1.06,22.73,22.73,0,0,0,3.91-2.66A23.46,23.46,0,0,0,468,90.36a10.35,10.35,0,0,0,1.89-3.5,20,20,0,0,0,.83-3.29,20.76,20.76,0,0,0,.35-2.44,18.69,18.69,0,0,0-.35-2.34,30.11,30.11,0,0,0-.83-3.39,1,1,0,0,0-.24-.53,1.19,1.19,0,0,1-.23-.75,3.28,3.28,0,0,1-.59-.74c-.24-.35-.44-.67-.6-.95a7,7,0,0,0-2-2.65,31,31,0,0,0-3.43-2.66,18.05,18.05,0,0,0-3.9-2,9.77,9.77,0,0,0-3.19-.75H443.67a38.87,38.87,0,0,1-9-1.06,29.64,29.64,0,0,1-8.16-3.18,18.73,18.73,0,0,1-5.91-5.2,12.06,12.06,0,0,1-2.25-7.32,13,13,0,0,1,5-10.19,27,27,0,0,1,12.53-5.73,25.12,25.12,0,0,1,5.44-.63h5.21q3.06,0,6.74.21a35.55,35.55,0,0,1,7.45,1.27,23.05,23.05,0,0,1,7.09,3.4,19,19,0,0,1,5.68,6.79,3.49,3.49,0,0,1,.59,1.7,12,12,0,0,0,.36,1.91h-.95a7,7,0,0,0-.71-3.4,21.19,21.19,0,0,0-5.32-6.26,22.43,22.43,0,0,0-6-3.29A28.36,28.36,0,0,0,455.14,32q-3.19-.32-6.27-.32h-2.95a17.22,17.22,0,0,0-4.15.43c-4.72,1.13-8.12,3.22-10.16,6.26a16.38,16.38,0,0,0-3.08,9.23q0,3.61,2.72,8.38a14.69,14.69,0,0,0,8.87,6.69c.31.14.79.31,1.42.53a5,5,0,0,0,1.42.32h12.53a32.37,32.37,0,0,1,7.81,1.06,32.87,32.87,0,0,1,8,3.18,21,21,0,0,1,6.39,5.52A12.57,12.57,0,0,1,480.33,81.13Z"/><path d="M234.75,123.84l2-3,.48.17a1.52,1.52,0,0,0-.18.53c0,.23.43.5,1.3.82a14.86,14.86,0,0,0,5.09.89,9.3,9.3,0,0,0,3.39-.54,2.83,2.83,0,0,0,1.74-1.5,9.14,9.14,0,0,0,.22-2.64v-8.77a.93.93,0,0,0-.22-.71,1.62,1.62,0,0,0-.85-.31v-.38h4.75v.38a1.89,1.89,0,0,0-.85.32,1,1,0,0,0-.21.7V119a12,12,0,0,1-.14,2.19,3.17,3.17,0,0,1-.6,1.26,5.74,5.74,0,0,1-3.06,1.87,14,14,0,0,1-4.17.56,18.1,18.1,0,0,1-3-.21,33,33,0,0,1-3.63-.9,3.24,3.24,0,0,0-.76-.17,1.56,1.56,0,0,0-.8.44Z"/><path d="M260.66,117v6h14.57a2.31,2.31,0,0,0,1-.16,1,1,0,0,0,.44-.6h.53v3.06h-.53a1,1,0,0,0-.46-.61,2.31,2.31,0,0,0-1-.15H257v-.38a1.84,1.84,0,0,0,.86-.32,1,1,0,0,0,.2-.7V109.78a.94.94,0,0,0-.21-.7,1.78,1.78,0,0,0-.85-.32v-.38h18a2.23,2.23,0,0,0,1-.15,1.1,1.1,0,0,0,.45-.61H277v3.06h-.54a.92.92,0,0,0-.44-.6,2.14,2.14,0,0,0-1-.16H260.66v5.55h9.41a2.37,2.37,0,0,0,1-.15,1,1,0,0,0,.44-.61H272v3.06h-.53a1,1,0,0,0-.44-.6,2.19,2.19,0,0,0-1-.16Z"/><path d="M297.2,110.8l-5.76,11.83a2.71,2.71,0,0,0-.34,1c0,.26.32.45.95.58v.38h-5.52v-.38c.63-.09,1-.28,1-.58a2.82,2.82,0,0,0-.37-1L281,110.71a6.34,6.34,0,0,0-1-1.53,2.1,2.1,0,0,0-1.14-.42v-.38h5.34v.38c-.67,0-1,.25-1,.6a4.32,4.32,0,0,0,.45,1.11l5.66,11.43L295,110.47a5.72,5.72,0,0,0,.48-1.17c0-.28-.31-.46-.95-.54v-.38h5.81v.38c-.63.11-.95.31-.95.6a4.64,4.64,0,0,0,.45,1.11l5.51,11.43,5.45-11.43a3.69,3.69,0,0,0,.41-1.13c0-.3-.32-.5-.94-.58v-.38h5v.38a2.32,2.32,0,0,0-1.19.45,5.45,5.45,0,0,0-.93,1.5l-5.81,11.92a3,3,0,0,0-.34.92c0,.31.32.53.95.64v.38h-5.43v-.38c.63-.11,1-.32,1-.65a2.77,2.77,0,0,0-.33-.81Z"/><path d="M321.31,117v6h14.57a2.28,2.28,0,0,0,1-.16,1,1,0,0,0,.44-.6h.54v3.06h-.54a1.07,1.07,0,0,0-.45-.61,2.37,2.37,0,0,0-1-.15H317.63v-.38a1.84,1.84,0,0,0,.86-.32,1,1,0,0,0,.2-.7V109.78a.94.94,0,0,0-.21-.7,1.78,1.78,0,0,0-.85-.32v-.38h18a2.31,2.31,0,0,0,1-.15,1.1,1.1,0,0,0,.45-.61h.53v3.06h-.53a1,1,0,0,0-.44-.6,2.21,2.21,0,0,0-1-.16H321.31v5.55h9.41a2.31,2.31,0,0,0,1-.15,1,1,0,0,0,.44-.61h.53v3.06h-.53a1,1,0,0,0-.44-.6,2.14,2.14,0,0,0-1-.16Z"/><path d="M345.86,123h14.52a2.28,2.28,0,0,0,1-.16,1,1,0,0,0,.44-.6h.54v3.06h-.54a1,1,0,0,0-.44-.61,2.31,2.31,0,0,0-1-.15h-18.2v-.38a1.84,1.84,0,0,0,.86-.32,1,1,0,0,0,.2-.7V109.78a.94.94,0,0,0-.21-.7,1.78,1.78,0,0,0-.85-.32v-.38h4.74v.38a1.78,1.78,0,0,0-.85.32.94.94,0,0,0-.21.7Z"/><path d="M369,117.28v5.89a.91.91,0,0,0,.22.69,1.68,1.68,0,0,0,.85.33v.38h-4.75v-.38a1.89,1.89,0,0,0,.85-.32,1,1,0,0,0,.21-.7V109.78a1,1,0,0,0-.21-.71,1.69,1.69,0,0,0-.85-.31v-.38h12.47a33.24,33.24,0,0,1,4.06.19,9.22,9.22,0,0,1,2.59.69,4.78,4.78,0,0,1,1.83,1.36,3.46,3.46,0,0,1,.8,2.22,3.53,3.53,0,0,1-1.73,3,9.22,9.22,0,0,1-4.73,1.33l5.78,6.4a1.88,1.88,0,0,0,1.49.59v.38h-5.26v-.38c.55-.07.82-.18.82-.33a2.75,2.75,0,0,0-.59-.77l-5.16-5.81Zm0-1.54h9.21a25.36,25.36,0,0,0,2.84-.11,6.64,6.64,0,0,0,1.69-.41,2.44,2.44,0,0,0,1.71-2.38,2.47,2.47,0,0,0-1.76-2.4,6.93,6.93,0,0,0-1.74-.41c-.64-.07-1.63-.11-3-.11h-9Z"/><path d="M401.21,117.4v5.77a.91.91,0,0,0,.22.69,1.73,1.73,0,0,0,.85.33v.38h-4.75v-.38a1.84,1.84,0,0,0,.85-.32.92.92,0,0,0,.22-.7V117.4l-7.35-6.85a14.55,14.55,0,0,0-1.65-1.41,2.61,2.61,0,0,0-1.14-.38v-.38h5.77v.38c-.52.09-.79.25-.79.46s.27.64.79,1.15L400,116l5.75-5.79c.49-.49.74-.82.74-1s-.25-.34-.74-.42v-.38h5.37v.38a3,3,0,0,0-1.4.52,15,15,0,0,0-1.55,1.27Z"/></g></g></svg>