<?xml version="1.0" encoding="UTF-8"?>
<svg version="1.1" xmlns="http://www.w3.org/2000/svg" width="739" height="739">
<path d="M0 0 C2.22508592 -0.00960642 4.44920623 -0.04064066 6.67407227 -0.07226562 C19.65460201 -0.1691628 32.27829552 1.4138258 44.51196289 5.99023438 C45.21345459 6.24699951 45.91494629 6.50376465 46.63769531 6.76831055 C69.53284976 15.42198663 87.90635099 31.66694506 100.82446289 52.24023438 C103.73077574 49.4862174 105.97060912 46.68330175 108.19946289 43.36523438 C125.27967075 19.71814438 150.45063139 5.34895716 179.0871582 0.71191406 C198.61998401 -1.75329494 219.80518045 -0.67223686 238.82446289 4.24023438 C240.03634277 4.55299316 240.03634277 4.55299316 241.27270508 4.87207031 C248.68439162 6.83794761 255.81178918 9.1184635 262.82446289 12.24023438 C259.59139359 18.41882929 255.99209843 24.00021006 251.69946289 29.49023438 C251.13396729 30.22113281 250.56847168 30.95203125 249.98583984 31.70507812 C242.31817489 41.54923893 234.18013405 50.97477667 225.82446289 60.24023438 C227.17059838 63.27202652 228.64397186 65.24216523 231.06274414 67.49804688 C234.77663621 71.10922857 237.90784453 74.97657203 241.01196289 79.11523438 C241.56223145 79.84266846 242.1125 80.57010254 242.67944336 81.31958008 C246.67664009 86.63568067 250.59176114 92.00967419 254.44946289 97.42773438 C254.94599365 98.1217334 255.44252441 98.81573242 255.95410156 99.53076172 C258.60896475 103.3026633 260.87730807 107.03882313 262.82446289 111.24023438 C253.57882383 114.5540835 244.38754567 117.54616095 234.76196289 119.55273438 C234.00230225 119.71161133 233.2426416 119.87048828 232.45996094 120.03417969 C206.72215491 125.1552912 179.36792113 123.61862899 154.82446289 114.24023438 C155.09000977 115.26761719 155.35555664 116.295 155.62915039 117.35351562 C164.09210855 150.37305734 165.4836027 190.13807887 148.82446289 221.24023438 C145.38315953 219.97864836 142.58534533 218.54066855 139.63696289 216.36914062 C138.86223633 215.8003418 138.08750977 215.23154297 137.28930664 214.64550781 C136.4759082 214.03739258 135.66250977 213.42927734 134.82446289 212.80273438 C133.98012695 212.1752832 133.13579102 211.54783203 132.26586914 210.90136719 C121.22759101 202.6310591 110.95029365 193.59495979 100.82446289 184.24023438 C96.47325054 187.3395616 92.4053919 190.57945315 88.51196289 194.24023438 C58.95358726 221.24023438 58.95358726 221.24023438 49.82446289 221.24023438 C46.51061377 211.99459532 43.51853631 202.80331716 41.51196289 193.17773438 C41.35308594 192.41807373 41.19420898 191.65841309 41.03051758 190.87573242 C35.90025914 165.09195552 37.77192115 138.82164217 46.82446289 114.24023438 C46.3462207 114.48257813 45.86797852 114.72492188 45.37524414 114.97460938 C14.46369367 129.00079284 -24.01230206 123.5195941 -55.17553711 113.24023438 C-56.85235665 112.59953284 -58.52597189 111.94815867 -60.17553711 111.24023438 C-56.90457042 105.06103818 -53.30407594 99.31702194 -49.17553711 93.67773438 C-48.61664795 92.90977539 -48.05775879 92.14181641 -47.48193359 91.35058594 C-43.52506623 85.96274643 -39.4415075 80.68768605 -35.23803711 75.49023438 C-34.71918945 74.84755615 -34.2003418 74.20487793 -33.66577148 73.54272461 C-30.37619615 69.53395158 -26.89487279 65.85425355 -23.17553711 62.24023438 C-24.54705116 58.02190199 -26.373362 55.79360244 -29.61303711 52.80273438 C-38.6595135 44.00250878 -45.88734858 33.72966087 -53.30053711 23.55273438 C-53.8694165 22.77414063 -54.4382959 21.99554688 -55.02441406 21.19335938 C-55.55123779 20.46246094 -56.07806152 19.7315625 -56.62084961 18.97851562 C-57.32491943 18.00458862 -57.32491943 18.00458862 -58.04321289 17.01098633 C-59.17553711 15.24023438 -59.17553711 15.24023438 -60.17553711 12.24023438 C-40.97056177 4.12898935 -20.82690124 0.0541017 0 0 Z M-12.17553711 60.24023438 C-6.28711607 69.07286594 4.94120965 74.94581663 14.82446289 78.24023438 C19.68020295 78.75004529 23.64891664 78.77255721 28.13696289 76.74023438 C33.01154131 72.20574282 36.5564182 67.04729866 37.02368164 60.25195312 C36.40616358 54.01623153 32.45614988 49.17716831 27.82446289 45.24023438 C14.17570668 37.24797301 -2.53397297 51.45569816 -12.17553711 60.24023438 Z M170.31665039 49.00585938 C167.28496641 53.40613212 165.28772026 57.82018629 165.82446289 63.24023438 C167.92764198 69.86955327 172.07888966 74.40985222 177.82446289 78.24023438 C189.4627129 80.07672887 198.03062945 74.35776373 207.09106445 67.94580078 C210.20073973 65.66578195 212.72505693 63.49092747 214.82446289 60.24023438 C199.82297178 47.40446831 199.82297178 47.40446831 181.16821289 42.97070312 C176.47657053 43.510242 173.36236739 45.43937211 170.31665039 49.00585938 Z M85.38696289 132.92773438 C82.42856368 137.30616521 82.18266471 141.05299495 82.82446289 146.24023438 C85.66660298 156.31943362 91.98347818 167.28610182 100.82446289 173.24023438 C108.67106005 165.35189999 117.79854992 154.02283155 118.13696289 142.42773438 C118.0732075 137.55398906 117.12137768 134.97095375 113.82446289 131.24023438 C108.94194321 126.54893609 104.95992399 124.8159498 98.23852539 124.89257812 C92.80157756 125.67556899 88.97861924 128.96770301 85.38696289 132.92773438 Z " fill="#6E4D34" transform="translate(268.175537109375,207.759765625)"/>
<path d="M0 0 C0 4.10554296 -2.09337994 6.3201279 -4.4375 9.5 C-5.11921265 10.43658447 -5.11921265 10.43658447 -5.81469727 11.39208984 C-13.76666834 22.22424798 -22.49417149 32.49417149 -32 42 C-35.73161676 41.70623443 -37.85711639 39.67917573 -40.625 37.3125 C-50.05612427 29.58479465 -59.99775721 23.2030449 -72.578125 23.65234375 C-77.99083836 24.42933002 -82.20158647 26.79122875 -85.8125 30.875 C-86.534375 31.90625 -87.25625 32.9375 -88 34 C-88.598125 34.845625 -89.19625 35.69125 -89.8125 36.5625 C-92.00184592 42.90008029 -92.30859085 49.56610912 -89.8984375 55.890625 C-86.65757494 61.67911748 -82.58871754 66.59989918 -76.015625 68.60546875 C-65.19593552 70.72327619 -56.00535268 66.45945908 -46.90234375 60.98828125 C-43.21804593 58.4643141 -40.06709476 55.58326286 -36.9375 52.40625 C-35 51 -35 51 -33.0859375 50.9453125 C-30.00125827 52.50498177 -27.90577684 54.84147817 -25.625 57.375 C-24.85422119 58.22046387 -24.85422119 58.22046387 -24.06787109 59.08300781 C-14.72237507 69.57884791 -6.70462502 81.27057086 1 93 C-18.48904829 105.99269886 -53.58153215 104.61897117 -75.77294922 100.81787109 C-101.92940595 95.48139707 -124.79582052 80.47242508 -140.4375 58.8125 C-140.85064453 58.24257324 -141.26378906 57.67264648 -141.68945312 57.08544922 C-144.39117011 53.21931454 -146.61807416 49.53022306 -148 45 C-147.04296875 42.26171875 -147.04296875 42.26171875 -145.1875 39.6875 C-144.18396484 38.27404297 -144.18396484 38.27404297 -143.16015625 36.83203125 C-142.44730469 35.89746094 -141.73445313 34.96289062 -141 34 C-140.35933594 33.13761719 -139.71867187 32.27523437 -139.05859375 31.38671875 C-120.76557222 7.62426856 -96.5721669 -3.61276573 -67.67578125 -8.5703125 C-44.35890119 -11.29598392 -22.23486346 -6.57287057 0 0 Z " fill="#CA9431" transform="translate(521,222)"/>
<path d="M0 0 C8.54573356 7.4332712 18.33438639 18.00315916 22 29 C12.06751787 51.50436511 -8.88299319 68.39885335 -31 78 C-45.90931277 83.56259026 -59.84836009 85.26174486 -75.6875 85.3125 C-76.85576828 85.31642761 -76.85576828 85.31642761 -78.04763794 85.32043457 C-95.0772502 85.32656293 -111.04010045 83.21213481 -127 77 C-124.22640042 71.95178954 -121.18853049 67.30431873 -117.75 62.6875 C-117.26474854 62.03233398 -116.77949707 61.37716797 -116.27954102 60.70214844 C-109.31398242 51.34113688 -101.9319058 42.5495542 -94 34 C-90.04345434 34.56522081 -88.0515691 36.50087269 -85.125 39.125 C-75.9656343 46.8524433 -65.32861535 52.53493959 -53.14453125 52.40234375 C-47.17630797 51.63870773 -43.04103562 48.59901658 -39.37109375 43.92578125 C-34.97060201 37.14325695 -34.12230484 31.02891596 -35 23 C-37.46164964 15.90153616 -41.83941608 11.42700729 -48.25 7.6875 C-57.60733877 5.34816531 -65.52425085 7.76212542 -74 12 C-77.8534415 14.44990341 -81.42638222 17.16212706 -85 20 C-86.5594093 21.1707946 -88.1215825 22.33792438 -89.6875 23.5 C-90.79230911 24.33248141 -91.89675174 25.16545117 -93 26 C-102.79082857 16.53858248 -111.22574134 6.41870253 -119.4375 -4.4375 C-119.95820068 -5.12416748 -120.47890137 -5.81083496 -121.01538086 -6.51831055 C-121.50401611 -7.170979 -121.99265137 -7.82364746 -122.49609375 -8.49609375 C-123.14856079 -9.36512329 -123.14856079 -9.36512329 -123.81420898 -10.25170898 C-125.06684271 -12.09855068 -126.04571919 -13.98510028 -127 -16 C-119.77657192 -19.19718947 -112.67620916 -21.16713452 -104.9375 -22.6875 C-103.40125977 -23.00557617 -103.40125977 -23.00557617 -101.83398438 -23.33007812 C-65.82505521 -30.62389956 -28.27273912 -24.3833676 0 0 Z " fill="#CA9431" transform="translate(344,239)"/>
<path d="M0 0 C2.88644952 2.60769583 4.80981746 5.63394913 6.9375 8.875 C16.15339839 22.41073151 27.54041496 33.45166569 41.81640625 41.609375 C47.42222949 45.17945205 48.81015645 53.26346633 50.625 59.3125 C50.83125 59.99908691 51.0375 60.68567383 51.25 61.39306641 C54.12746328 71.41514023 55.36569622 81.07510589 55.3125 91.5 C55.30831055 92.63421387 55.30412109 93.76842773 55.29980469 94.93701172 C55.06810073 112.41094089 52.22899865 130.98119617 45 147 C32.88396976 141.42099073 22.11510562 131.03156152 12.33984375 122.12109375 C9.28056803 119.34782711 6.14939025 116.67013521 3 114 C4.2065625 112.453125 4.2065625 112.453125 5.4375 110.875 C18.31754543 93.98344369 18.31754543 93.98344369 22.515625 73.74609375 C21.32034137 67.38030291 17.8861514 62.53971543 12.9375 58.5 C11.968125 58.005 10.99875 57.51 10 57 C9.236875 56.5875 8.47375 56.175 7.6875 55.75 C0.92681133 53.86329619 -5.16857388 54.74607584 -11.5625 57.5234375 C-16.6624362 60.61282193 -21.10397117 65.3119135 -23 71 C-24.50948327 85.19494844 -17.10210683 97.03006802 -8.5625 107.75 C-7.38306045 109.17338436 -6.19864946 110.5927544 -5 112 C-9.9502346 122.9287788 -22.64214987 130.08731258 -32 137 C-32.69689941 137.51546387 -33.39379883 138.03092773 -34.11181641 138.56201172 C-36.04771815 139.98731531 -37.99022083 141.40279116 -39.9375 142.8125 C-40.52225098 143.23901855 -41.10700195 143.66553711 -41.70947266 144.10498047 C-45.7625 147 -45.7625 147 -48 147 C-54.07790678 129.58307346 -56.26776692 113.17259232 -56.375 94.75 C-56.38691879 93.67458954 -56.38691879 93.67458954 -56.39907837 92.57745361 C-56.51131848 79.38895745 -54.93441689 66.77549651 -50.125 54.375 C-49.89425781 53.72144531 -49.66351563 53.06789063 -49.42578125 52.39453125 C-46.92741666 45.78121322 -42.82484379 42.26662409 -36.875 38.75 C-20.82952802 28.75657852 -9.97624123 15.72849947 0 0 Z " fill="#CA9431" transform="translate(369,273)"/>
<path d="M0 0 C18.66257074 7.54260942 35.92718661 40.6042281 43.59375 58.3359375 C48.98157721 72.37422063 50.03924007 86.05546254 44 100 C36.61009847 112.65438891 26.4427524 120.52701173 12.5703125 125.140625 C-0.00383713 128.16722557 -11.6446586 125.72921712 -22.78125 119.42578125 C-33.09428147 112.59817246 -42.16538016 103.82764512 -45.3125 91.5625 C-48.33851648 74.43465912 -42.38821461 58.6576819 -34 44 C-33.63132812 43.34676758 -33.26265625 42.69353516 -32.8828125 42.02050781 C-23.9846949 26.45647281 -12.21880327 13.03526708 0 0 Z " fill="#CA9431" transform="translate(368,101)"/>
<path d="M0 0 C58.92960385 0 58.92960385 0 68.28125 8.94921875 C75.04550776 17.02020813 77.48816131 26.88356185 77.24609375 37.20703125 C76.44890681 46.25447029 72.72084426 55.67255943 65.9375 61.890625 C64.00275653 63.35590866 62.05158572 64.70518257 60 66 C59.01 66.66 58.02 67.32 57 68 C57.2630896 68.64479813 57.5261792 69.28959625 57.79724121 69.95393372 C60.27476318 76.02865788 62.74727888 82.10539219 65.21417999 88.18443775 C66.48263752 91.30971935 67.75302254 94.43418816 69.02783203 97.55688477 C70.492194 101.14663507 71.94987577 104.73903419 73.40625 108.33203125 C74.09527405 110.01496025 74.09527405 110.01496025 74.79821777 111.73188782 C75.21865356 112.77274033 75.63908936 113.81359283 76.07226562 114.88598633 C76.44532837 115.80309891 76.81839111 116.72021149 77.20275879 117.66511536 C78 120 78 120 78 123 C73.05 123 68.1 123 63 123 C60.98900415 118.20386217 58.98113268 113.40643118 56.97583008 108.60791016 C56.29694623 106.98452697 55.61729076 105.36146619 54.93676758 103.73876953 C50.10898851 92.22499887 45.48472404 80.65211785 41 69 C28.13 68.505 28.13 68.505 15 68 C15 86.15 15 104.3 15 123 C10.05 123 5.1 123 0 123 C0 82.41 0 41.82 0 0 Z M30 4.0625 C29.18708496 4.06354736 28.37416992 4.06459473 27.53662109 4.06567383 C23.11895899 4.21970637 23.11895899 4.21970637 19.36328125 6.32763672 C16.02317363 10.26231221 14.87408103 12.87689685 14.88647461 17.90869141 C14.88655014 18.92959869 14.88662567 19.95050598 14.88670349 21.00234985 C14.89186478 22.10759003 14.89702606 23.2128302 14.90234375 24.3515625 C14.9037587 25.4807309 14.90517365 26.60989929 14.90663147 27.77328491 C14.91224256 31.39054988 14.92479697 35.00775364 14.9375 38.625 C14.94251357 41.07291577 14.94707672 43.52083252 14.95117188 45.96875 C14.9622156 51.97918766 14.97896456 57.98958946 15 64 C19.98043609 64.07461471 24.96054089 64.12881987 29.94140625 64.16479492 C31.63287022 64.17980505 33.32429578 64.20021963 35.015625 64.22631836 C37.45843024 64.26304686 39.9007173 64.27980411 42.34375 64.29296875 C43.08991577 64.30845261 43.83608154 64.32393646 44.6048584 64.33988953 C52.28082411 64.34230477 58.7008767 62.04305751 64.3984375 56.80078125 C70.4316217 50.0171278 73.50743738 41.43004005 73.24609375 32.390625 C72.25595983 22.7721812 68.13390067 15.48676657 60.9375 9.125 C52.01804264 2.67262659 40.54792453 3.79844779 30 4.0625 Z " fill="#000000" transform="translate(267,448)"/>
<path d="M0 0 C27.72 0 55.44 0 84 0 C84 4.29 84 8.58 84 13 C80 12 80 12 78.5 9.5625 C78.005 8.716875 77.51 7.87125 77 7 C73.79314316 4.89653116 71.09793413 4.73138851 67.31347656 4.68115234 C66.17259583 4.66128265 65.03171509 4.64141296 63.85626221 4.62094116 C62.63010193 4.60938995 61.40394165 4.59783875 60.140625 4.5859375 C58.25135284 4.55688828 58.25135284 4.55688828 56.32391357 4.5272522 C52.9833905 4.47761586 49.64297675 4.43633723 46.30230713 4.39910889 C42.89023993 4.35902661 39.47833641 4.30805946 36.06640625 4.2578125 C29.37766676 4.16010724 22.68905646 4.08053997 16 4 C16 22.15 16 40.3 16 59 C24.476875 58.9071875 24.476875 58.9071875 33.125 58.8125 C34.89762207 58.80581299 36.67024414 58.79912598 38.49658203 58.79223633 C39.91702953 58.76576787 41.33744487 58.73748568 42.7578125 58.70703125 C43.48282959 58.71101929 44.20784668 58.71500732 44.95483398 58.71911621 C50.72225647 58.55907367 53.16444316 57.05126998 57 53 C57.93193963 49.44436091 57.93193963 49.44436091 57.875 45.6875 C57.91367187 44.43324219 57.95234375 43.17898438 57.9921875 41.88671875 C57.99476563 40.93410156 57.99734375 39.98148437 58 39 C58.99 39.495 58.99 39.495 60 40 C61.69897534 45.5688636 62.10243442 50.51031722 62.0546875 56.33203125 C62.04679199 57.58346924 62.03889648 58.83490723 62.03076172 60.12426758 C62.02061035 61.07325928 62.01045898 62.02225098 62 63 C60.77893555 63.01458252 59.55787109 63.02916504 58.29980469 63.04418945 C53.76711828 63.10218565 49.23492796 63.17941857 44.70263672 63.26245117 C42.74145564 63.29569428 40.78017902 63.32372815 38.81884766 63.34643555 C35.99860953 63.37999281 33.17924635 63.43230899 30.359375 63.48828125 C29.04510529 63.49786613 29.04510529 63.49786613 27.70428467 63.50764465 C26.88373596 63.52743881 26.06318726 63.54723297 25.21777344 63.56762695 C24.13855621 63.58428154 24.13855621 63.58428154 23.03753662 63.60127258 C20.30035769 64.13691365 18.95828574 65.0172762 17 67 C16.38437261 69.38843345 16.38437261 69.38843345 16.45410156 72.11401367 C16.42452362 73.67529243 16.42452362 73.67529243 16.39434814 75.26811218 C16.39311951 76.39006485 16.39189087 77.51201752 16.390625 78.66796875 C16.37408875 79.81791824 16.35755249 80.96786774 16.34051514 82.15266418 C16.2918718 85.83099623 16.27062713 89.50891438 16.25 93.1875 C16.22185412 95.67905747 16.19192866 98.17059551 16.16015625 100.66210938 C16.08610842 106.77466403 16.03456177 112.8871015 16 119 C23.47620052 118.96190846 30.95191395 118.90249739 38.42772198 118.81609726 C41.89934324 118.77663972 45.37071154 118.7444433 48.8425293 118.72900391 C52.83683778 118.71091939 56.83020143 118.66096158 60.82421875 118.609375 C62.68852791 118.60753204 62.68852791 118.60753204 64.59049988 118.60565186 C65.75132584 118.58593323 66.91215179 118.5662146 68.1081543 118.54589844 C69.63704536 118.53257477 69.63704536 118.53257477 71.19682312 118.51898193 C74.74615582 117.86185624 76.42604549 116.48554984 79 114 C80.33298974 111.38181544 80.33298974 111.38181544 81 109 C81.99 109 82.98 109 84 109 C84 113.62 84 118.24 84 123 C56.28 123 28.56 123 0 123 C0 82.41 0 41.82 0 0 Z " fill="#000000" transform="translate(385,448)"/>
<path d="M0 0 C1.10589478 0.01015137 1.10589478 0.01015137 2.23413086 0.02050781 C14.82603531 0.25589609 25.48541298 2.19129269 34.75 11.25 C39.31504934 17.2439983 42.21632927 23.55556696 41.75 31.25 C40.1 31.25 38.45 31.25 36.75 31.25 C36.54375 29.950625 36.3375 28.65125 36.125 27.3125 C34.61242552 20.72347693 31.73043231 15.49237573 26.2734375 11.38671875 C16.23006072 5.17997115 4.21878672 4.31241126 -7.2890625 6.9453125 C-13.07571354 9.62984133 -15.64881699 14.37203249 -18.15234375 20.0625 C-21.09227366 28.59980537 -20.80923365 35.96344444 -17.25 44.25 C-14.54644448 49.78130265 -11.77621269 53.24662354 -6.25 56.25 C-3.26332214 57.24555929 -1.21477999 57.38777992 1.90625 57.42578125 C2.92976562 57.44962891 3.95328125 57.47347656 5.0078125 57.49804688 C7.13782919 57.54039058 9.26809219 57.57197356 11.3984375 57.59179688 C23.08989644 57.90522127 34.2387971 61.51083376 42.53515625 70.09765625 C48.43952552 77.3947023 50.393017 84.95084947 50.0859375 94.26953125 C48.99251732 103.97045682 43.88274779 110.81284249 36.75 117.25 C29.64351654 122.18320616 21.20051982 123.55850734 12.69921875 123.5859375 C11.59003838 123.5959227 11.59003838 123.5959227 10.45845032 123.60610962 C8.90469827 123.61616269 7.35090368 123.62092894 5.79711914 123.62060547 C3.45319477 123.62497077 1.11116969 123.66134352 -1.23242188 123.69921875 C-14.72727439 123.8009826 -25.02524446 121.19436615 -34.96875 111.58984375 C-40.73330091 105.3873 -42.65338935 99.33602357 -42.35546875 90.9375 C-42.32066406 90.380625 -42.28585937 89.82375 -42.25 89.25 C-40.93 89.25 -39.61 89.25 -38.25 89.25 C-38.07984375 90.04664063 -37.9096875 90.84328125 -37.734375 91.6640625 C-35.47206811 101.55563838 -31.87723068 108.54195312 -23.25 114.25 C-15.32647089 118.54042355 -7.93517219 118.83279997 0.9375 118.6875 C2.16919922 118.69458984 3.40089844 118.70167969 4.66992188 118.70898438 C12.19527183 118.65624607 17.78988989 118.41212182 23.82421875 113.59375 C30.12520423 106.39262374 33.51833744 98.32356645 33.07421875 88.66015625 C32.52867754 84.60474753 31.35951306 81.00086522 29.75 77.25 C29.36714844 76.30640625 29.36714844 76.30640625 28.9765625 75.34375 C26.38723005 69.92753167 22.07004054 66.84167391 16.75 64.25 C13.08340893 63.49337488 9.54717193 63.453349 5.8125 63.5 C-7.24686753 63.44539637 -19.34789113 61.99786825 -29.68359375 53.171875 C-35.82390541 46.72736441 -38.30484953 40.59107826 -38.625 31.75 C-38.26782293 22.23850699 -35.38221575 16.38538464 -28.78125 9.484375 C-20.67945374 2.33278941 -10.58604559 -0.14201241 0 0 Z " fill="#000000" transform="translate(536.25,447.75)"/>
<path d="M0 0 C27.72 0 55.44 0 84 0 C84 4.29 84 8.58 84 13 C82.68 13 81.36 13 80 13 C78.59886384 11.04690112 77.26660533 9.04291182 76 7 C72.76162858 4.84108572 71.81847576 4.73882464 68.07299805 4.69360352 C66.57079964 4.66962242 66.57079964 4.66962242 65.03825378 4.64515686 C63.95699722 4.63979416 62.87574066 4.63443146 61.76171875 4.62890625 C60.64819534 4.61987778 59.53467194 4.6108493 58.3874054 4.60154724 C56.0295379 4.58703014 53.67162999 4.5781544 51.3137207 4.57446289 C47.71170822 4.56257986 44.11141576 4.51341675 40.50976562 4.46289062 C38.21875836 4.45342502 35.92774057 4.44619064 33.63671875 4.44140625 C32.56153488 4.42187393 31.48635101 4.40234161 30.37858582 4.38221741 C24.03994419 4.39758908 24.03994419 4.39758908 18.32299805 6.83447266 C14.89327996 11.50811688 15.14605797 15.5416418 15.1953125 21.20703125 C15.18160614 22.28756271 15.16789978 23.36809418 15.15377808 24.48136902 C15.11644963 27.92550178 15.12019522 31.3681935 15.125 34.8125 C15.10687539 37.15041319 15.08607345 39.48830727 15.0625 41.82617188 C15.01062242 47.55092258 14.99244368 53.27503585 15 59 C20.03618747 58.9805582 25.07063273 58.9287785 30.10620117 58.84741211 C31.81801859 58.82425975 33.5299779 58.80984285 35.24194336 58.80444336 C37.70776498 58.79513297 40.17136374 58.75410221 42.63671875 58.70703125 C43.77919319 58.71293022 43.77919319 58.71293022 44.94474792 58.71894836 C48.98369818 58.60881391 50.79211623 58.16989033 53.96020508 55.58081055 C56.92337236 51.83172122 57.21023198 49.60545632 57.5625 44.875 C57.64628906 43.77929688 57.73007813 42.68359375 57.81640625 41.5546875 C57.90728516 40.29011719 57.90728516 40.29011719 58 39 C62.0634983 45.09524745 61.18614719 51.60659221 61.18530273 58.73461914 C61.18748181 60.79529711 61.20563713 62.85543276 61.22460938 64.91601562 C61.22654297 66.22892578 61.22847656 67.54183594 61.23046875 68.89453125 C61.23457764 70.08925049 61.23868652 71.28396973 61.24291992 72.51489258 C60.97716174 76.32765438 60.16891934 79.37568407 59 83 C58.67 83 58.34 83 58 83 C57.97421875 82.20335937 57.9484375 81.40671875 57.921875 80.5859375 C57.58049213 74.20828473 57.31917091 69.84270678 53 65 C49.83508018 63.41754009 46.40957915 63.75833777 42.9296875 63.68359375 C42.22400635 63.66494263 41.5183252 63.6462915 40.79125977 63.6270752 C38.15263509 63.55872511 35.51380229 63.49860983 32.875 63.4375 C26.97625 63.293125 21.0775 63.14875 15 63 C15 82.8 15 102.6 15 123 C10.05 123 5.1 123 0 123 C0 82.41 0 41.82 0 0 Z " fill="#000000" transform="translate(153,448)"/>
<path d="M0 0 C18.66257074 7.54260942 35.92718661 40.6042281 43.59375 58.3359375 C48.98157721 72.37422063 50.03924007 86.05546254 44 100 C36.61009847 112.65438891 26.4427524 120.52701173 12.5703125 125.140625 C-0.00383713 128.16722557 -11.6446586 125.72921712 -22.78125 119.42578125 C-33.09428147 112.59817246 -42.16538016 103.82764512 -45.3125 91.5625 C-48.33851648 74.43465912 -42.38821461 58.6576819 -34 44 C-33.63132812 43.34676758 -33.26265625 42.69353516 -32.8828125 42.02050781 C-23.9846949 26.45647281 -12.21880327 13.03526708 0 0 Z M-2.36328125 11.2109375 C-3.3555463 12.25698154 -4.33786456 13.31251054 -5.3125 14.375 C-5.8394043 14.94935791 -6.36630859 15.52371582 -6.90917969 16.11547852 C-23.99941285 35.1871515 -40.89192028 59.29299984 -40.30078125 85.83203125 C-39.36666185 95.67061346 -34.17517087 102.48209669 -27 109 C-23.48136031 111.64783965 -19.85221581 113.87366712 -16 116 C-15.29488281 116.43441406 -14.58976562 116.86882812 -13.86328125 117.31640625 C-6.08379455 121.56919231 3.68753598 121.10977308 12.16015625 119.33984375 C18.78161103 117.18856941 23.84656697 113.6068568 29 109 C29.639375 108.4534375 30.27875 107.906875 30.9375 107.34375 C36.92458147 101.87279624 41.67909584 94.03572677 42.203125 85.8125 C42.5622564 56.60314634 22.81191632 31.78030592 4.03125 10.94921875 C1.07153655 8.10903219 0.62489208 8.41539022 -2.36328125 11.2109375 Z " fill="#6E4D34" transform="translate(368,101)"/>
<path d="M0 0 C2.97 0 5.94 0 9 0 C9.103125 0.83917969 9.20625 1.67835938 9.3125 2.54296875 C10.0758759 6.38153506 11.4159465 9.75958756 13 13.3125 C13.27328125 13.94478516 13.5465625 14.57707031 13.828125 15.22851562 C15.05785362 18.33875014 15.05785362 18.33875014 17 21 C18.17818551 18.44225544 19.34265655 15.87965758 20.5 13.3125 C20.83386719 12.59126953 21.16773438 11.87003906 21.51171875 11.12695312 C21.82753906 10.42119141 22.14335937 9.71542969 22.46875 8.98828125 C22.76201172 8.34415283 23.05527344 7.70002441 23.35742188 7.03637695 C24.25076953 4.56118545 24.25076953 4.56118545 24 0 C27.3 0 30.6 0 34 0 C34.061875 0.9075 34.12375 1.815 34.1875 2.75 C34.84534393 7.61405812 36.94970898 11.8820699 38.94140625 16.328125 C40 19 40 19 40 22 C40.66 22 41.32 22 42 22 C42.11214844 21.29875 42.22429687 20.5975 42.33984375 19.875 C43.31070886 15.64685373 45.16539588 11.88195362 46.94140625 7.9375 C47.98259747 5.04829042 48.21770301 3.03667784 48 0 C50.97 0 53.94 0 57 0 C56.46890625 1.02738281 55.9378125 2.05476562 55.390625 3.11328125 C49.25783176 14.68065471 49.25783176 14.68065471 45 27 C45.495 27.99 45.495 27.99 46 29 C42.7 29 39.4 29 36 29 C36.495 27.515 36.495 27.515 37 26 C36.40266044 23.93096353 36.40266044 23.93096353 35.34765625 21.76953125 C34.98349609 20.96708984 34.61933594 20.16464844 34.24414062 19.33789062 C33.85419922 18.50451172 33.46425781 17.67113281 33.0625 16.8125 C32.67642578 15.96751953 32.29035156 15.12253906 31.89257812 14.25195312 C30.93699299 12.16382265 29.97256217 10.08026396 29 8 C23.34695319 17.98272043 23.34695319 17.98272043 21 29 C18.03 29 15.06 29 12 29 C11.91878906 28.03707031 11.83757812 27.07414063 11.75390625 26.08203125 C11.06118891 21.23056644 9.0130761 17.08600064 6.9375 12.6875 C6.19343551 11.08871526 5.45239243 9.48851978 4.71484375 7.88671875 C4.38605225 7.18764404 4.05726074 6.48856934 3.71850586 5.76831055 C3 4 3 4 3 2 C2.01 1.67 1.02 1.34 0 1 C0 0.67 0 0.34 0 0 Z " fill="#000000" transform="translate(302,593)"/>
<path d="M0 0 C4.56237931 -0.08719631 9.12454386 -0.14045922 13.6875 -0.1875 C14.98107422 -0.21263672 16.27464844 -0.23777344 17.60742188 -0.26367188 C18.85458984 -0.27333984 20.10175781 -0.28300781 21.38671875 -0.29296875 C22.53358154 -0.3086792 23.68044434 -0.32438965 24.86206055 -0.34057617 C28.63731335 0.06917079 31.29642254 1.29642254 34 4 C34.375 7.3125 34.375 7.3125 34 11 C31.40444213 13.66570809 29.523188 14.825604 26 16 C27.28946305 17.79325326 28.58164352 19.58455278 29.875 21.375 C30.59429687 22.37273438 31.31359375 23.37046875 32.0546875 24.3984375 C33.8994658 26.99469894 33.8994658 26.99469894 36 29 C33.03 29 30.06 29 27 29 C26.79375 28.34 26.5875 27.68 26.375 27 C24.43360672 22.76423283 22.67772918 18.98118956 19 16 C14.85125995 15.00514907 11.31584932 15 7 15 C7.33 19.62 7.66 24.24 8 29 C5.36 29 2.72 29 0 29 C0.33 28.34 0.66 27.68 1 27 C1.09678195 25.13740392 1.13075842 23.27135769 1.1328125 21.40625 C1.13410156 20.29378906 1.13539063 19.18132813 1.13671875 18.03515625 C1.13285156 16.86855469 1.12898438 15.70195313 1.125 14.5 C1.12886719 13.33339844 1.13273437 12.16679688 1.13671875 10.96484375 C1.13478516 9.29615234 1.13478516 9.29615234 1.1328125 7.59375 C1.13168457 6.56958984 1.13055664 5.54542969 1.12939453 4.49023438 C1.16652296 1.99954711 1.16652296 1.99954711 0 0 Z M7 2 C7 5.63 7 9.26 7 13 C9.91691525 13.05401695 12.83282724 13.09368066 15.75 13.125 C16.575 13.14175781 17.4 13.15851562 18.25 13.17578125 C19.04921875 13.18222656 19.8484375 13.18867187 20.671875 13.1953125 C21.77160645 13.21102295 21.77160645 13.21102295 22.89355469 13.22705078 C25.33677098 12.96369993 26.91637289 12.28761555 29 11 C30.08568503 9.15732132 30.08568503 9.15732132 30 7 C28.2426201 3.92458518 27.42054006 3.14018002 24 2 C22.66474283 1.92026524 21.32587917 1.89228662 19.98828125 1.90234375 C19.23095703 1.90556641 18.47363281 1.90878906 17.69335938 1.91210938 C16.90767578 1.92048828 16.12199219 1.92886719 15.3125 1.9375 C14.51521484 1.94201172 13.71792969 1.94652344 12.89648438 1.95117188 C10.93095743 1.9629415 8.96546915 1.98087652 7 2 Z " fill="#000000" transform="translate(433,593)"/>
<path d="M0 0 C0 1.32 0 2.64 0 4 C-8.25 3.67 -16.5 3.34 -25 3 C-25 6.3 -25 9.6 -25 13 C-16.585 12.505 -16.585 12.505 -8 12 C-8 13.32 -8 14.64 -8 16 C-13.61 15.67 -19.22 15.34 -25 15 C-25 19.29 -25 23.58 -25 28 C-12.625 27.505 -12.625 27.505 0 27 C0 28.32 0 29.64 0 31 C-10.56 30.67 -21.12 30.34 -32 30 C-31.67 29.34 -31.34 28.68 -31 28 C-30.90321805 26.13740392 -30.86924158 24.27135769 -30.8671875 22.40625 C-30.86589844 21.29378906 -30.86460937 20.18132813 -30.86328125 19.03515625 C-30.86714844 17.86855469 -30.87101562 16.70195313 -30.875 15.5 C-30.87113281 14.33339844 -30.86726563 13.16679688 -30.86328125 11.96484375 C-30.86521484 10.29615234 -30.86521484 10.29615234 -30.8671875 8.59375 C-30.86831543 7.56958984 -30.86944336 6.54542969 -30.87060547 5.49023438 C-30.83347704 2.99954711 -30.83347704 2.99954711 -32 1 C-27.92490906 0.85692089 -23.84979494 0.71452295 -19.7746582 0.57275391 C-18.38858396 0.5244383 -17.00251618 0.47593715 -15.61645508 0.42724609 C-13.62322675 0.35725814 -11.62997304 0.28799457 -9.63671875 0.21875 C-8.43748779 0.17685547 -7.23825684 0.13496094 -6.00268555 0.09179688 C-4.0024909 0.03064774 -2.00112914 0 0 0 Z " fill="#000000" transform="translate(393,592)"/>
<path d="M0 0 C0 1.32 0 2.64 0 4 C-8.25 3.67 -16.5 3.34 -25 3 C-25 6.3 -25 9.6 -25 13 C-16.585 12.505 -16.585 12.505 -8 12 C-8 13.32 -8 14.64 -8 16 C-13.61 15.67 -19.22 15.34 -25 15 C-25 19.29 -25 23.58 -25 28 C-12.625 27.505 -12.625 27.505 0 27 C0 28.32 0 29.64 0 31 C-10.56 30.67 -21.12 30.34 -32 30 C-31.67 29.34 -31.34 28.68 -31 28 C-30.90321805 26.13740392 -30.86924158 24.27135769 -30.8671875 22.40625 C-30.86589844 21.29378906 -30.86460937 20.18132813 -30.86328125 19.03515625 C-30.86714844 17.86855469 -30.87101562 16.70195313 -30.875 15.5 C-30.87113281 14.33339844 -30.86726563 13.16679688 -30.86328125 11.96484375 C-30.86521484 10.29615234 -30.86521484 10.29615234 -30.8671875 8.59375 C-30.86831543 7.56958984 -30.86944336 6.54542969 -30.87060547 5.49023438 C-30.83347704 2.99954711 -30.83347704 2.99954711 -32 1 C-27.92490906 0.85692089 -23.84979494 0.71452295 -19.7746582 0.57275391 C-18.38858396 0.5244383 -17.00251618 0.47593715 -15.61645508 0.42724609 C-13.62322675 0.35725814 -11.62997304 0.28799457 -9.63671875 0.21875 C-8.43748779 0.17685547 -7.23825684 0.13496094 -6.00268555 0.09179688 C-4.0024909 0.03064774 -2.00112914 0 0 0 Z " fill="#000000" transform="translate(300,592)"/>
<path d="M0 0 C3.3 0 6.6 0 10 0 C10.33 1.32 10.66 2.64 11 4 C12.61477029 6.18967637 12.61477029 6.18967637 14.5625 8.25 C15.20316406 8.95640625 15.84382813 9.6628125 16.50390625 10.390625 C16.99761719 10.92171875 17.49132812 11.4528125 18 12 C23.56159978 6.70120454 23.56159978 6.70120454 27 0 C29.97 0 32.94 0 36 0 C35.27425781 0.721875 34.54851562 1.44375 33.80078125 2.1875 C32.87652344 3.115625 31.95226562 4.04375 31 5 C30.18917969 5.804375 29.37835938 6.60875 28.54296875 7.4375 C23.78853146 12.60982316 21.40618239 16.00793878 21.4375 23.1875 C21.5798798 25.12883729 21.75138416 27.0693906 22 29 C19.36 29 16.72 29 14 29 C14.33 28.34 14.66 27.68 15 27 C15.71223578 23.50601313 15.76426968 20.49032716 15 17 C12.43000063 13.20253825 9.32725837 10.13776627 6 7 C4.99766629 6.00233917 3.99705451 5.00293684 3 4 C2.34 3.34 1.68 2.68 1 2 C0.67 1.34 0.34 0.68 0 0 Z " fill="#000000" transform="translate(469,593)"/>
<path d="M0 0 C2.64 0 5.28 0 8 0 C7.67 8.91 7.34 17.82 7 27 C19.375 26.505 19.375 26.505 32 26 C32 27.32 32 28.64 32 30 C21.44 29.67 10.88 29.34 0 29 C0.33 28.34 0.66 27.68 1 27 C1.09678195 25.13740392 1.13075842 23.27135769 1.1328125 21.40625 C1.13410156 20.29378906 1.13539063 19.18132813 1.13671875 18.03515625 C1.13285156 16.86855469 1.12898438 15.70195313 1.125 14.5 C1.12886719 13.33339844 1.13273437 12.16679688 1.13671875 10.96484375 C1.13478516 9.29615234 1.13478516 9.29615234 1.1328125 7.59375 C1.13168457 6.56958984 1.13055664 5.54542969 1.12939453 4.49023438 C1.16652296 1.99954711 1.16652296 1.99954711 0 0 Z " fill="#000000" transform="translate(398,593)"/>
<path d="M0 0 C2.97 0 5.94 0 9 0 C8.67 0.66 8.34 1.32 8 2 C7.89443503 3.69303684 7.84469573 5.38973633 7.82421875 7.0859375 C7.80037109 8.09914063 7.77652344 9.11234375 7.75195312 10.15625 C7.70914482 12.29407064 7.67780728 14.43215317 7.65820312 16.5703125 C7.63048828 17.58609375 7.60277344 18.601875 7.57421875 19.6484375 C7.55963623 20.57833496 7.54505371 21.50823242 7.5300293 22.46630859 C6.84471924 25.74228639 5.57944692 26.92836432 3 29 C-0.3133541 30.10445137 -2.82695195 30.13304048 -6.3125 30.125 C-7.97732422 30.12886719 -7.97732422 30.12886719 -9.67578125 30.1328125 C-12.86801125 30.00527335 -15.86508827 29.59757773 -19 29 C-18.34 27.35 -17.68 25.7 -17 24 C-16.443125 24.22816406 -15.88625 24.45632813 -15.3125 24.69140625 C-9.67420712 26.81529022 -5.905211 27.26540236 0 26 C1.68023 24.31977 1.13006804 22.24224072 1.1328125 19.94140625 C1.13410156 18.91595703 1.13539063 17.89050781 1.13671875 16.83398438 C1.13285156 15.75439453 1.12898438 14.67480469 1.125 13.5625 C1.12886719 12.48677734 1.13273437 11.41105469 1.13671875 10.30273438 C1.13542969 9.27599609 1.13414062 8.24925781 1.1328125 7.19140625 C1.13168457 6.24467041 1.13055664 5.29793457 1.12939453 4.32250977 C1.15264716 1.97465527 1.15264716 1.97465527 0 0 Z " fill="#000000" transform="translate(254,593)"/>
</svg>
