<?xml version="1.0" encoding="UTF-8"?>
<svg version="1.1" xmlns="http://www.w3.org/2000/svg" width="624" height="636">
<path d="M0 0 C16.46505719 14.67187866 30.10853302 32.19651337 41.44921875 51.09765625 C42.06667969 50.1540625 42.68414062 49.21046875 43.3203125 48.23828125 C57.42745293 26.79666379 73.05670481 6.91441804 93.44921875 -8.90234375 C93.9807959 -9.3209668 94.51237305 -9.73958984 95.06005859 -10.17089844 C143.91601618 -48.43312589 206.41964602 -59.08364099 266.98120117 -52.31298828 C296.87006019 -48.62137981 325.50450462 -41.06270204 353.44921875 -29.90234375 C352.19368194 -26.50557563 350.76830779 -23.66440024 348.68359375 -20.70703125 C348.13058594 -19.91852783 347.57757812 -19.13002441 347.0078125 -18.31762695 C346.41097656 -17.4793335 345.81414063 -16.64104004 345.19921875 -15.77734375 C344.57660156 -14.89715576 343.95398438 -14.01696777 343.3125 -13.11010742 C341.36628004 -10.3682183 339.40985769 -7.63393746 337.44921875 -4.90234375 C336.85431641 -4.07202637 336.25941406 -3.24170898 335.64648438 -2.38623047 C327.3484879 9.15244492 318.61961962 20.24195752 309.44921875 31.09765625 C308.68013184 32.01538818 308.68013184 32.01538818 307.89550781 32.95166016 C299.16713171 43.36381213 290.09359817 53.52123278 280.44921875 63.09765625 C281.91502253 66.52809756 283.81052575 68.61141153 286.51171875 71.16015625 C290.69464742 75.24253375 294.38988523 79.54902443 298.015625 84.12890625 C300.04568375 86.60538242 302.13136068 88.97712353 304.27734375 91.3515625 C308.3350228 95.89280404 312.01804461 100.64053624 315.63671875 105.53515625 C316.28108887 106.40132568 316.92545898 107.26749512 317.58935547 108.15991211 C319.54929431 110.80099346 321.50111535 113.4478355 323.44921875 116.09765625 C324.02397949 116.87915039 324.59874023 117.66064453 325.19091797 118.46582031 C331.43323421 126.97857031 337.5311487 135.58652956 343.51171875 144.28515625 C344.04812988 145.06318604 344.58454102 145.84121582 345.13720703 146.64282227 C348.12887238 151.02466491 350.88382704 155.45288229 353.44921875 160.09765625 C319.70433594 178.13233234 275.53969351 183.31508485 237.82421875 183.34765625 C237.1112262 183.34833099 236.39823364 183.34900574 235.66363525 183.34970093 C203.70615592 183.30223098 171.80339742 178.11765485 142.44921875 165.09765625 C143.89618079 169.97069222 145.3551828 174.83722186 146.9140625 179.67578125 C150.83551575 192.0018485 153.55574034 204.30484276 155.44921875 217.09765625 C155.5678125 217.88479004 155.68640625 218.67192383 155.80859375 219.48291016 C163.1971934 271.06017352 153.39410576 326.41691075 133.44921875 374.09765625 C130.32242979 373.48046398 128.18843572 372.45071496 125.5703125 370.6484375 C124.82370361 370.13732422 124.07709473 369.62621094 123.30786133 369.09960938 C122.50888428 368.54208984 121.70990723 367.98457031 120.88671875 367.41015625 C120.04971436 366.83072266 119.21270996 366.25128906 118.3503418 365.65429688 C90.66355492 346.38042187 64.06588034 325.25106015 40.44921875 301.09765625 C36.19279453 302.72843083 33.46649463 305.94314683 30.38671875 309.16015625 C24.72650925 314.93836928 18.79721818 320.07908079 12.44921875 325.09765625 C11.24386425 326.08974534 10.040886 327.08472601 8.83984375 328.08203125 C-0.9782715 336.21260011 -11.13153805 343.75774159 -21.55078125 351.09765625 C-22.38754395 351.68756348 -23.22430664 352.2774707 -24.08642578 352.88525391 C-29.13832149 356.44184175 -34.20350356 359.97883626 -39.27539062 363.50683594 C-41.39148135 364.98628306 -43.49655922 366.47983539 -45.59765625 367.98046875 C-46.19924561 368.40682617 -46.80083496 368.83318359 -47.4206543 369.27246094 C-48.98907252 370.38458325 -50.55331447 371.50258898 -52.1171875 372.62109375 C-54.55078125 374.09765625 -54.55078125 374.09765625 -57.55078125 374.09765625 C-84.06520426 306.41473625 -86.67415777 235.78692605 -63.55078125 167.09765625 C-64.15736572 167.31381592 -64.7639502 167.52997559 -65.38891602 167.75268555 C-132.16953056 191.33226107 -203.92459037 186.83188366 -269.55078125 161.09765625 C-269.55078125 157.39551012 -268.63453382 156.38346818 -266.55078125 153.34765625 C-265.46023438 151.754375 -265.46023438 151.754375 -264.34765625 150.12890625 C-263.91646484 149.50757813 -263.48527344 148.88625 -263.04101562 148.24609375 C-261.31245309 145.75406388 -259.59620769 143.25370895 -257.87890625 140.75390625 C-250.01479694 129.34314396 -242.0104724 118.07472296 -233.55078125 107.09765625 C-233.09396973 106.50194824 -232.6371582 105.90624023 -232.16650391 105.29248047 C-224.25714255 94.99993685 -216.07843095 84.87756879 -207.125 75.46875 C-206.56868896 74.8816626 -206.01237793 74.2945752 -205.43920898 73.68969727 C-204.37125622 72.57050314 -203.29429936 71.45981133 -202.20727539 70.35913086 C-198.90691993 66.91496379 -198.90691993 66.91496379 -198.55078125 62.09765625 C-200.05408424 60.1456887 -200.05408424 60.1456887 -202.11328125 58.34765625 C-205.49987642 55.1271288 -208.61053513 51.81762628 -211.65234375 48.2734375 C-213.8182313 45.79113427 -216.05955082 43.3871048 -218.30078125 40.97265625 C-223.04752767 35.76700988 -227.39924343 30.32471039 -231.70703125 24.75390625 C-233.59514318 22.31292176 -235.51024272 19.89835204 -237.45703125 17.50390625 C-245.20838613 7.96939388 -252.46994983 -1.86110382 -259.55078125 -11.90234375 C-260.09283203 -12.66949707 -260.63488281 -13.43665039 -261.19335938 -14.22705078 C-262.75721199 -16.44721339 -264.31236029 -18.67313303 -265.86328125 -20.90234375 C-266.33773682 -21.579021 -266.81219238 -22.25569824 -267.30102539 -22.95288086 C-270.55078125 -27.66798562 -270.55078125 -27.66798562 -270.55078125 -29.90234375 C-179.85299956 -64.0700354 -76.51409754 -67.12022477 0 0 Z M-179.55078125 64.09765625 C-163.05290804 80.24586355 -140.33622624 98.40344375 -116.23828125 99.34765625 C-108.03107811 99.2117754 -101.43608698 95.70922683 -95.55078125 90.09765625 C-88.47857017 81.88976163 -82.64183163 72.84351983 -83.16796875 61.671875 C-84.84651313 50.38452046 -90.76999624 41.794283 -99.4296875 34.640625 C-124.77002147 16.20704873 -161.88612539 45.94457673 -179.55078125 64.09765625 Z M174.44921875 42.09765625 C168.6450095 49.96451838 165.21924354 58.22631671 166.44921875 68.09765625 C168.95529707 78.78814225 175.22342241 88.74736166 184.3828125 94.94921875 C193.56760392 100.05380982 202.09717054 99.94044194 212.04296875 97.265625 C229.17625561 91.39079384 243.50030407 80.32081871 257.44921875 69.09765625 C259.94921875 67.09765625 259.94921875 67.09765625 262.44921875 65.09765625 C258.3863823 52.9091469 232.63833997 39.71575639 221.44921875 34.09765625 C203.44412718 26.46480859 188.15112767 26.97830848 174.44921875 42.09765625 Z M13.16015625 200.234375 C7.42679819 206.20749167 4.51756552 211.99233489 4.01171875 220.28515625 C5.09877164 244.49298794 23.27552241 265.73156272 38.44921875 283.09765625 C53.31840443 277.20417491 65.36700273 250.90190144 71.44921875 237.09765625 C75.07045324 228.31371582 76.12687447 219.01943598 72.94921875 209.91015625 C68.75597601 200.77592469 61.57531153 194.16528617 52.44921875 190.09765625 C37.01130305 185.17542226 24.97756698 189.20344723 13.16015625 200.234375 Z " fill="#6D4D34" transform="translate(270.55078125,260.90234375)"/>
<path d="M0 0 C0.9783783 -0.00367584 1.95675659 -0.00735168 2.96478271 -0.01113892 C20.48555991 -0.04545596 37.54714508 1.17894385 54.75 4.625 C56.4043103 4.9509314 56.4043103 4.9509314 58.09204102 5.28344727 C67.43712103 7.17151403 76.58112602 9.49927736 85.6875 12.3125 C86.97599854 12.71033691 86.97599854 12.71033691 88.29052734 13.11621094 C93.7666885 14.81614971 99.23053103 16.55199227 104.6875 18.3125 C93.65321469 42.34528895 71.40125354 64.90464587 53.6875 84.3125 C52.74437649 85.36030353 51.80168959 86.40850018 50.859375 87.45703125 C49.88563987 88.53405601 48.91168461 89.61088178 47.9375 90.6875 C46.61492187 92.15316406 46.61492187 92.15316406 45.265625 93.6484375 C42.87383791 96.11995083 40.42365543 98.23577772 37.6875 100.3125 C36.87410156 99.58546875 36.06070313 98.8584375 35.22265625 98.109375 C14.78524992 80.07636942 -8.91655145 61.83311506 -37.45703125 62.99609375 C-48.42974073 63.89658967 -57.16535351 69.41649186 -64.68359375 77.3359375 C-73.63061962 88.19252045 -76.55800374 99.40283477 -75.56689453 113.26904297 C-74.92205401 118.44880803 -72.82232186 122.80117464 -70.3125 127.3125 C-69.79300781 128.26898438 -69.27351563 129.22546875 -68.73828125 130.2109375 C-63.04072949 139.9060722 -55.35194661 147.32607529 -44.55078125 150.89453125 C-24.87481185 154.56875241 -5.78723794 146.57047334 10.2421875 135.734375 C19.78103774 129.10942537 28.75508881 121.72335818 37.6875 114.3125 C42.48304996 118.26520115 46.86724995 122.41776268 51.0625 127 C51.91146851 127.92280762 51.91146851 127.92280762 52.77758789 128.86425781 C57.6320266 134.18007164 62.23379879 139.65586984 66.6875 145.3125 C67.19893555 145.95670898 67.71037109 146.60091797 68.23730469 147.26464844 C76.22063293 157.33018347 83.84425476 167.58332728 91.16699219 178.13769531 C92.79495105 180.46618882 94.44558578 182.77729464 96.1015625 185.0859375 C96.65956543 185.86638428 97.21756836 186.64683105 97.79248047 187.45092773 C98.86895056 188.95539773 99.94858302 190.45761126 101.03173828 191.95727539 C104.6875 197.08824449 104.6875 197.08824449 104.6875 199.3125 C97.39417455 201.38185024 90.09534171 203.43044798 82.7890625 205.45361328 C80.97062597 205.95717592 79.15268051 206.4625293 77.3359375 206.97216797 C54.46537354 213.34565601 31.19345312 215.49974624 7.54492188 215.49780273 C4.58969507 215.49997996 1.63484817 215.51816604 -1.3203125 215.53710938 C-16.99815477 215.5847599 -32.28686267 214.58600827 -47.625 211.125 C-48.58809082 210.90851807 -49.55118164 210.69203613 -50.54345703 210.46899414 C-75.00747084 204.76632884 -98.81310735 194.97786184 -119.3125 180.3125 C-120.34117187 179.58546875 -121.36984375 178.8584375 -122.4296875 178.109375 C-128.56343458 173.6456303 -134.23102865 168.82369746 -139.78125 163.65625 C-141.99732777 161.60432614 -144.25755634 159.63783694 -146.5625 157.6875 C-150.55231403 154.19641272 -153.94171014 150.39771546 -157.3125 146.3125 C-157.73515137 145.81282715 -158.15780273 145.3131543 -158.59326172 144.79833984 C-167.19850613 134.60563301 -174.53413557 123.79751979 -181.3125 112.3125 C-182.28509766 110.73662109 -182.28509766 110.73662109 -183.27734375 109.12890625 C-184.3125 106.3125 -184.3125 106.3125 -183.90234375 103.56640625 C-181.60399411 98.862413 -178.80266849 94.58428383 -175.875 90.25 C-175.24827393 89.31696045 -174.62154785 88.3839209 -173.97583008 87.42260742 C-168.87270465 79.92907402 -163.38127428 73.03352572 -157.3125 66.3125 C-156.56742187 65.44753906 -155.82234375 64.58257812 -155.0546875 63.69140625 C-123.4850733 27.42595338 -75.23110494 4.33004318 -27.44091797 0.53515625 C-18.30877758 -0.0216781 -9.14556632 0.01651154 0 0 Z " fill="#CA9431" transform="translate(503.3125,217.6875)"/>
<path d="M0 0 C1.05832031 -0.00012085 2.11664063 -0.0002417 3.20703125 -0.00036621 C19.7272314 0.02647662 35.49626972 0.87959177 51.6875 4.375 C52.43580078 4.52453125 53.18410156 4.6740625 53.95507812 4.828125 C58.61143719 5.76722263 63.15069447 6.98075198 67.6875 8.375 C68.51040527 8.62169434 69.33331055 8.86838867 70.18115234 9.12255859 C119.32599559 24.13829937 158.41626939 57.42870893 184.421875 101.3515625 C185.87105579 104.8134944 185.68588758 105.85090567 184.6875 109.375 C183.61523438 111.49633789 183.61523438 111.49633789 182.28125 113.59765625 C181.78955322 114.3772168 181.29785645 115.15677734 180.79125977 115.95996094 C179.99739868 117.18634277 179.99739868 117.18634277 179.1875 118.4375 C178.36946899 119.71222168 178.36946899 119.71222168 177.53491211 121.01269531 C165.15659742 140.12779198 150.53910022 157.20963931 132.6875 171.375 C131.67429688 172.19355469 130.66109375 173.01210938 129.6171875 173.85546875 C104.77334332 193.69507492 74.74456351 206.26705522 43.6875 212.375 C42.84590332 212.54161133 42.00430664 212.70822266 41.13720703 212.87988281 C26.44906467 215.60796309 11.70053069 215.66005425 -3.1875 215.6875 C-4.6257312 215.69301376 -4.6257312 215.69301376 -6.09301758 215.69863892 C-18.63642764 215.72371823 -30.88324424 215.06144202 -43.3125 213.375 C-44.07636017 213.27473511 -44.84022034 213.17447021 -45.62722778 213.07116699 C-56.19530087 211.67968404 -66.46310201 209.50009828 -76.8125 206.9375 C-77.98151855 206.64915283 -79.15053711 206.36080566 -80.35498047 206.0637207 C-87.51611265 204.24052523 -94.42346716 202.04894083 -101.3125 199.375 C-101.3125 195.26635862 -101.15335854 194.64435453 -98.9609375 191.49609375 C-98.44644043 190.74932373 -97.93194336 190.00255371 -97.40185547 189.2331543 C-96.83611816 188.43433838 -96.27038086 187.63552246 -95.6875 186.8125 C-95.10500488 185.9769458 -94.52250977 185.1413916 -93.92236328 184.28051758 C-78.71318074 162.58357292 -62.62647739 141.74591389 -44.8125 122.125 C-44.07398804 121.30116821 -44.07398804 121.30116821 -43.32055664 120.46069336 C-40.86329412 117.78710011 -38.73092148 115.69721963 -35.3125 114.375 C-34.64347656 115.02984375 -33.97445312 115.6846875 -33.28515625 116.359375 C-13.57016944 135.24823665 11.06721337 152.12598081 39.19140625 151.6484375 C49.6007205 151.21336995 57.68141441 145.79406247 64.62890625 138.2734375 C68.88087543 133.07556589 71.97816932 127.50397277 74.6875 121.375 C75.04585937 120.56546875 75.40421875 119.7559375 75.7734375 118.921875 C79.41293133 108.78106314 77.46263931 98.18504581 73.5 88.4609375 C67.99778048 77.36271063 58.6945242 68.03120668 46.83349609 63.92285156 C34.31271193 60.72641929 21.13786307 62.84537826 9.6875 68.375 C8.79587158 68.79313965 8.79587158 68.79313965 7.88623047 69.21972656 C-5.76315914 75.69485071 -17.50100236 84.85510029 -29.04296875 94.5 C-29.79191406 95.11875 -30.54085937 95.7375 -31.3125 96.375 C-31.98925781 96.973125 -32.66601562 97.57125 -33.36328125 98.1875 C-35.3125 99.375 -35.3125 99.375 -37.35546875 99.25390625 C-39.62445912 98.2348986 -40.90880794 97.11061054 -42.625 95.3125 C-43.53958984 94.35730469 -43.53958984 94.35730469 -44.47265625 93.3828125 C-46.79880943 90.8442929 -49.0676819 88.26294694 -51.3125 85.65234375 C-53.22265651 83.47730225 -55.18613726 81.36017484 -57.16479492 79.24755859 C-63.13996418 72.84551699 -68.55416738 66.11817373 -73.89892578 59.18701172 C-75.31719554 57.36898095 -76.76019753 55.57418155 -78.21484375 53.78515625 C-102.3125 24.14269563 -102.3125 24.14269563 -102.3125 18.375 C-94.43847877 14.9508196 -86.41786805 12.56595001 -78.125 10.375 C-77.47142517 10.20135925 -76.81785034 10.02771851 -76.14447021 9.84881592 C-63.98171189 6.63318711 -51.77174211 4.13377919 -39.3125 2.375 C-38.19045166 2.19984863 -37.06840332 2.02469727 -35.91235352 1.84423828 C-23.95132888 0.12445266 -12.06971646 -0.02117329 0 0 Z " fill="#CA9431" transform="translate(119.3125,217.625)"/>
<path d="M0 0 C0.66 0 1.32 0 2 0 C3.078125 1.44604492 3.078125 1.44604492 4.25 3.48046875 C4.90730103 4.59856934 4.90730103 4.59856934 5.57788086 5.73925781 C6.28182983 6.9511377 6.28182983 6.9511377 7 8.1875 C11.82576626 16.27456174 16.98710135 23.73634772 23 31 C23.71373779 31.8660083 23.71373779 31.8660083 24.44189453 32.74951172 C39.70866693 51.16806975 57.33548858 67.1935511 78.125 79.1875 C83.61957851 82.53785275 86.46829393 85.11961888 89 91 C89.38913574 91.85247314 89.38913574 91.85247314 89.78613281 92.72216797 C100.17182764 115.55567834 106.08924664 141.3785333 106.203125 166.47265625 C106.20882507 167.47219833 106.21452515 168.47174042 106.22039795 169.50157166 C106.22981133 171.61700396 106.2363673 173.73245068 106.24023438 175.84790039 C106.24981346 179.00109551 106.28081863 182.15360162 106.3125 185.30664062 C106.38581767 199.43804992 105.16373533 213.04536368 103 227 C102.70605262 228.97834938 102.41267838 230.956784 102.11987305 232.93530273 C99.37985417 251.154135 93.88625817 268.57960978 88 286 C83.72631342 284.52522133 80.30155902 282.27761508 76.6875 279.625 C76.08139893 279.18510742 75.47529785 278.74521484 74.85083008 278.29199219 C72.8956234 276.8679371 70.94746481 275.43461958 69 274 C68.360625 273.53239258 67.72125 273.06478516 67.0625 272.58300781 C53.55611722 262.69148857 40.4571972 252.25565652 28.1171875 240.93359375 C26.13220248 239.12073843 24.10712831 237.36991372 22.0625 235.625 C18.61507139 232.59608638 15.24894633 229.48892464 11.9375 226.3125 C11.43549072 225.84859863 10.93348145 225.38469727 10.41625977 224.90673828 C7.04435805 221.61485181 7.04435805 221.61485181 6.859375 219.05078125 C8.58260216 215.95251324 10.9331083 213.47305853 13.3125 210.875 C30.82872406 191.03843123 44.78537006 168.24332196 43.20263672 141.1171875 C42.24872341 131.15051733 35.72545108 123.15266913 28.421875 116.734375 C22.34842121 112.04913922 16.3234976 109.18962681 9 107 C7.515 106.505 7.515 106.505 6 106 C-7.95583772 104.68341154 -18.58772347 108.4186334 -29.5625 116.96875 C-30.7690625 117.97421875 -30.7690625 117.97421875 -32 119 C-32.680625 119.5671875 -33.36125 120.134375 -34.0625 120.71875 C-40.23342455 126.3576983 -44.70759327 134.36942778 -45.23828125 142.7734375 C-45.97319953 172.72791902 -27.42055223 197.65727707 -8 219 C-16.08068866 228.78188627 -25.09631081 237.10196359 -35 245 C-36.25559514 246.03180239 -37.50939742 247.06578906 -38.76171875 248.1015625 C-46.6691683 254.62663128 -54.70304293 260.83173446 -63.11816406 266.68603516 C-65.19821978 268.1384041 -67.26765823 269.60513081 -69.3359375 271.07421875 C-76.48942028 276.15211593 -83.64187002 281.22036001 -91 286 C-93 285 -93 285 -93.8503418 283.1027832 C-98.67410915 268.60095977 -102.19877943 254.1445856 -104.9375 239.125 C-105.08665863 238.31334381 -105.23581726 237.50168762 -105.38949585 236.66543579 C-108.28024669 220.7812649 -109.18659 205.40384372 -109.18530273 189.26538086 C-109.18748767 186.20477346 -109.20569438 183.14452827 -109.22460938 180.08398438 C-109.25632813 169.18765315 -108.83983892 158.76186514 -107 148 C-106.85393311 147.04182373 -106.70786621 146.08364746 -106.55737305 145.09643555 C-103.94976867 128.16610204 -99.35902031 112.42341215 -92.9375 96.5625 C-92.62135742 95.76303955 -92.30521484 94.9635791 -91.97949219 94.13989258 C-88.59970153 86.11418968 -82.67589559 83.10326636 -75.4375 78.8125 C-67.91596873 74.27553533 -60.84969537 69.51728887 -54 64 C-53.48663086 63.58814453 -52.97326172 63.17628906 -52.44433594 62.75195312 C-38.98011716 51.87920815 -27.2919591 39.91270783 -17 26 C-16.34040283 25.11562256 -16.34040283 25.11562256 -15.66748047 24.21337891 C-10.38227025 17.09710285 -5.61044447 9.93173189 -1.375 2.1328125 C-0.92125 1.42898438 -0.4675 0.72515625 0 0 Z " fill="#CA9431" transform="translate(311,333)"/>
<path d="M0 0 C1.07507813 1.07894531 1.07507813 1.07894531 2.171875 2.1796875 C3.96345773 3.96632111 5.76445419 5.74360544 7.578125 7.5078125 C12.98648466 12.80547474 17.97556833 18.20488776 22.69921875 24.13671875 C24.72936872 26.6632042 26.81401849 29.12997551 28.93188477 31.58300781 C55.52901842 62.49306305 80.17425392 98.72166752 89 139 C89.20238281 139.92039063 89.40476562 140.84078125 89.61328125 141.7890625 C92.54308612 166.11532115 88.33335867 187.7271281 73.32421875 207.27734375 C57.32863448 226.01502818 35.99698023 240.90631433 11 244 C-15.38893299 245.67152431 -39.30645546 237.49634318 -59.359375 220.16015625 C-62.3181465 217.51828296 -65.16127682 214.77000976 -68 212 C-68.67675781 211.38511719 -69.35351562 210.77023438 -70.05078125 210.13671875 C-82.87266158 198.22459489 -89.37665044 180.82990608 -90.28515625 163.63671875 C-91.84183145 113.15753751 -58.889999 67.92463976 -28 31 C-27.25435791 30.10571289 -27.25435791 30.10571289 -26.49365234 29.19335938 C-18.0654422 19.11838528 -9.2908169 9.2908169 0 0 Z " fill="#CA9431" transform="translate(311,0)"/>
<path d="M0 0 C1.07507813 1.07894531 1.07507813 1.07894531 2.171875 2.1796875 C3.96345773 3.96632111 5.76445419 5.74360544 7.578125 7.5078125 C12.98648466 12.80547474 17.97556833 18.20488776 22.69921875 24.13671875 C24.72936872 26.6632042 26.81401849 29.12997551 28.93188477 31.58300781 C55.52901842 62.49306305 80.17425392 98.72166752 89 139 C89.20238281 139.92039063 89.40476562 140.84078125 89.61328125 141.7890625 C92.54308612 166.11532115 88.33335867 187.7271281 73.32421875 207.27734375 C57.32863448 226.01502818 35.99698023 240.90631433 11 244 C-15.38893299 245.67152431 -39.30645546 237.49634318 -59.359375 220.16015625 C-62.3181465 217.51828296 -65.16127682 214.77000976 -68 212 C-68.67675781 211.38511719 -69.35351562 210.77023438 -70.05078125 210.13671875 C-82.87266158 198.22459489 -89.37665044 180.82990608 -90.28515625 163.63671875 C-91.84183145 113.15753751 -58.889999 67.92463976 -28 31 C-27.25435791 30.10571289 -27.25435791 30.10571289 -26.49365234 29.19335938 C-18.0654422 19.11838528 -9.2908169 9.2908169 0 0 Z M-3.28515625 18.23828125 C-4.2175032 19.25705076 -5.14281907 20.282282 -6.0625 21.3125 C-6.55637207 21.85938477 -7.05024414 22.40626953 -7.55908203 22.96972656 C-11.35450755 27.2042619 -15.00379369 31.54393583 -18.56640625 35.9765625 C-20.36969368 38.21692281 -22.18847908 40.43767405 -24.02734375 42.6484375 C-40.38525558 62.38777254 -55.2992421 83.778605 -66.11474609 107.09375 C-66.71045477 108.37651153 -67.31513685 109.65513983 -67.92822266 110.9296875 C-78.21026747 132.32063608 -84.08390735 157.07973487 -77 180.5 C-67.03830335 204.57410024 -45.37145046 220.11700103 -22.00292969 229.83007812 C-4.81845203 236.59535349 11.26846259 235.19544307 28.12353516 228.10693359 C50.74233156 218.06399998 68.00460483 202.20022928 77.03515625 178.87890625 C84.82215411 155.64401791 78.24450162 130.39059864 68 109 C67.65904297 108.27844727 67.31808594 107.55689453 66.96679688 106.81347656 C57.92163428 87.95981188 45.90483325 70.415707 33 54 C32.14516793 52.89113765 31.2910413 51.78173122 30.4375 50.671875 C23.89620753 42.20915856 17.03860088 34.05173283 10 26 C9.54753906 25.47760742 9.09507812 24.95521484 8.62890625 24.41699219 C7.38392188 22.98082699 6.12973055 21.55265816 4.875 20.125 C4.17117188 19.32320312 3.46734375 18.52140625 2.7421875 17.6953125 C-0.00513715 15.0219069 -0.58385348 15.59238981 -3.28515625 18.23828125 Z " fill="#6D4C34" transform="translate(311,0)"/>
</svg>
