<svg xmlns="http://www.w3.org/2000/svg" xmlns:xlink="http://www.w3.org/1999/xlink" viewBox="0 0 728.99 775.95"><defs><style>.cls-1,.cls-3{fill:none;}.cls-2{fill:#cb9531;}.cls-3{stroke:#6c4c35;stroke-miterlimit:10;stroke-width:1.03px;}.cls-4{fill:url(#New_Pattern_2);}</style><pattern id="New_Pattern_2" data-name="New Pattern 2" width="208.54" height="210.88" patternUnits="userSpaceOnUse" viewBox="0 0 208.54 210.88"><rect class="cls-1" width="208.54" height="210.88"/><path class="cls-2" d="M217.69,190.09a56.7,56.7,0,0,1-9.35-7.69A24.33,24.33,0,0,0,211,179a7.26,7.26,0,0,0,1.46-4.23,4.32,4.32,0,0,0-4.15-3.72,4.93,4.93,0,0,0-3.9,2.59c-.9,2.11.59,5.22,3.9,8.74a58.53,58.53,0,0,1-9.66,7.68c-.49-1.22-4.6-12.15.32-21.85h0a19.21,19.21,0,0,1,1.62-2.67,22.07,22.07,0,0,1,7.68-6.61h0l.22-.11.26.14a21.8,21.8,0,0,1,7.26,6.42,19.53,19.53,0,0,1,1.57,2.6C222.55,177.78,218.19,188.89,217.69,190.09Z"/><path class="cls-3" d="M217.69,190.09a56.7,56.7,0,0,1-9.35-7.69A24.33,24.33,0,0,0,211,179a7.26,7.26,0,0,0,1.46-4.23,4.32,4.32,0,0,0-4.15-3.72,4.93,4.93,0,0,0-3.9,2.59c-.9,2.11.59,5.22,3.9,8.74a58.53,58.53,0,0,1-9.66,7.68c-.49-1.22-4.6-12.15.32-21.85h0a19.21,19.21,0,0,1,1.62-2.67,22.07,22.07,0,0,1,7.68-6.61h0l.22-.11.26.14a21.8,21.8,0,0,1,7.26,6.42,19.53,19.53,0,0,1,1.57,2.6C222.55,177.78,218.19,188.89,217.69,190.09Z"/><path class="cls-2" d="M217.18,142.18c-.22,4.16-4.59,7.8-8.74,7.82-3,0-7-2.68-8.19-5.44-1.89-4.43,1.23-11,8.2-18.37a51.62,51.62,0,0,1,5.66,7.09C215.85,136,217.36,139,217.18,142.18Z"/><path class="cls-3" d="M217.18,142.18c-.22,4.16-4.59,7.8-8.74,7.82-3,0-7-2.68-8.19-5.44-1.89-4.43,1.23-11,8.2-18.37a51.62,51.62,0,0,1,5.66,7.09C215.85,136,217.36,139,217.18,142.18Z"/><path class="cls-3" d="M239.88,168.54c-1.24.49-12.46,4.72-22.26-.55a20.12,20.12,0,0,1-2.26-1.41,21.92,21.92,0,0,1-6.57-7.61l-.15-.28a21.75,21.75,0,0,1,6.55-7.53c10.32-7.31,23.4-2.18,24.71-1.63a57.21,57.21,0,0,1-7.7,9.35,25.16,25.16,0,0,0-3.37-2.69,7.3,7.3,0,0,0-4.23-1.47,4.34,4.34,0,0,0-3.72,4.16,4.93,4.93,0,0,0,2.59,3.9c2.1.9,5.22-.59,8.73-3.9A58.12,58.12,0,0,1,239.88,168.54Z"/><path class="cls-2" d="M208.45,158.69l-.14.25a21.81,21.81,0,0,1-6.58,7.64,20.56,20.56,0,0,1-2.72,1.65c-9.69,4.89-20.58.8-21.81.31a57.77,57.77,0,0,1,7.69-9.66c3.51,3.31,6.63,4.8,8.73,3.9a4.89,4.89,0,0,0,2.58-3.9,4.32,4.32,0,0,0-3.71-4.16,7.27,7.27,0,0,0-4.23,1.47,24.4,24.4,0,0,0-3.37,2.69,56.78,56.78,0,0,1-7.7-9.35c1.31-.55,14.39-5.68,24.71,1.63A21.75,21.75,0,0,1,208.45,158.69Z"/><path class="cls-3" d="M208.45,158.69l-.14.25a21.81,21.81,0,0,1-6.58,7.64,20.56,20.56,0,0,1-2.72,1.65c-9.69,4.89-20.58.8-21.81.31a57.77,57.77,0,0,1,7.69-9.66c3.51,3.31,6.63,4.8,8.73,3.9a4.89,4.89,0,0,0,2.58-3.9,4.32,4.32,0,0,0-3.71-4.16,7.27,7.27,0,0,0-4.23,1.47,24.4,24.4,0,0,0-3.37,2.69,56.78,56.78,0,0,1-7.7-9.35c1.31-.55,14.39-5.68,24.71,1.63A21.75,21.75,0,0,1,208.45,158.69Z"/><path class="cls-2" d="M112.91,194.9c-.22,4.16-4.59,7.8-8.74,7.82-3,0-7-2.68-8.19-5.44-1.89-4.43,1.22-11,8.2-18.37a52.38,52.38,0,0,1,5.66,7.09C111.58,188.67,113.08,191.71,112.91,194.9Z"/><path class="cls-3" d="M112.91,194.9c-.22,4.16-4.59,7.8-8.74,7.82-3,0-7-2.68-8.19-5.44-1.89-4.43,1.22-11,8.2-18.37a52.38,52.38,0,0,1,5.66,7.09C111.58,188.67,113.08,191.71,112.91,194.9Z"/><path class="cls-2" d="M135.61,221.26c-1.24.49-12.46,4.72-22.26-.55a20.12,20.12,0,0,1-2.26-1.41,22.07,22.07,0,0,1-6.58-7.61,2.44,2.44,0,0,0-.14-.28,21.54,21.54,0,0,1,6.55-7.53c10.31-7.31,23.4-2.18,24.7-1.63a56.7,56.7,0,0,1-7.69,9.35,23.67,23.67,0,0,0-3.37-2.69,7.33,7.33,0,0,0-4.24-1.47,4.33,4.33,0,0,0-3.71,4.16,4.89,4.89,0,0,0,2.58,3.9c2.11.9,5.22-.59,8.74-3.9A58.12,58.12,0,0,1,135.61,221.26Z"/><path class="cls-3" d="M135.61,221.26c-1.24.49-12.46,4.72-22.26-.55a20.12,20.12,0,0,1-2.26-1.41,22.07,22.07,0,0,1-6.58-7.61,2.44,2.44,0,0,0-.14-.28,21.54,21.54,0,0,1,6.55-7.53c10.31-7.31,23.4-2.18,24.7-1.63a56.7,56.7,0,0,1-7.69,9.35,23.67,23.67,0,0,0-3.37-2.69,7.33,7.33,0,0,0-4.24-1.47,4.33,4.33,0,0,0-3.71,4.16,4.89,4.89,0,0,0,2.58,3.9c2.11.9,5.22-.59,8.74-3.9A58.12,58.12,0,0,1,135.61,221.26Z"/><path class="cls-2" d="M104.18,211.41l-.14.25a21.75,21.75,0,0,1-6.59,7.64A20.89,20.89,0,0,1,94.74,221c-9.69,4.89-20.59.8-21.81.31a57.26,57.26,0,0,1,7.69-9.66c3.51,3.31,6.63,4.8,8.73,3.9a4.89,4.89,0,0,0,2.58-3.9,4.32,4.32,0,0,0-3.71-4.16A7.27,7.27,0,0,0,84,208.91a23.67,23.67,0,0,0-3.37,2.69,56.28,56.28,0,0,1-7.7-9.35c1.31-.55,14.39-5.68,24.71,1.63A21.75,21.75,0,0,1,104.18,211.41Z"/><path class="cls-3" d="M104.18,211.41l-.14.25a21.75,21.75,0,0,1-6.59,7.64A20.89,20.89,0,0,1,94.74,221c-9.69,4.89-20.59.8-21.81.31a57.26,57.26,0,0,1,7.69-9.66c3.51,3.31,6.63,4.8,8.73,3.9a4.89,4.89,0,0,0,2.58-3.9,4.32,4.32,0,0,0-3.71-4.16A7.27,7.27,0,0,0,84,208.91a23.67,23.67,0,0,0-3.37,2.69,56.28,56.28,0,0,1-7.7-9.35c1.31-.55,14.39-5.68,24.71,1.63A21.75,21.75,0,0,1,104.18,211.41Z"/><path class="cls-2" d="M9.15,190.09A56.4,56.4,0,0,1-.21,182.4,25.17,25.17,0,0,0,2.49,179,7.26,7.26,0,0,0,4,174.79a4.33,4.33,0,0,0-4.16-3.72,4.89,4.89,0,0,0-3.89,2.59c-.9,2.11.59,5.22,3.89,8.74a57.71,57.71,0,0,1-9.66,7.68c-.48-1.22-4.59-12.15.33-21.85h0a19.21,19.21,0,0,1,1.62-2.67A22,22,0,0,1-.23,159h0l.21-.11.26.14a21.72,21.72,0,0,1,7.27,6.42A19.45,19.45,0,0,1,9.07,168C14,177.78,9.65,188.89,9.15,190.09Z"/><path class="cls-3" d="M9.15,190.09A56.4,56.4,0,0,1-.21,182.4,25.17,25.17,0,0,0,2.49,179,7.26,7.26,0,0,0,4,174.79a4.33,4.33,0,0,0-4.16-3.72,4.89,4.89,0,0,0-3.89,2.59c-.9,2.11.59,5.22,3.89,8.74a57.71,57.71,0,0,1-9.66,7.68c-.48-1.22-4.59-12.15.33-21.85h0a19.21,19.21,0,0,1,1.62-2.67A22,22,0,0,1-.23,159h0l.21-.11.26.14a21.72,21.72,0,0,1,7.27,6.42A19.45,19.45,0,0,1,9.07,168C14,177.78,9.65,188.89,9.15,190.09Z"/><path class="cls-2" d="M8.64,142.18C8.42,146.34,4.05,150-.1,150c-3,0-7-2.68-8.19-5.44-1.9-4.43,1.22-11,8.2-18.37a52.38,52.38,0,0,1,5.66,7.09C7.31,136,8.81,139,8.64,142.18Z"/><path class="cls-3" d="M8.64,142.18C8.42,146.34,4.05,150-.1,150c-3,0-7-2.68-8.19-5.44-1.9-4.43,1.22-11,8.2-18.37a52.38,52.38,0,0,1,5.66,7.09C7.31,136,8.81,139,8.64,142.18Z"/><path class="cls-2" d="M31.34,168.54c-1.24.49-12.46,4.72-22.27-.55a20,20,0,0,1-2.25-1.41A22,22,0,0,1,.24,159l-.14-.28a21.6,21.6,0,0,1,6.54-7.53C17,143.85,30,149,31.35,149.53a56.7,56.7,0,0,1-7.69,9.35,25.26,25.26,0,0,0-3.38-2.69,7.27,7.27,0,0,0-4.23-1.47,4.33,4.33,0,0,0-3.71,4.16,4.89,4.89,0,0,0,2.58,3.9c2.1.9,5.22-.59,8.74-3.9A58.12,58.12,0,0,1,31.34,168.54Z"/><path class="cls-3" d="M31.34,168.54c-1.24.49-12.46,4.72-22.27-.55a20,20,0,0,1-2.25-1.41A22,22,0,0,1,.24,159l-.14-.28a21.6,21.6,0,0,1,6.54-7.53C17,143.85,30,149,31.35,149.53a56.7,56.7,0,0,1-7.69,9.35,25.26,25.26,0,0,0-3.38-2.69,7.27,7.27,0,0,0-4.23-1.47,4.33,4.33,0,0,0-3.71,4.16,4.89,4.89,0,0,0,2.58,3.9c2.1.9,5.22-.59,8.74-3.9A58.12,58.12,0,0,1,31.34,168.54Z"/><path class="cls-3" d="M-.1,158.69l-.13.25a21.86,21.86,0,0,1-6.59,7.64,19.84,19.84,0,0,1-2.71,1.65c-9.69,4.89-20.59.8-21.81.31a57.26,57.26,0,0,1,7.69-9.66c3.51,3.31,6.62,4.8,8.73,3.9a4.89,4.89,0,0,0,2.58-3.9A4.33,4.33,0,0,0-16,154.72a7.27,7.27,0,0,0-4.23,1.47,23.81,23.81,0,0,0-3.37,2.69,55.79,55.79,0,0,1-7.7-9.35C-30,149-17,143.85-6.64,151.16A21.6,21.6,0,0,1-.1,158.69Z"/><path class="cls-2" d="M217.69,84.66a57.21,57.21,0,0,1-9.35-7.7A24.33,24.33,0,0,0,211,73.58a7.26,7.26,0,0,0,1.46-4.22,4.3,4.3,0,0,0-4.15-3.72,4.89,4.89,0,0,0-3.9,2.58c-.9,2.11.59,5.22,3.9,8.74a58.53,58.53,0,0,1-9.66,7.68c-.49-1.22-4.6-12.15.32-21.85h0a19.21,19.21,0,0,1,1.62-2.67,22.18,22.18,0,0,1,7.68-6.61h0l.22-.11.26.14A21.8,21.8,0,0,1,216.05,60a20.19,20.19,0,0,1,1.57,2.6C222.55,72.34,218.19,83.45,217.69,84.66Z"/><path class="cls-3" d="M217.69,84.66a57.21,57.21,0,0,1-9.35-7.7A24.33,24.33,0,0,0,211,73.58a7.26,7.26,0,0,0,1.46-4.22,4.3,4.3,0,0,0-4.15-3.72,4.89,4.89,0,0,0-3.9,2.58c-.9,2.11.59,5.22,3.9,8.74a58.53,58.53,0,0,1-9.66,7.68c-.49-1.22-4.6-12.15.32-21.85h0a19.21,19.21,0,0,1,1.62-2.67,22.18,22.18,0,0,1,7.68-6.61h0l.22-.11.26.14A21.8,21.8,0,0,1,216.05,60a20.19,20.19,0,0,1,1.57,2.6C222.55,72.34,218.19,83.45,217.69,84.66Z"/><path class="cls-2" d="M217.18,36.74c-.22,4.17-4.59,7.8-8.74,7.82-3,0-7-2.68-8.19-5.44-1.89-4.43,1.23-11,8.2-18.37a51.11,51.11,0,0,1,5.66,7.1C215.85,30.51,217.36,33.55,217.18,36.74Z"/><path class="cls-3" d="M217.18,36.74c-.22,4.17-4.59,7.8-8.74,7.82-3,0-7-2.68-8.19-5.44-1.89-4.43,1.23-11,8.2-18.37a51.11,51.11,0,0,1,5.66,7.1C215.85,30.51,217.36,33.55,217.18,36.74Z"/><path class="cls-3" d="M239.88,63.1c-1.24.49-12.46,4.72-22.26-.55a20,20,0,0,1-2.26-1.4,22,22,0,0,1-6.57-7.62l-.15-.28a21.84,21.84,0,0,1,6.55-7.53c10.32-7.31,23.4-2.17,24.71-1.63a57.21,57.21,0,0,1-7.7,9.35,25.16,25.16,0,0,0-3.37-2.69,7.3,7.3,0,0,0-4.23-1.47,4.34,4.34,0,0,0-3.72,4.16,4.93,4.93,0,0,0,2.59,3.9c2.1.9,5.22-.59,8.73-3.9A58.53,58.53,0,0,1,239.88,63.1Z"/><path class="cls-2" d="M208.45,53.25l-.14.25a21.92,21.92,0,0,1-6.58,7.65A20.47,20.47,0,0,1,199,62.79c-9.69,4.89-20.58.8-21.81.31a58.17,58.17,0,0,1,7.69-9.66c3.51,3.32,6.63,4.8,8.73,3.9a4.89,4.89,0,0,0,2.58-3.9,4.32,4.32,0,0,0-3.71-4.16,7.27,7.27,0,0,0-4.23,1.47,24.4,24.4,0,0,0-3.37,2.69,56.78,56.78,0,0,1-7.7-9.35c1.31-.54,14.39-5.68,24.71,1.63A21.84,21.84,0,0,1,208.45,53.25Z"/><path class="cls-3" d="M208.45,53.25l-.14.25a21.92,21.92,0,0,1-6.58,7.65A20.47,20.47,0,0,1,199,62.79c-9.69,4.89-20.58.8-21.81.31a58.17,58.17,0,0,1,7.69-9.66c3.51,3.32,6.63,4.8,8.73,3.9a4.89,4.89,0,0,0,2.58-3.9,4.32,4.32,0,0,0-3.71-4.16,7.27,7.27,0,0,0-4.23,1.47,24.4,24.4,0,0,0-3.37,2.69,56.78,56.78,0,0,1-7.7-9.35c1.31-.54,14.39-5.68,24.71,1.63A21.84,21.84,0,0,1,208.45,53.25Z"/><path class="cls-2" d="M113.42,137.38a56.78,56.78,0,0,1-9.35-7.7,24.33,24.33,0,0,0,2.69-3.38,7.26,7.26,0,0,0,1.46-4.22,4.33,4.33,0,0,0-4.15-3.73,4.93,4.93,0,0,0-3.9,2.59c-.9,2.11.59,5.22,3.9,8.74a58.19,58.19,0,0,1-9.67,7.68c-.48-1.22-4.59-12.15.33-21.85h0a19.21,19.21,0,0,1,1.62-2.67,22,22,0,0,1,7.68-6.61h0l.22-.11.25.14a21.72,21.72,0,0,1,7.27,6.42,20.19,20.19,0,0,1,1.57,2.6C118.28,125.06,113.92,136.17,113.42,137.38Z"/><path class="cls-3" d="M113.42,137.38a56.78,56.78,0,0,1-9.35-7.7,24.33,24.33,0,0,0,2.69-3.38,7.26,7.26,0,0,0,1.46-4.22,4.33,4.33,0,0,0-4.15-3.73,4.93,4.93,0,0,0-3.9,2.59c-.9,2.11.59,5.22,3.9,8.74a58.19,58.19,0,0,1-9.67,7.68c-.48-1.22-4.59-12.15.33-21.85h0a19.21,19.21,0,0,1,1.62-2.67,22,22,0,0,1,7.68-6.61h0l.22-.11.25.14a21.72,21.72,0,0,1,7.27,6.42,20.19,20.19,0,0,1,1.57,2.6C118.28,125.06,113.92,136.17,113.42,137.38Z"/><path class="cls-2" d="M112.91,89.46c-.22,4.16-4.59,7.8-8.74,7.82-3,0-7-2.68-8.19-5.44-1.89-4.43,1.22-11,8.2-18.37a52.38,52.38,0,0,1,5.66,7.09C111.58,83.23,113.08,86.27,112.91,89.46Z"/><path class="cls-3" d="M112.91,89.46c-.22,4.16-4.59,7.8-8.74,7.82-3,0-7-2.68-8.19-5.44-1.89-4.43,1.22-11,8.2-18.37a52.38,52.38,0,0,1,5.66,7.09C111.58,83.23,113.08,86.27,112.91,89.46Z"/><path class="cls-2" d="M135.61,115.82c-1.24.49-12.46,4.72-22.26-.55a21.57,21.57,0,0,1-2.26-1.4,22.18,22.18,0,0,1-6.58-7.62,2.44,2.44,0,0,0-.14-.28,21.54,21.54,0,0,1,6.55-7.53c10.31-7.31,23.4-2.17,24.7-1.63a56.7,56.7,0,0,1-7.69,9.35,25.16,25.16,0,0,0-3.37-2.69,7.33,7.33,0,0,0-4.24-1.47,4.33,4.33,0,0,0-3.71,4.16,4.89,4.89,0,0,0,2.58,3.9c2.11.9,5.22-.59,8.74-3.9A58.12,58.12,0,0,1,135.61,115.82Z"/><path class="cls-3" d="M135.61,115.82c-1.24.49-12.46,4.72-22.26-.55a21.57,21.57,0,0,1-2.26-1.4,22.18,22.18,0,0,1-6.58-7.62,2.44,2.44,0,0,0-.14-.28,21.54,21.54,0,0,1,6.55-7.53c10.31-7.31,23.4-2.17,24.7-1.63a56.7,56.7,0,0,1-7.69,9.35,25.16,25.16,0,0,0-3.37-2.69,7.33,7.33,0,0,0-4.24-1.47,4.33,4.33,0,0,0-3.71,4.16,4.89,4.89,0,0,0,2.58,3.9c2.11.9,5.22-.59,8.74-3.9A58.12,58.12,0,0,1,135.61,115.82Z"/><path class="cls-2" d="M104.18,106l-.14.25a21.86,21.86,0,0,1-6.59,7.65,19.76,19.76,0,0,1-2.71,1.64c-9.69,4.89-20.59.8-21.81.31a57.26,57.26,0,0,1,7.69-9.66c3.51,3.31,6.63,4.8,8.73,3.9a4.89,4.89,0,0,0,2.58-3.9A4.32,4.32,0,0,0,88.22,102,7.27,7.27,0,0,0,84,103.47a24.4,24.4,0,0,0-3.37,2.69,56.28,56.28,0,0,1-7.7-9.35c1.31-.54,14.39-5.68,24.71,1.63A21.75,21.75,0,0,1,104.18,106Z"/><path class="cls-3" d="M104.18,106l-.14.25a21.86,21.86,0,0,1-6.59,7.65,19.76,19.76,0,0,1-2.71,1.64c-9.69,4.89-20.59.8-21.81.31a57.26,57.26,0,0,1,7.69-9.66c3.51,3.31,6.63,4.8,8.73,3.9a4.89,4.89,0,0,0,2.58-3.9A4.32,4.32,0,0,0,88.22,102,7.27,7.27,0,0,0,84,103.47a24.4,24.4,0,0,0-3.37,2.69,56.28,56.28,0,0,1-7.7-9.35c1.31-.54,14.39-5.68,24.71,1.63A21.75,21.75,0,0,1,104.18,106Z"/><path class="cls-2" d="M9.15,84.66A56.9,56.9,0,0,1-.21,77a25.17,25.17,0,0,0,2.7-3.38A7.26,7.26,0,0,0,4,69.36,4.31,4.31,0,0,0-.21,65.64,4.86,4.86,0,0,0-4.1,68.22C-5,70.33-3.51,73.44-.21,77a57.71,57.71,0,0,1-9.66,7.68c-.48-1.22-4.59-12.15.33-21.85h0a19.21,19.21,0,0,1,1.62-2.67A22.09,22.09,0,0,1-.23,53.51h0L0,53.39l.26.14A21.72,21.72,0,0,1,7.51,60a20.1,20.1,0,0,1,1.56,2.6C14,72.34,9.65,83.45,9.15,84.66Z"/><path class="cls-3" d="M9.15,84.66A56.9,56.9,0,0,1-.21,77a25.17,25.17,0,0,0,2.7-3.38A7.26,7.26,0,0,0,4,69.36,4.31,4.31,0,0,0-.21,65.64,4.86,4.86,0,0,0-4.1,68.22C-5,70.33-3.51,73.44-.21,77a57.71,57.71,0,0,1-9.66,7.68c-.48-1.22-4.59-12.15.33-21.85h0a19.21,19.21,0,0,1,1.62-2.67A22.09,22.09,0,0,1-.23,53.51h0L0,53.39l.26.14A21.72,21.72,0,0,1,7.51,60a20.1,20.1,0,0,1,1.56,2.6C14,72.34,9.65,83.45,9.15,84.66Z"/><path class="cls-2" d="M8.64,36.74c-.22,4.17-4.59,7.8-8.74,7.82-3,0-7-2.68-8.19-5.44-1.9-4.43,1.22-11,8.2-18.37a51.86,51.86,0,0,1,5.66,7.1C7.31,30.51,8.81,33.55,8.64,36.74Z"/><path class="cls-3" d="M8.64,36.74c-.22,4.17-4.59,7.8-8.74,7.82-3,0-7-2.68-8.19-5.44-1.9-4.43,1.22-11,8.2-18.37a51.86,51.86,0,0,1,5.66,7.1C7.31,30.51,8.81,33.55,8.64,36.74Z"/><path class="cls-2" d="M31.34,63.1c-1.24.49-12.46,4.72-22.27-.55a19.9,19.9,0,0,1-2.25-1.4A22.07,22.07,0,0,1,.24,53.53c0-.1-.1-.19-.14-.28a21.69,21.69,0,0,1,6.54-7.53C17,38.41,30,43.55,31.35,44.09a56.7,56.7,0,0,1-7.69,9.35,25.26,25.26,0,0,0-3.38-2.69,7.27,7.27,0,0,0-4.23-1.47,4.33,4.33,0,0,0-3.71,4.16,4.89,4.89,0,0,0,2.58,3.9c2.1.9,5.22-.59,8.74-3.9A58.53,58.53,0,0,1,31.34,63.1Z"/><path class="cls-3" d="M31.34,63.1c-1.24.49-12.46,4.72-22.27-.55a19.9,19.9,0,0,1-2.25-1.4A22.07,22.07,0,0,1,.24,53.53c0-.1-.1-.19-.14-.28a21.69,21.69,0,0,1,6.54-7.53C17,38.41,30,43.55,31.35,44.09a56.7,56.7,0,0,1-7.69,9.35,25.26,25.26,0,0,0-3.38-2.69,7.27,7.27,0,0,0-4.23-1.47,4.33,4.33,0,0,0-3.71,4.16,4.89,4.89,0,0,0,2.58,3.9c2.1.9,5.22-.59,8.74-3.9A58.53,58.53,0,0,1,31.34,63.1Z"/><path class="cls-3" d="M-.1,53.25c0,.08-.08.17-.13.25a22,22,0,0,1-6.59,7.65,19.76,19.76,0,0,1-2.71,1.64c-9.69,4.89-20.59.8-21.81.31a57.66,57.66,0,0,1,7.69-9.66c3.51,3.32,6.62,4.8,8.73,3.9a4.89,4.89,0,0,0,2.58-3.9A4.33,4.33,0,0,0-16,49.28a7.27,7.27,0,0,0-4.23,1.47,23.81,23.81,0,0,0-3.37,2.69,55.79,55.79,0,0,1-7.7-9.35C-30,43.55-17,38.41-6.64,45.72A21.69,21.69,0,0,1-.1,53.25Z"/><path class="cls-2" d="M113.42,31.94a56.78,56.78,0,0,1-9.35-7.7,24.33,24.33,0,0,0,2.69-3.38,7.26,7.26,0,0,0,1.46-4.22,4.31,4.31,0,0,0-4.15-3.72,4.88,4.88,0,0,0-3.9,2.59c-.9,2.1.59,5.21,3.9,8.73a58.19,58.19,0,0,1-9.67,7.68c-.48-1.22-4.59-12.15.33-21.84h0A18.74,18.74,0,0,1,96.36,7.4,22.09,22.09,0,0,1,104,.79h0l.22-.11.25.14a21.72,21.72,0,0,1,7.27,6.42,20.19,20.19,0,0,1,1.57,2.6C118.28,19.62,113.92,30.73,113.42,31.94Z"/><path class="cls-3" d="M113.42,31.94a56.78,56.78,0,0,1-9.35-7.7,24.33,24.33,0,0,0,2.69-3.38,7.26,7.26,0,0,0,1.46-4.22,4.31,4.31,0,0,0-4.15-3.72,4.88,4.88,0,0,0-3.9,2.59c-.9,2.1.59,5.21,3.9,8.73a58.19,58.19,0,0,1-9.67,7.68c-.48-1.22-4.59-12.15.33-21.84h0A18.74,18.74,0,0,1,96.36,7.4,22.09,22.09,0,0,1,104,.79h0l.22-.11.25.14a21.72,21.72,0,0,1,7.27,6.42,20.19,20.19,0,0,1,1.57,2.6C118.28,19.62,113.92,30.73,113.42,31.94Z"/><path class="cls-2" d="M135.61,10.38c-1.24.49-12.46,4.72-22.26-.55a20,20,0,0,1-2.26-1.4A22.09,22.09,0,0,1,104.51.81l-.14-.28A21.63,21.63,0,0,1,110.92-7c10.31-7.31,23.4-2.17,24.7-1.63A56.7,56.7,0,0,1,127.93.72,25.16,25.16,0,0,0,124.56-2a7.33,7.33,0,0,0-4.24-1.47A4.34,4.34,0,0,0,116.61.72a4.89,4.89,0,0,0,2.58,3.9c2.11.9,5.22-.59,8.74-3.9A58.53,58.53,0,0,1,135.61,10.38Z"/><path class="cls-3" d="M135.61,10.38c-1.24.49-12.46,4.72-22.26-.55a20,20,0,0,1-2.26-1.4A22.09,22.09,0,0,1,104.51.81l-.14-.28A21.63,21.63,0,0,1,110.92-7c10.31-7.31,23.4-2.17,24.7-1.63A56.7,56.7,0,0,1,127.93.72,25.16,25.16,0,0,0,124.56-2a7.33,7.33,0,0,0-4.24-1.47A4.34,4.34,0,0,0,116.61.72a4.89,4.89,0,0,0,2.58,3.9c2.11.9,5.22-.59,8.74-3.9A58.53,58.53,0,0,1,135.61,10.38Z"/><path class="cls-2" d="M104.18.53,104,.78a21.86,21.86,0,0,1-6.59,7.65,20.89,20.89,0,0,1-2.71,1.65c-9.69,4.88-20.59.79-21.81.3A57.66,57.66,0,0,1,80.62.72c3.51,3.32,6.63,4.8,8.73,3.9A4.89,4.89,0,0,0,91.93.72a4.33,4.33,0,0,0-3.71-4.16A7.27,7.27,0,0,0,84-2,24.4,24.4,0,0,0,80.62.72a56.28,56.28,0,0,1-7.7-9.35C74.23-9.17,87.31-14.31,97.63-7A21.84,21.84,0,0,1,104.18.53Z"/><path class="cls-3" d="M104.18.53,104,.78a21.86,21.86,0,0,1-6.59,7.65,20.89,20.89,0,0,1-2.71,1.65c-9.69,4.88-20.59.79-21.81.3A57.66,57.66,0,0,1,80.62.72c3.51,3.32,6.63,4.8,8.73,3.9A4.89,4.89,0,0,0,91.93.72a4.33,4.33,0,0,0-3.71-4.16A7.27,7.27,0,0,0,84-2,24.4,24.4,0,0,0,80.62.72a56.28,56.28,0,0,1-7.7-9.35C74.23-9.17,87.31-14.31,97.63-7A21.84,21.84,0,0,1,104.18.53Z"/></pattern></defs><g id="Layer_2" data-name="Layer 2"><g id="Layer_1-2" data-name="Layer 1"><rect class="cls-4" width="728.99" height="775.95"/></g></g></svg>